SplineFontDB: 1.0
FontName: FreeSansBold
FullName: Free Sans Bold
FamilyName: FreeSans
Weight: Bold
Copyright: Copyright 2002 Free Software Foundation.
Version: $Revision$
ItalicAngle: 0
UnderlinePosition: -155
UnderlineWidth: 69
Ascent: 800
Descent: 200
NeedsXUIDChange: 1
FSType: 0
PfmFamily: 17
TTFWeight: 700
TTFWidth: 5
Panose: 2 11 7 4 2 2 2 2 2 4
LineGap: 90
VLineGap: 0
HheadAscent: 800
HheadDescent: -200
OS2TypoAscent: 979
OS2TypoDescent: -355
OS2WinAscent: 979
OS2WinDescent: 355
ScriptLang: 2
 1 latn 1 dflt 
 1 hebr 1 dflt 
TableOrder: GSUB 3
	'liga'
	'init'
	'medi'
LangName: 1033 "" "" "" "PfaEdit 1.0 : Free Sans Bold : 11-8-2072" "" "" "" "" "" "" "" "" "" "The use of this font is granted subject to GNU General Public License." "http://www.gnu.org/copyleft/gpl.html" "" "" "" "" "The quick brown fox jumps over the lazy dog." 
LangName: 1060 "" "" "polkrepko" "" "" "" "" "" "" "" "" "" "" "Dovoljena je uporaba v skladu z licenco GNU General Public License." "http://www.gnu.org/copyleft/gpl.html" "" "" "" "" "+AWAA-erif bo za vajo spet kuhal doma+AQ0A-e +AX4A-gance." 
Encoding: unicode
DisplaySize: -96
AntiAlias: 1
FitToEm: 1
WinInfo: 57364 4 5
TeXData: 1 10485760 0 291504 145752 97168 566231 1048576 97168 783286 444596 497025 792723 393216 433062 380633 303038 157286 324010 404750 52429 2506097 1059062 262144
BeginChars: 65537 783
StartChar: .notdef
Encoding: 0 -1 0
Width: 432
Flags: W
Fore
33 0 m 1
 33 666 l 1
 366 666 l 1
 366 0 l 1
 33 0 l 1
66 33 m 1
 333 33 l 1
 333 633 l 1
 66 633 l 1
 66 33 l 1
EndSplineSet
EndChar
StartChar: exclam
Encoding: 33 33 4
Width: 333
Flags: W
Fore
262 726 m 1
 262 516 l 1
 220 207 l 1
 153 207 l 1
 112 516 l 1
 112 726 l 1
 262 726 l 1
262 146 m 1
 262 0 l 1
 112 0 l 1
 112 146 l 1
 262 146 l 1
EndSplineSet
EndChar
StartChar: quotedbl
Encoding: 34 34 5
Width: 474
Flags: W
Fore
188 729 m 1
 188 599 l 1
 146 470 l 1
 90 470 l 1
 50 599 l 1
 50 729 l 1
 188 729 l 1
424 729 m 1
 424 599 l 1
 382 470 l 1
 326 470 l 1
 286 599 l 1
 286 729 l 1
 424 729 l 1
EndSplineSet
EndChar
StartChar: numbersign
Encoding: 35 35 6
Width: 556
Flags: W
Fore
146 -32 m 1
 40 -32 l 1
 80 172 l 1
 3 172 l 1
 3 271 l 1
 100 271 l 1
 130 424 l 1
 31 424 l 1
 31 523 l 1
 150 523 l 1
 184 697 l 1
 289 697 l 1
 255 523 l 1
 358 523 l 1
 392 697 l 1
 497 697 l 1
 463 523 l 1
 553 523 l 1
 553 424 l 1
 444 424 l 1
 413 271 l 1
 513 271 l 1
 513 172 l 1
 394 172 l 1
 354 -32 l 1
 249 -32 l 1
 289 172 l 1
 186 172 l 1
 146 -32 l 1
205 271 m 1
 308 271 l 1
 338 424 l 1
 235 424 l 1
 205 271 l 1
EndSplineSet
EndChar
StartChar: dollar
Encoding: 36 36 7
Width: 556
Flags: W
Fore
517 498 m 1
 389 498 l 1
 391 550 373.667 584.333 337 601 c 0
 329 604.333 320.333 606.667 311 608 c 1
 311 407 l 1
 413 379 477.667 339.667 505 289 c 1
 519.667 263.667 527 232.333 527 195 c 0
 527 125.667 504.333 71.6667 459 33 c 1
 441 20 l 1
 407 -1.33333 363.667 -15 311 -21 c 1
 311 -126 l 1
 243 -126 l 1
 243 -21 l 1
 188.333 -15.6667 143.333 -0.333333 108 25 c 0
 51.3333 65.6667 22.6667 123.333 22 198 c 1
 22 207 l 1
 153 207 l 1
 156.333 136.333 186.333 96 243 86 c 1
 243 299 l 1
 107.667 330.333 39.6667 401.333 39 512 c 0
 39 592.667 74 649.667 144 683 c 0
 172 697 205 705.667 243 709 c 1
 243 763 l 1
 311 763 l 1
 311 709 l 1
 397 704.333 457.333 669.667 492 605 c 0
 492 604.333 492.333 603.667 493 603 c 1
 493 602 l 1
 508.333 572 516.333 537.333 517 498 c 1
243 427 m 1
 243 608 l 1
 189.667 597.333 162.667 566.667 162 516 c 0
 162 476 186 447.333 234 430 c 0
 236.667 429.333 239.667 428.333 243 427 c 1
311 282 m 1
 311 86 l 1
 366.333 100 394.333 132.333 395 183 c 0
 395 231.667 367 264.667 311 282 c 1
EndSplineSet
EndChar
StartChar: percent
Encoding: 37 37 8
Width: 889
Flags: W
Fore
206 701 m 0
 265.333 701 313.333 678.333 350 633 c 0
 368.667 609.667 380.667 583.333 386 554 c 1
 390 517 l 1
 390 462.333 368 416.667 324 380 c 0
 289.333 351.333 250 337 206 337 c 0
 148.667 337 101.667 359 65 403 c 0
 36.3333 436.333 22 475 22 519 c 0
 22 575.667 44.3333 622.333 89 659 c 0
 123 687 162 701 206 701 c 0
206 602 m 0
 174 602 149.667 588.333 133 561 c 0
 125 548.333 121 534.333 121 519 c 0
 121 487.667 134.667 463.667 162 447 c 0
 175.333 439 190 435 206 435 c 0
 237.333 435 261.667 448.667 279 476 c 0
 287 488.667 291 502.667 291 518 c 0
 291 550.667 276.667 575 248 591 c 0
 235.333 598.333 221.333 602 206 602 c 0
606 709 m 1
 682 709 l 1
 287 -20 l 1
 210 -20 l 1
 606 709 l 1
679 352 m 0
 739 352 787 329 823 283 c 0
 849.667 249.667 863 211 863 167 c 0
 863 112.333 841 66.6667 797 30 c 0
 762.333 1.33333 723 -13 679 -13 c 0
 621.667 -13 574.667 9 538 53 c 0
 509.333 86.3333 495 125.333 495 170 c 0
 495 226.667 517.333 273.333 562 310 c 0
 596 338 635 352 679 352 c 0
679 253 m 0
 647 253 622.667 239.333 606 212 c 0
 598.667 199.333 594.667 185 594 169 c 0
 594 137.667 607.667 113.667 635 97 c 2
 636 97 l 2
 649.333 89 663.667 85 679 85 c 0
 710.333 85 734.667 98.6667 752 126 c 0
 760 138.667 764 152.667 764 168 c 0
 764 200 750.333 224.333 723 241 c 2
 722 241 l 2
 708.667 249 694.333 253 679 253 c 0
EndSplineSet
EndChar
StartChar: ampersand
Encoding: 38 38 9
Width: 722
Flags: W
Fore
526 373 m 1
 639 373 l 1
 639 362 l 1
 639 357 l 1
 637 285.667 619.333 224.667 586 174 c 1
 571 154 l 1
 694 0 l 1
 533 0 l 1
 487 56 l 1
 429 12 378.667 -13.3333 336 -20 c 1
 292 -23 l 1
 205.333 -23 140.333 5.33333 97 62 c 0
 69 98 55 141.667 55 193 c 0
 55 252.333 75 300.333 115 337 c 0
 137.667 357.667 170 379 212 401 c 1
 206 409 202 414 200 416 c 2
 172 450 l 2
 144 482.667 130 518 130 556 c 0
 130 610.667 153.333 654.333 200 687 c 0
 234 711 273.667 723 319 723 c 0
 390.333 723 441.667 699.667 473 653 c 1
 473 652 l 1
 489 628 497 600 497 568 c 0
 497 520.667 480.333 480 447 446 c 0
 431 430 408.667 412 380 392 c 1
 496 248 l 1
 516 286 526 324.333 526 363 c 2
 526 373 l 1
278 319 m 1
 231 290 l 1
 203 271.333 188.667 244.667 188 210 c 0
 188 173.333 203 142.333 233 117 c 0
 252.333 101 272.667 93 294 93 c 0
 326 93 366 111.333 414 148 c 1
 278 319 l 1
317 470 m 1
 356.333 492 376.333 520.667 377 556 c 0
 377 590.667 358 610 320 614 c 1
 291.333 614 273 603.333 265 582 c 1
 262 566 l 1
 262 550.667 268.333 534 281 516 c 1
 282 516 l 1
 317 470 l 1
EndSplineSet
EndChar
StartChar: quotesingle
Encoding: 39 39 10
Width: 238
Flags: W
Fore
188 729 m 1
 188 599 l 1
 146 470 l 1
 90 470 l 1
 50 599 l 1
 50 729 l 1
 188 729 l 1
EndSplineSet
EndChar
StartChar: parenleft
Encoding: 40 40 11
Width: 333
Flags: W
Fore
203 729 m 1
 303 729 l 1
 231 590.333 187.667 476.667 173 388 c 0
 166.333 350 163 309 163 265 c 0
 163 169 182.333 72.3333 221 -25 c 0
 240.333 -73.6667 267.667 -132 303 -200 c 1
 203 -200 l 1
 111 -61.3333 58 67.3333 44 186 c 0
 41.3333 211.333 40 237.667 40 265 c 0
 40 388.333 76.3333 513.667 149 641 c 0
 165 669 183 698.333 203 729 c 1
EndSplineSet
EndChar
StartChar: parenright
Encoding: 41 41 12
Width: 333
Flags: W
Fore
122 -200 m 1
 22 -200 l 1
 94 -61.3333 137.333 52.3333 152 141 c 0
 158.667 179 162 220 162 264 c 0
 162 360 142.667 456.667 104 554 c 0
 84.6667 602.667 57.3333 661 22 729 c 1
 122 729 l 1
 214 590.333 267 461.667 281 343 c 0
 283.667 317.667 285 291.333 285 264 c 0
 285 140.667 248.667 15.3333 176 -112 c 0
 160 -140 142 -169.333 122 -200 c 1
EndSplineSet
EndChar
StartChar: asterisk
Encoding: 42 42 13
Width: 389
Flags: W
Fore
132 544 m 1
 23 580 l 1
 45 649 l 1
 154 613 l 1
 154 729 l 1
 226 729 l 1
 226 613 l 1
 335 649 l 1
 357 579 l 1
 248 544 l 1
 315 450 l 1
 257 407 l 1
 190 501 l 1
 123 407 l 1
 65 450 l 1
 132 544 l 1
EndSplineSet
EndChar
StartChar: plus
Encoding: 43 43 14
Width: 584
Flags: W
Fore
533 291 m 1
 533 172 l 1
 351 172 l 1
 351 -10 l 1
 232 -10 l 1
 232 172 l 1
 50 172 l 1
 50 291 l 1
 232 291 l 1
 232 473 l 1
 351 473 l 1
 351 291 l 1
 533 291 l 1
EndSplineSet
EndChar
StartChar: comma
Encoding: 44 44 15
Width: 278
Flags: W
Fore
64 146 m 1
 214 146 l 1
 214 9 l 2
 214 -51 202.667 -93.6667 180 -119 c 0
 174 -125 167.333 -131 160 -137 c 0
 134 -157 102 -169.333 64 -174 c 1
 64 -118 l 1
 114.667 -107.333 143 -76.6667 149 -26 c 1
 150 -3 l 1
 150 0 l 1
 64 0 l 1
 64 146 l 1
EndSplineSet
KernsSLIF: 49 -73 0 0
EndChar
StartChar: hyphen
Encoding: 45 45 16
Width: 333
Flags: W
Fore
298 342 m 1
 298 207 l 1
 26 207 l 1
 26 342 l 1
 298 342 l 1
EndSplineSet
KernsSLIF: 89 -64 0 0 84 -57 0 0
EndChar
StartChar: period
Encoding: 46 46 17
Width: 278
Flags: W
Fore
214 146 m 1
 214 0 l 1
 64 0 l 1
 64 146 l 1
 214 146 l 1
EndSplineSet
KernsSLIF: 49 -73 0 0
EndChar
StartChar: slash
Encoding: 47 47 18
Width: 278
Flags: W
Fore
208 714 m 1
 275 714 l 1
 69 -14 l 1
 2 -14 l 1
 208 714 l 1
EndSplineSet
EndChar
StartChar: zero
Encoding: 48 48 19
Width: 556
Flags: W
Fore
273 724 m 0
 356.333 724 419.667 691 463 625 c 2
 464 624 l 1
 467 619 l 2
 500.333 565 517 474 517 346 c 0
 517 214.667 497 122 457 68 c 0
 412.333 7.33333 351 -23 273 -23 c 0
 192.333 -23 130 8.66667 86 72 c 0
 83.3333 75.3333 81 78.6667 79 82 c 0
 45.6667 136.667 29 226 29 350 c 0
 29 485.333 49 579.667 89 633 c 1
 133 693.667 194.333 724 273 724 c 0
273 611 m 0
 232.333 611 203.667 588.667 187 544 c 0
 175 509.333 169 445 169 351 c 0
 169 249.667 176.333 183.333 191 152 c 0
 208.333 116 235.667 97.6667 273 97 c 0
 313.667 97 342.333 118.667 359 162 c 0
 371 195.333 377 257.667 377 349 c 0
 377 454.333 369.667 522.667 355 554 c 0
 337.667 592 310.333 611 273 611 c 0
EndSplineSet
KernsSLIF: 122 79 0 0 120 91 0 0 117 69 0 0 116 85 0 0 115 68 0 0 114 64 0 0 113 69 0 0 112 69 0 0 110 64 0 0 109 67 0 0 108 60 0 0 107 68 0 0 106 57 0 0 105 60 0 0 104 60 0 0 103 74 0 0 102 92 0 0 101 63 0 0 100 66 0 0 99 62 0 0 98 68 0 0 97 75 0 0 78 59 0 0 77 61 0 0 73 64 0 0 72 59 0 0 57 80 0 0 56 65 0 0 53 79 0 0 51 75 0 0 50 73 0 0 48 58 0 0
EndChar
StartChar: one
Encoding: 49 49 20
Width: 556
Flags: W
Fore
238 489 m 1
 68 489 l 1
 68 582 l 1
 190.667 582 263 624.333 285 709 c 1
 378 709 l 1
 378 0 l 1
 238 0 l 1
 238 489 l 1
EndSplineSet
KernsSLIF: 55 -65 0 0 49 -85 0 0
EndChar
StartChar: two
Encoding: 50 50 21
Width: 556
Flags: W
Fore
512 125 m 1
 512 0 l 1
 30 0 l 1
 34 77.3333 53 138 87 182 c 0
 109.667 211.333 145.333 242.667 194 276 c 1
 277.333 335.333 329.333 379 350 407 c 0
 366.667 430.333 375 460 375 496 c 0
 375 552 354.667 587.667 314 603 c 0
 302 607.667 289 610 275 610 c 0
 224.333 610 192.333 584.333 179 533 c 0
 175.667 519 174 503 174 485 c 2
 174 462 l 1
 40 462 l 1
 39 487 l 1
 39 590.333 76 660.667 150 698 c 0
 184.667 715.333 225.333 724 272 724 c 0
 365.333 724 433.667 693 477 631 c 0
 502.333 595 515 551 515 499 c 0
 515 442.333 498.333 394.333 465 355 c 0
 442.333 327.667 406 295.667 356 259 c 0
 286.667 208.333 244.333 173 229 153 c 0
 223 145 217.333 135.667 212 125 c 1
 512 125 l 1
EndSplineSet
KernsSLIF: 122 82 0 0 121 104 0 0 120 108 0 0 119 110 0 0 118 99 0 0 117 65 0 0 116 98 0 0 114 64 0 0 112 69 0 0 110 64 0 0 109 67 0 0 108 60 0 0 107 68 0 0 106 57 0 0 105 60 0 0 104 60 0 0 102 94 0 0 98 68 0 0 90 93 0 0 88 67 0 0 83 68 0 0 81 59 0 0 79 62 0 0 78 59 0 0 77 61 0 0 73 64 0 0 72 59 0 0 71 61 0 0 67 61 0 0 65 71 0 0 57 91 0 0 56 70 0 0 54 77 0 0 51 70 0 0 48 84 0 0
EndChar
StartChar: three
Encoding: 51 51 22
Width: 556
Flags: W
Fore
217 317 m 1
 217 411 l 1
 229 411 l 2
 311 411 352.333 446.667 353 518 c 0
 353 569.333 331.667 599.667 289 609 c 1
 265 611 l 1
 224.333 611 196.333 596 181 566 c 1
 179 561 l 2
 172.333 544.333 168.667 519.333 168 486 c 1
 38 486 l 1
 38 498 l 2
 38 561.333 51.6667 610 79 644 c 0
 120.333 697.333 183.333 724 268 724 c 0
 357.333 724 421.667 696 461 640 c 0
 482.333 610 493 573.667 493 531 c 0
 493 475 469 429.333 421 394 c 2
 420 393 l 1
 400 380 l 1
 468.667 346.667 506.667 297.333 514 232 c 0
 515.333 223.333 516 214 516 204 c 0
 516 120 484 57.6667 420 17 c 2
 419 16 l 2
 377.667 -10 327.333 -23 268 -23 c 0
 176 -23 109 8.66667 67 72 c 0
 42.3333 109.333 29.6667 154.667 29 208 c 1
 165 208 l 1
 169 134 204.333 97 271 97 c 0
 311.667 97 341.667 113.667 361 147 c 0
 371 163.667 376 182.667 376 204 c 0
 376 248 358.667 280 324 300 c 1
 299 310 l 1
 280.333 314.667 253 317 217 317 c 1
EndSplineSet
KernsSLIF: 122 64 0 0 120 86 0 0 119 58 0 0 117 67 0 0 116 57 0 0 115 64 0 0 114 62 0 0 113 73 0 0 112 67 0 0 111 63 0 0 110 62 0 0 109 65 0 0 108 58 0 0 107 66 0 0 105 58 0 0 104 58 0 0 103 68 0 0 101 75 0 0 100 72 0 0 99 67 0 0 98 66 0 0 97 74 0 0 78 57 0 0 77 59 0 0 73 62 0 0 72 57 0 0 57 78 0 0 56 77 0 0 54 66 0 0 53 88 0 0 51 87 0 0 50 61 0 0 48 70 0 0
EndChar
StartChar: four
Encoding: 52 52 23
Width: 556
Flags: W
Fore
522 273 m 1
 522 157 l 1
 448 157 l 1
 448 0 l 1
 308 0 l 1
 308 157 l 1
 24 157 l 1
 24 275 l 1
 283 709 l 1
 448 709 l 1
 448 273 l 1
 522 273 l 1
308 273 m 1
 308 576 l 1
 123 273 l 1
 308 273 l 1
EndSplineSet
KernsSLIF: 122 70 0 0 117 65 0 0 115 78 0 0 114 72 0 0 113 82 0 0 112 77 0 0 111 74 0 0 110 72 0 0 109 75 0 0 108 68 0 0 107 76 0 0 106 65 0 0 105 68 0 0 104 68 0 0 103 77 0 0 101 86 0 0 100 81 0 0 99 76 0 0 98 76 0 0 97 87 0 0 90 70 0 0 83 88 0 0 80 59 0 0 78 67 0 0 77 69 0 0 75 61 0 0 73 72 0 0 72 67 0 0 70 61 0 0 68 58 0 0 67 62 0 0 57 80 0 0 56 97 0 0 54 86 0 0 53 89 0 0 51 92 0 0 50 59 0 0 48 89 0 0
EndChar
StartChar: five
Encoding: 53 53 24
Width: 556
Flags: W
Fore
489 709 m 1
 489 584 l 1
 196 584 l 1
 173 436 l 1
 211 464.667 252 479 296 479 c 0
 372 479 430.667 449.333 472 390 c 0
 502 347.333 517 295.333 517 234 c 0
 517 146 486.333 78 425 30 c 0
 380.333 -5.33333 325.667 -23 261 -23 c 0
 176.333 -23 112.333 4.66667 69 60 c 0
 42.3333 94.6667 28.3333 136.333 27 185 c 1
 165 185 l 1
 167.667 129.667 200.333 100.333 263 97 c 1
 313.667 97 348 120.333 366 167 c 0
 373.333 185.667 377 207 377 231 c 0
 377 297.667 354.333 340.333 309 359 c 2
 308 360 l 2
 294.667 365.333 279.667 368 263 368 c 0
 218.333 368 188.333 350 173 314 c 1
 47 314 l 1
 110 709 l 1
 489 709 l 1
EndSplineSet
KernsSLIF: 108 58 0 0 107 66 0 0 104 58 0 0 98 66 0 0 90 59 0 0 78 57 0 0 77 59 0 0 73 62 0 0 72 57 0 0 57 77 0 0 56 63 0 0 53 77 0 0 51 73 0 0
EndChar
StartChar: six
Encoding: 54 54 25
Width: 556
Flags: W
Fore
507 548 m 1
 377 548 l 1
 362.333 584 340.333 604.333 311 609 c 0
 305 610.333 298 611 290 611 c 0
 242 611 208.667 587 190 539 c 0
 186.667 531 184 522.333 182 513 c 0
 181.333 511.667 181 510.333 181 509 c 0
 177 489 174 454 172 404 c 1
 208 442 248.333 462.667 293 466 c 0
 295 466 l 1
 295 466 l 1
 300.333 466.667 306.333 467 313 467 c 0
 385 467 440 438.667 478 382 c 0
 505.333 342 519 293.667 519 237 c 0
 519 146.333 490 77 432 29 c 0
 390.667 -5.66667 340.667 -23 282 -23 c 0
 208 -23 148.667 2.66667 104 54 c 1
 83 82 l 1
 49 135.333 32 220.333 32 337 c 0
 32 449.667 48.6667 536.667 82 598 c 2
 91 614 l 1
 133 683.333 196 720 280 724 c 2
 294 724 l 2
 368.667 724 426 700 466 652 c 2
 467 651 l 1
 468 650 l 1
 468 649.333 468.333 648.667 469 648 c 0
 470.333 646.667 471.667 645 473 643 c 0
 489.667 619 501 587.333 507 548 c 1
279 357 m 0
 235 357 203.333 336.333 184 295 c 0
 174.667 275 170 251.667 170 225 c 0
 170 172.333 187.667 134.667 223 112 c 0
 239.667 102 258 97 278 97 c 0
 318 97 348.333 116.333 369 155 c 0
 380.333 175.667 386 200 386 228 c 0
 386 285.333 367 324.333 329 345 c 0
 314.333 353 297.667 357 279 357 c 0
EndSplineSet
KernsSLIF: 115 69 0 0 113 77 0 0 112 57 0 0 111 59 0 0 109 58 0 0 108 61 0 0 107 69 0 0 104 61 0 0 103 75 0 0 101 71 0 0 100 74 0 0 99 70 0 0 98 69 0 0 97 77 0 0 90 64 0 0 78 60 0 0 77 62 0 0 73 65 0 0 72 60 0 0 57 81 0 0 56 73 0 0 54 62 0 0 53 87 0 0 51 82 0 0 48 66 0 0
EndChar
StartChar: seven
Encoding: 55 55 26
Width: 556
Flags: W
Fore
528 709 m 1
 528 599 l 1
 413.333 460.333 338.333 324.667 303 192 c 0
 287.667 132.667 278 68.6667 274 0 c 1
 133 0 l 1
 149 128 175.667 234.667 213 320 c 1
 226 347 l 1
 249.333 398.333 287.667 460.667 341 534 c 1
 357.667 555.333 371.333 572 382 584 c 1
 29 584 l 1
 29 709 l 1
 528 709 l 1
EndSplineSet
KernsSLIF: 115 -71 0 0 113 -69 0 0 111 -77 0 0 103 -75 0 0 101 -63 0 0 100 -70 0 0 99 -75 0 0 97 -71 0 0 74 -116 0 0 65 -107 0 0 58 -63 0 0 52 -62 0 0 46 -87 0 0 44 -88 0 0
EndChar
StartChar: eight
Encoding: 56 56 27
Width: 556
Flags: W
Fore
409 386 m 1
 473 352 510.333 306.667 521 250 c 0
 523.667 236.667 525 221.333 525 204 c 0
 525 127.333 495 67.6667 435 25 c 0
 391 -7 337.333 -23 274 -23 c 0
 186 -23 118.667 5.33333 72 62 c 1
 38.6667 100.667 22 148 22 204 c 0
 22 272 48 325 100 363 c 1
 138 386 l 1
 84 414.667 53.6667 454.667 47 506 c 1
 47 506 l 1
 46.3333 514 46 522.333 46 531 c 0
 46 595 73 645.333 127 682 c 0
 168.333 710 217.333 724 274 724 c 0
 352 724 412.667 699.667 456 651 c 2
 457 650 l 2
 486.333 616.667 501 577.333 501 532 c 0
 501 483.333 485.667 444.667 455 416 c 0
 445.667 407.333 430.333 397.333 409 386 c 1
275 611 m 0
 229 611 197 594.667 179 562 c 0
 172.333 549.333 169 535 169 519 c 0
 169 480.333 186.667 452.667 222 436 c 0
 238 428.667 255.667 425 275 425 c 0
 318.333 425 349.333 440.667 368 472 c 0
 376 485.333 380 500.667 380 518 c 0
 380 556.667 362.333 584 327 600 c 0
 312.333 607.333 295 611 275 611 c 0
273 330 m 0
 224.333 330 191 309.667 173 269 c 0
 165.667 252.333 162 233.333 162 212 c 0
 162 160 182 125 222 107 c 0
 237.333 100.333 254.333 97 273 97 c 0
 321.667 97 355.333 116.333 374 155 c 0
 381.333 171 385 189.333 385 210 c 0
 385 266 364 303 322 321 c 0
 307.333 327 291 330 273 330 c 0
EndSplineSet
KernsSLIF: 122 72 0 0 120 78 0 0 117 76 0 0 116 65 0 0 115 73 0 0 114 71 0 0 113 75 0 0 112 76 0 0 111 58 0 0 110 71 0 0 109 74 0 0 108 67 0 0 107 75 0 0 106 64 0 0 105 67 0 0 104 67 0 0 103 78 0 0 102 63 0 0 101 69 0 0 100 72 0 0 99 68 0 0 98 75 0 0 97 84 0 0 90 60 0 0 80 58 0 0 78 66 0 0 77 68 0 0 75 60 0 0 73 71 0 0 72 66 0 0 70 60 0 0 68 57 0 0 57 86 0 0 56 71 0 0 54 61 0 0 53 85 0 0 51 81 0 0 50 69 0 0 48 65 0 0
EndChar
StartChar: nine
Encoding: 57 57 28
Width: 556
Flags: W
Fore
38 165 m 1
 173 165 l 1
 175.667 132.333 193.333 111 226 101 c 0
 236 97.6667 247 96 259 96 c 0
 336.333 96 375.333 163.333 376 298 c 1
 355.333 274.667 340.667 260 332 254 c 0
 308 236.667 277.333 228 240 228 c 0
 166.667 228 110.333 258 71 318 c 0
 42.3333 360.667 28 412.667 28 474 c 0
 28 560.667 57.3333 627.333 116 674 c 0
 157.333 707.333 207.667 724 267 724 c 0
 354.333 724 421 685.333 467 608 c 0
 499.667 554 516 474.667 516 370 c 0
 516 254 498 162.333 462 95 c 0
 460.667 91.6667 459 88.6667 457 86 c 0
 414.333 12.6667 347 -24 255 -24 c 0
 182.333 -24 125 0 83 48 c 0
 54.3333 81.3333 39.3333 120.333 38 165 c 1
263 610 m 0
 219 610 188.667 587.333 172 542 c 1
 171 541 l 1
 164.333 522.333 161 500.667 161 476 c 0
 161 414 181 373.333 221 354 c 0
 234.333 347.333 249 344 265 344 c 0
 308.333 344 339.667 364.333 359 405 c 0
 368.333 424.333 373 447.333 373 474 c 0
 373 536 352.667 577.667 312 599 c 0
 297.333 606.333 281 610 263 610 c 0
EndSplineSet
KernsSLIF: 122 77 0 0 120 78 0 0 117 67 0 0 116 75 0 0 115 67 0 0 114 62 0 0 113 59 0 0 112 67 0 0 110 62 0 0 109 65 0 0 108 58 0 0 107 66 0 0 105 58 0 0 104 58 0 0 103 64 0 0 102 91 0 0 98 66 0 0 97 73 0 0 78 57 0 0 77 59 0 0 73 62 0 0 72 57 0 0 57 70 0 0 53 69 0 0 51 65 0 0 50 70 0 0
EndChar
StartChar: colon
Encoding: 58 58 29
Width: 333
Flags: W
Fore
263 146 m 1
 263 0 l 1
 113 0 l 1
 113 146 l 1
 263 146 l 1
263 520 m 1
 263 374 l 1
 113 374 l 1
 113 520 l 1
 263 520 l 1
EndSplineSet
EndChar
StartChar: semicolon
Encoding: 59 59 30
Width: 333
Flags: W
Fore
113 146 m 1
 263 146 l 1
 263 9 l 2
 263 -51 251.667 -93.6667 229 -119 c 0
 223 -125 216.333 -131 209 -137 c 0
 183 -157 151 -169.333 113 -174 c 1
 113 -118 l 1
 163.667 -107.333 192 -76.6667 198 -26 c 1
 199 -3 l 1
 199 0 l 1
 113 0 l 1
 113 146 l 1
263 520 m 1
 263 374 l 1
 113 374 l 1
 113 520 l 1
 263 520 l 1
EndSplineSet
EndChar
StartChar: less
Encoding: 60 60 31
Width: 584
Flags: W
Fore
529 474 m 1
 529 365 l 1
 147 232 l 1
 529 101 l 1
 529 -10 l 1
 40 172 l 1
 40 293 l 1
 529 474 l 1
EndSplineSet
EndChar
StartChar: equal
Encoding: 61 61 32
Width: 584
Flags: W
Fore
534 411 m 1
 534 292 l 1
 50 292 l 1
 50 411 l 1
 534 411 l 1
534 171 m 1
 534 52 l 1
 50 52 l 1
 50 171 l 1
 534 171 l 1
EndSplineSet
EndChar
StartChar: greater
Encoding: 62 62 33
Width: 584
Flags: W
Fore
40 -10 m 1
 40 99 l 1
 422 232 l 1
 40 363 l 1
 40 474 l 1
 529 292 l 1
 529 171 l 1
 40 -10 l 1
EndSplineSet
EndChar
StartChar: question
Encoding: 63 63 34
Width: 611
Flags: W
Fore
369 201 m 1
 245 201 l 1
 243 255.667 255.667 300.667 283 336 c 0
 297 354.667 317.333 375.667 344 399 c 1
 381.333 429.667 403.333 454.333 410 473 c 1
 410 473 l 1
 413.333 483 415 495.667 415 511 c 0
 415 555 398.667 587.667 366 609 c 0
 349.333 620.333 330.667 626 310 626 c 0
 269.333 626 238.667 606.667 218 568 c 0
 204.667 543.333 198.667 515 200 483 c 1
 200 481 l 1
 64 481 l 1
 64.6667 553 78.6667 608.333 106 647 c 0
 107.333 649.667 109 652.333 111 655 c 0
 154.333 714.333 219.667 744 307 744 c 0
 393.667 744 460.333 715.667 507 659 c 0
 507 658.333 507.333 657.667 508 657 c 0
 536.667 621.667 552.333 579.667 555 531 c 0
 555.667 525.667 556 520 556 514 c 0
 556 462 541.667 419.333 513 386 c 0
 505.667 377.333 497 368.667 487 360 c 0
 475 349.333 461 338.333 445 327 c 2
 436 320 l 2
 404 297.333 384.667 279.333 378 266 c 0
 372 253.333 369 231.667 369 201 c 1
385 146 m 1
 385 0 l 1
 235 0 l 1
 235 146 l 1
 385 146 l 1
EndSplineSet
EndChar
StartChar: at
Encoding: 64 64 35
Width: 975
Flags: W
Fore
644 508 m 1
 734 508 l 1
 656 228 l 1
 650.667 208 648 194 648 186 c 0
 648 158.667 660.333 142.667 685 138 c 0
 688.333 137.333 692.333 137 697 137 c 0
 731 137 765.333 158 800 200 c 2
 807 209 l 2
 841 256.333 858 310 858 370 c 0
 858 448.667 825.333 517.333 760 576 c 0
 690.667 637.333 607.667 668 511 668 c 0
 394.333 668 299.667 626 227 542 c 0
 165.667 470.667 131.667 387.667 125 293 c 1
 124 266 l 1
 124 164.667 163.333 83 242 21 c 0
 311.333 -33 392.667 -60 486 -60 c 0
 562.667 -60 631.667 -46.3333 693 -19 c 1
 721 -92 l 1
 653.667 -122.667 574.667 -138 484 -138 c 0
 360.667 -138 258.667 -106.333 178 -43 c 0
 99.3333 18.3333 51 97.3333 33 194 c 0
 29 216.667 27 240 27 264 c 0
 27 355.333 55.6667 444 113 530 c 0
 130.333 556 149.333 579.667 170 601 c 0
 262.667 697 378 745 516 745 c 0
 642.667 745 749.333 703.333 836 620 c 0
 910 548 947 459.667 947 355 c 0
 947 274.333 919.667 202.667 865 140 c 0
 815 84 759 56 697 56 c 0
 663 56 633.333 64.6667 608 82 c 0
 591.333 94 579.667 109 573 127 c 0
 573 128.333 572.667 129.667 572 131 c 1
 534 85 488 60 434 56 c 0
 422 56 l 0
 369.333 56 326.667 77.3333 294 120 c 0
 270 150.667 258 186.333 258 227 c 0
 258 292.333 279 354.333 321 413 c 1
 332 427 l 2
 372 477 422.333 506.667 483 516 c 0
 493 517.333 503.333 518 514 518 c 0
 564 518 600.333 497 623 455 c 2
 628 446 l 1
 644 508 l 1
511 447 m 0
 470.333 447 433.667 424.667 401 380 c 0
 370.333 338.667 355 293.333 355 244 c 0
 355 202.667 369.333 172 398 152 c 0
 412 142 427.333 137 444 137 c 0
 473.333 137 501.333 151 528 179 c 2
 532 184 l 2
 564.667 222 585 266.667 593 318 c 0
 593.667 325.333 594.333 334.333 595 345 c 0
 595 396.333 577.333 428.667 542 442 c 2
 541 442 l 1
 540 442 l 2
 531.333 445.333 521.667 447 511 447 c 0
EndSplineSet
EndChar
StartChar: A
Encoding: 65 65 36
Width: 722
Flags: W
Fore
501 147 m 1
 228 147 l 1
 179 0 l 1
 26 0 l 1
 285 729 l 1
 451 729 l 1
 703 0 l 1
 549 0 l 1
 501 147 l 1
460 272 m 1
 365 557 l 1
 270 272 l 1
 460 272 l 1
EndSplineSet
KernsSLIF: 8221 -65 0 0 8217 -61 0 0 122 105 0 0 120 134 0 0 114 71 0 0 112 76 0 0 110 71 0 0 109 74 0 0 108 67 0 0 107 75 0 0 106 64 0 0 105 67 0 0 104 67 0 0 89 -90 0 0 86 -66 0 0 84 -81 0 0 80 58 0 0 78 66 0 0 77 68 0 0 75 60 0 0 73 71 0 0 72 66 0 0 70 60 0 0 68 57 0 0 50 95 0 0 49 -89 0 0
EndChar
StartChar: B
Encoding: 66 66 37
Width: 722
Flags: W
Fore
82 0 m 1
 82 729 l 1
 407 729 l 2
 480.333 729 537.667 711.333 579 676 c 0
 619 641.333 641 599 645 549 c 1
 645 537 l 2
 645 489 624 447.667 582 413 c 2
 581 413 l 1
 545 387 l 1
 625 340.333 665.333 281.333 666 210 c 0
 666 157.333 648 111 612 71 c 1
 598 57 l 1
 594 53 l 2
 552 17.6667 490.667 1.73472e-18 410 0 c 2
 82 0 l 1
232 604 m 1
 232 439 l 1
 395 439 l 2
 462.333 439 497.667 466.333 501 521 c 1
 501 573 469.333 600.667 406 604 c 0
 401 604 401 604 395 604 c 2
 232 604 l 1
232 314 m 1
 232 125 l 1
 411 125 l 2
 483.667 125 520.667 156.333 522 219 c 1
 522 282.333 485 314 411 314 c 2
 232 314 l 1
EndSplineSet
EndChar
StartChar: C
Encoding: 67 67 38
Width: 722
Flags: W
Fore
682 482 m 1
 539 482 l 1
 531 516.667 520 542.667 506 560 c 0
 478 595.333 437 613 383 613 c 0
 306.333 613 252 576 220 502 c 0
 207.333 472 199.333 437 196 397 c 1
 194 356 l 1
 194 242 225.333 165.667 288 127 c 0
 314 111 344 103 378 103 c 0
 452 103 501.333 133 526 193 c 0
 532.667 209.667 537 228.333 539 249 c 1
 685 249 l 1
 679.667 150.333 639 76.3333 563 27 c 0
 511 -6.33333 448 -23 374 -23 c 0
 259.333 -23 172.333 19.6667 113 105 c 0
 67 171 44 255.333 44 358 c 0
 44 496.667 84 600 164 668 c 0
 221.333 716.667 292.667 741 378 741 c 0
 485.333 741 568 705.667 626 635 c 2
 633 626 l 2
 661 589.333 677.333 541.333 682 482 c 1
EndSplineSet
KernsSLIF: 122 81 0 0 120 81 0 0 117 72 0 0 114 67 0 0 112 72 0 0 110 67 0 0 109 70 0 0 108 63 0 0 107 71 0 0 106 60 0 0 105 63 0 0 104 63 0 0 102 86 0 0 98 71 0 0 97 73 0 0 78 62 0 0 77 64 0 0 73 67 0 0 50 80 0 0
EndChar
StartChar: D
Encoding: 68 68 39
Width: 722
Flags: W
Fore
77 0 m 1
 77 729 l 1
 362 729 l 2
 460 729 531.667 706.333 577 661 c 2
 592 645 l 1
 651.333 575 681 481.667 681 365 c 0
 681 247.667 651.333 154.333 592 85 c 1
 548 31.6667 479 3.33333 385 0 c 2
 362 0 l 1
 77 0 l 1
227 125 m 1
 362 125 l 2
 474 125 530.333 204.667 531 364 c 0
 531 524 474.667 604 362 604 c 2
 227 604 l 1
 227 125 l 1
EndSplineSet
EndChar
StartChar: E
Encoding: 69 69 40
Width: 667
Flags: W
Fore
229 314 m 1
 229 125 l 1
 624 125 l 1
 624 0 l 1
 79 0 l 1
 79 729 l 1
 606 729 l 1
 606 604 l 1
 229 604 l 1
 229 439 l 1
 578 439 l 1
 578 314 l 1
 229 314 l 1
EndSplineSet
KernsSLIF: 116 59 0 0 108 57 0 0 107 65 0 0 105 57 0 0 104 57 0 0 102 57 0 0 98 65 0 0 90 78 0 0 88 83 0 0 87 62 0 0 77 58 0 0 73 61 0 0 65 72 0 0 57 73 0 0 56 75 0 0 54 58 0 0 53 74 0 0 49 -88 0 0 48 62 0 0
EndChar
StartChar: F
Encoding: 70 70 41
Width: 611
Flags: W
Fore
224 314 m 1
 224 0 l 1
 74 0 l 1
 74 729 l 1
 586 729 l 1
 586 604 l 1
 224 604 l 1
 224 439 l 1
 543 439 l 1
 543 314 l 1
 224 314 l 1
EndSplineSet
KernsSLIF: 197 -63 0 0 196 -63 0 0 195 -63 0 0 194 -63 0 0 193 -63 0 0 192 -63 0 0 65 -63 0 0 49 -70 0 0 46 -75 0 0 44 -76 0 0
EndChar
StartChar: G
Encoding: 71 71 42
Width: 778
Flags: W
Fore
711 392 m 5
 711 -2 l 5
 621 -2 l 5
 603 94 l 5
 557.667 27.3333 499.667 -10.6667 429 -20 c 4
 414.333 -22 399 -23 383 -23 c 4
 283.667 -23 202 13.3333 138 86 c 4
 74 158 42 249 42 359 c 4
 42 481 79 577.333 153 648 c 4
 217 710 297.667 741 395 741 c 4
 505.667 741 590 707.667 648 641 c 4
 683.333 601 704.333 552.667 711 496 c 5
 570 496 l 5
 558.667 528 543.667 552.333 525 569 c 4
 491.667 598.333 448.667 613 396 613 c 4
 314 613 255.667 577 221 505 c 4
 201.667 465.667 192 417.667 192 361 c 4
 192 272.333 218.333 203.667 271 155 c 4
 307 121.667 350 105 400 105 c 4
 458 105 506.333 126.667 545 170 c 4
 546.333 171.333 547.667 173 549 175 c 4
 569.667 199 581.667 229.667 585 267 c 5
 419 267 l 5
 419 392 l 5
 711 392 l 5
EndSplineSet
KernsSLIF: 122 74 0 0 121 70 0 0 120 84 0 0 119 77 0 0 118 65 0 0 115 61 0 0 113 61 0 0 101 67 0 0 100 60 0 0 97 66 0 0 90 65 0 0 88 67 0 0 83 66 0 0 57 63 0 0 56 75 0 0 54 66 0 0 53 67 0 0 51 61 0 0 48 70 0 0
EndChar
StartChar: H
Encoding: 72 72 43
Width: 722
Flags: W
Fore
507 331 m 1
 218 331 l 1
 218 0 l 1
 68 0 l 1
 68 729 l 1
 218 729 l 1
 218 456 l 1
 506 456 l 1
 506 729 l 1
 657 729 l 1
 657 0 l 1
 507 0 l 1
 507 331 l 1
EndSplineSet
KernsSLIF: 122 80 0 0 121 79 0 0 120 87 0 0 119 86 0 0 118 74 0 0 116 73 0 0 115 63 0 0 113 63 0 0 103 58 0 0 102 90 0 0 101 69 0 0 100 62 0 0 99 57 0 0 97 68 0 0 90 70 0 0 88 72 0 0 87 65 0 0 84 90 0 0 83 69 0 0 79 58 0 0 65 62 0 0 57 73 0 0 56 78 0 0 54 69 0 0 53 70 0 0 51 73 0 0 50 72 0 0 48 72 0 0
EndChar
StartChar: I
Encoding: 73 73 44
Width: 278
Flags: W
Fore
213 729 m 1
 213 0 l 1
 63 0 l 1
 63 729 l 1
 213 729 l 1
EndSplineSet
KernsSLIF: 122 80 0 0 121 79 0 0 120 87 0 0 119 86 0 0 118 74 0 0 116 73 0 0 115 63 0 0 113 63 0 0 103 58 0 0 102 90 0 0 101 69 0 0 100 62 0 0 99 57 0 0 97 68 0 0 90 70 0 0 88 72 0 0 87 65 0 0 84 90 0 0 83 69 0 0 79 58 0 0 65 62 0 0 57 73 0 0 56 78 0 0 54 69 0 0 53 70 0 0 51 73 0 0 50 72 0 0 48 72 0 0
EndChar
StartChar: J
Encoding: 74 74 45
Width: 556
Flags: W
Fore
336 729 m 1
 486 729 l 1
 486 190 l 2
 486 92.6667 446.333 28.3333 367 -3 c 0
 334.333 -16.3333 296 -23 252 -23 c 0
 183.333 -23 127.667 -3.66667 85 35 c 0
 47 70.3333 26.6667 118.667 24 180 c 1
 24 198 l 1
 24 270 l 1
 174 270 l 1
 174 200 l 2
 174 146.667 192 116 228 108 c 0
 236 106 245 105 255 105 c 0
 303.667 105 330.333 128.333 335 175 c 1
 336 190 l 1
 336 729 l 1
EndSplineSet
KernsSLIF: 120 79 0 0 119 75 0 0 116 68 0 0 102 66 0 0 101 61 0 0 83 64 0 0 57 68 0 0 56 73 0 0 54 64 0 0 53 65 0 0 51 68 0 0 48 67 0 0
EndChar
StartChar: K
Encoding: 75 75 46
Width: 722
Flags: W
Fore
224 244 m 1
 224 0 l 1
 74 0 l 1
 74 729 l 1
 224 729 l 1
 224 409 l 1
 509 729 l 1
 686 729 l 1
 395 415 l 1
 717 0 l 1
 538 0 l 1
 299 322 l 1
 224 244 l 1
EndSplineSet
KernsSLIF: 122 114 0 0 121 -65 0 0 120 79 0 0 114 85 0 0 112 90 0 0 110 85 0 0 109 88 0 0 108 83 0 0 107 91 0 0 106 66 0 0 105 83 0 0 104 83 0 0 98 91 0 0 82 70 0 0 81 -60 0 0 80 74 0 0 78 82 0 0 77 84 0 0 76 70 0 0 75 76 0 0 73 87 0 0 72 82 0 0 70 76 0 0 69 71 0 0 68 73 0 0 66 68 0 0 50 112 0 0 49 -75 0 0
EndChar
StartChar: L
Encoding: 76 76 47
Width: 611
Flags: W
Fore
230 729 m 1
 230 125 l 1
 579 125 l 1
 579 0 l 1
 80 0 l 1
 80 729 l 1
 230 729 l 1
EndSplineSet
KernsSLIF: 8221 -141 0 0 8217 -138 0 0 119 -60 0 0 118 -74 0 0 89 -112 0 0 87 -68 0 0 86 -90 0 0 84 -95 0 0 52 -186 0 0 49 -114 0 0
EndChar
StartChar: M
Encoding: 77 77 48
Width: 833
Flags: W
Fore
216 568 m 1
 216 0 l 1
 66 0 l 1
 66 729 l 1
 290 729 l 1
 422 149 l 1
 550 729 l 1
 776 729 l 1
 776 0 l 1
 626 0 l 1
 626 568 l 1
 497 0 l 1
 347 0 l 1
 216 568 l 1
EndSplineSet
KernsSLIF: 122 88 0 0 121 87 0 0 120 95 0 0 119 94 0 0 118 82 0 0 116 81 0 0 115 71 0 0 113 71 0 0 111 63 0 0 103 66 0 0 102 98 0 0 101 77 0 0 100 70 0 0 99 65 0 0 97 76 0 0 90 78 0 0 88 80 0 0 87 73 0 0 86 57 0 0 84 98 0 0 83 77 0 0 81 63 0 0 79 66 0 0 71 64 0 0 67 63 0 0 65 70 0 0 57 81 0 0 56 86 0 0 54 77 0 0 53 78 0 0 51 81 0 0 50 80 0 0 48 80 0 0
EndChar
StartChar: N
Encoding: 78 78 49
Width: 722
Flags: W
Fore
511 0 m 1
 218 504 l 1
 218 0 l 1
 68 0 l 1
 68 729 l 1
 222 729 l 1
 511 233 l 1
 511 729 l 1
 661 729 l 1
 661 0 l 1
 511 0 l 1
EndSplineSet
KernsSLIF: 122 84 0 0 121 83 0 0 120 91 0 0 119 90 0 0 118 78 0 0 116 77 0 0 115 67 0 0 113 67 0 0 103 62 0 0 102 94 0 0 100 66 0 0 99 61 0 0 90 74 0 0 88 76 0 0 87 69 0 0 84 94 0 0 83 73 0 0 81 59 0 0 57 77 0 0 56 82 0 0 54 73 0 0 53 74 0 0 51 77 0 0 50 76 0 0 48 76 0 0
EndChar
StartChar: O
Encoding: 79 79 50
Width: 778
Flags: W
Fore
390 741 m 0
 494 741 577.333 707.333 640 640 c 0
 705.333 570 739.333 479 742 367 c 1
 742 354 l 2
 742 265.333 718.333 186.333 671 117 c 0
 661.667 103 651.333 90 640 78 c 0
 577.333 10.6667 494.333 -23 391 -23 c 0
 287.667 -23 204.667 10.6667 142 78 c 0
 82 142 48.3333 224.333 41 325 c 1
 40 359 l 1
 40 463.667 69.3333 552 128 624 c 2
 129 625 l 1
 130 626 l 1
 131 627 l 2
 136 633 136 633 142 640 c 0
 204 707.333 286.667 741 390 741 c 0
391 613 m 0
 319 613 264.667 581.667 228 519 c 1
 228 518 l 1
 202.667 474.667 190 421.667 190 359 c 0
 190 263 217.333 192 272 146 c 0
 305.333 118.667 345 105 391 105 c 0
 461 105 514.667 135.667 552 197 c 0
 578.667 239.667 592 292.333 592 355 c 0
 592 457.667 563 531.333 505 576 c 0
 473 600.667 435 613 391 613 c 0
EndSplineSet
KernsSLIF: 122 74 0 0 120 59 0 0 114 64 0 0 112 69 0 0 110 64 0 0 109 67 0 0 108 60 0 0 107 68 0 0 105 60 0 0 104 60 0 0 98 68 0 0 89 -59 0 0 78 59 0 0 77 61 0 0 73 64 0 0 72 59 0 0 50 63 0 0
EndChar
StartChar: P
Encoding: 80 80 51
Width: 667
Flags: W
Fore
226 260 m 5
 226 0 l 5
 76 0 l 5
 76 729 l 5
 398 729 l 6
 516 729 590 684 620 594 c 4
 620 592 l 4
 628.667 566 633 536.333 633 503 c 4
 633 409.667 602.667 341.667 542 299 c 5
 542 298 l 5
 541 297 l 6
 505 272.333 462.333 260 413 260 c 6
 226 260 l 5
226 385 m 5
 366 385 l 6
 438.667 385 477.333 416.333 482 479 c 5
 483 494 l 5
 483 560.667 451 597 387 603 c 6
 366 604 l 5
 226 604 l 5
 226 385 l 5
EndSplineSet
KernsSLIF: 197 -65 0 0 196 -65 0 0 193 -65 0 0 88 -69 0 0 65 -65 0 0 46 -94 0 0 44 -94 0 0
EndChar
StartChar: Q
Encoding: 81 81 52
Width: 778
Flags: W
Fore
665 103 m 1
 745 27 l 1
 669 -54 l 1
 583 27 l 1
 527.667 -6.33333 464.667 -23 394 -23 c 0
 290.667 -23 207.667 10.6667 145 78 c 0
 86.3333 141.333 53 222.333 45 321 c 0
 43.6667 333 43 345.667 43 359 c 0
 43 459.667 70.6667 546 126 618 c 1
 145 640 l 1
 207.667 707.333 290.667 741 394 741 c 0
 497.333 741 580.333 707.333 643 640 c 0
 701 577.333 734.333 498 743 402 c 1
 745 361 l 1
 745 273.667 725.333 197.667 686 133 c 1
 665 103 l 1
480 278 m 1
 562 200 l 1
 584 244 595 296.667 595 358 c 0
 595 456.667 567 528.667 511 574 c 0
 478.333 600 439.333 613 394 613 c 0
 322 613 267.667 581.667 231 519 c 1
 231 518 l 1
 205.667 474.667 193 421.667 193 359 c 0
 193 263 220.333 192 275 146 c 0
 308.333 118.667 347.667 105 393 105 c 0
 427.667 105 457 111.333 481 124 c 1
 404 197 l 1
 480 278 l 1
EndSplineSet
KernsSLIF: 122 106 0 0 121 77 0 0 120 98 0 0 119 84 0 0 118 72 0 0 117 71 0 0 116 95 0 0 115 76 0 0 114 71 0 0 113 83 0 0 112 76 0 0 111 75 0 0 110 71 0 0 109 74 0 0 108 67 0 0 107 75 0 0 106 64 0 0 105 67 0 0 104 67 0 0 103 76 0 0 102 96 0 0 101 87 0 0 100 81 0 0 99 76 0 0 98 75 0 0 97 84 0 0 90 91 0 0 88 82 0 0 83 77 0 0 81 81 0 0 80 58 0 0 79 84 0 0 78 66 0 0 77 68 0 0 75 60 0 0 73 71 0 0 72 66 0 0 71 82 0 0 70 60 0 0 68 57 0 0 67 81 0 0 65 82 0 0 57 88 0 0 56 81 0 0 54 95 0 0 53 75 0 0 51 79 0 0 50 96 0 0 48 98 0 0
EndChar
StartChar: R
Encoding: 82 82 53
Width: 722
Flags: W
Fore
230 289 m 1
 230 0 l 1
 80 0 l 1
 80 729 l 1
 471 729 l 2
 532.333 729 579.333 712.333 612 679 c 0
 648.667 641.667 667 592.667 667 532 c 0
 667 444 626 384 544 352 c 1
 582 335.333 606.333 320 617 306 c 0
 631.667 286 640.333 242.667 643 176 c 0
 643.667 156 644.333 126.333 645 87 c 0
 645 60.3333 654.333 41.3333 673 30 c 2
 674 29 l 1
 677 27 l 1
 677 0 l 1
 516 0 l 1
 502 25.3333 494.333 56.3333 493 93 c 1
 493 125 l 1
 494 173 l 1
 495 202 l 1
 495 250.667 474.667 278.667 434 286 c 0
 424.667 288 414 289 402 289 c 2
 230 289 l 1
230 414 m 1
 411 414 l 2
 449 414 475.333 420.333 490 433 c 0
 508 448.333 517 474.333 517 511 c 0
 517 545 508 569.667 490 585 c 0
 475.333 597 449 603.333 411 604 c 2
 230 604 l 1
 230 414 l 1
EndSplineSet
KernsSLIF: 122 98 0 0 120 106 0 0 119 88 0 0 118 75 0 0 116 64 0 0 114 59 0 0 112 64 0 0 110 59 0 0 109 62 0 0 107 63 0 0 102 67 0 0 98 63 0 0 88 80 0 0 83 66 0 0 73 59 0 0 65 87 0 0 57 70 0 0 56 68 0 0 54 57 0 0 53 57 0 0 51 72 0 0 50 90 0 0 48 64 0 0
EndChar
StartChar: S
Encoding: 83 83 54
Width: 667
Flags: W
Fore
607 507 m 1
 467 507 l 1
 462.333 574.333 420.667 612 342 620 c 1
 314 621 l 2
 254 621 215 603.333 197 568 c 2
 196 567 l 2
 190.667 556.333 188 544.333 188 531 c 0
 188 500.333 202 478 230 464 c 0
 245.333 456 266.667 449 294 443 c 0
 294.667 443 295.333 442.667 296 442 c 2
 326 436 l 1
 440 414 l 2
 536.667 395.333 596.667 355.667 620 295 c 0
 628.667 272.333 633 245 633 213 c 0
 633 119.667 592.333 53 511 13 c 0
 463 -11 404 -23 334 -23 c 0
 190.667 -23 97.6667 24.3333 55 119 c 0
 41.6667 147.667 34 180.667 32 218 c 1
 178 218 l 1
 182 151.333 221 112 295 100 c 1
 342 97 l 1
 414 97 460 117 480 157 c 0
 486 168.333 489 181 489 195 c 0
 489 233.667 469.667 261.667 431 279 c 0
 411.667 287.667 385.333 295 352 301 c 2
 250 321 l 2
 154 339 92.6667 372.333 66 421 c 2
 65 422 l 1
 65 423 l 1
 64 424 l 2
 51.3333 448.667 45 479.667 45 517 c 0
 45 612.333 86.6667 678 170 714 c 0
 212 732 262.333 741 321 741 c 0
 427 741 505.333 713.333 556 658 c 0
 590 620.667 607 570.333 607 507 c 1
EndSplineSet
KernsSLIF: 122 67 0 0 120 73 0 0 117 72 0 0 115 72 0 0 114 67 0 0 113 57 0 0 112 72 0 0 110 67 0 0 109 70 0 0 108 63 0 0 107 71 0 0 106 60 0 0 105 63 0 0 104 63 0 0 103 62 0 0 102 80 0 0 98 71 0 0 97 81 0 0 78 62 0 0 77 64 0 0 73 67 0 0 72 62 0 0 57 68 0 0 53 67 0 0 51 63 0 0 50 65 0 0
EndChar
StartChar: T
Encoding: 84 84 55
Width: 611
Flags: W
Fore
385 604 m 1
 385 0 l 1
 235 0 l 1
 235 604 l 1
 14 604 l 1
 14 729 l 1
 598 729 l 1
 598 604 l 1
 385 604 l 1
EndSplineSet
KernsSLIF: 8249 -98 0 0 248 -73 0 0 230 -73 0 0 198 -75 0 0 197 -87 0 0 196 -87 0 0 195 -87 0 0 194 -87 0 0 193 -87 0 0 192 -87 0 0 171 -101 0 0 122 -81 0 0 121 -80 0 0 120 -74 0 0 119 -77 0 0 118 -82 0 0 117 -72 0 0 115 -74 0 0 114 -71 0 0 113 -98 0 0 112 -115 0 0 111 -76 0 0 110 -120 0 0 109 -117 0 0 108 89 0 0 107 97 0 0 104 89 0 0 103 -75 0 0 101 -69 0 0 100 -99 0 0 99 -74 0 0 98 97 0 0 97 -73 0 0 82 76 0 0 80 80 0 0 78 88 0 0 77 90 0 0 76 76 0 0 75 82 0 0 74 -87 0 0 73 93 0 0 72 88 0 0 70 82 0 0 69 77 0 0 68 79 0 0 66 74 0 0 65 -87 0 0 59 -98 0 0 58 -97 0 0 52 -140 0 0 46 -67 0 0 44 -67 0 0
EndChar
StartChar: U
Encoding: 85 85 56
Width: 722
Flags: W
Fore
504 729 m 1
 654 729 l 1
 654 235 l 2
 654 155 630.333 93.6667 583 51 c 0
 529 1.66667 456.333 -23 365 -23 c 0
 274.333 -23 201.667 1.66667 147 51 c 0
 99.6667 93 76 154.333 76 235 c 2
 76 729 l 1
 226 729 l 1
 226 235 l 2
 226 151 272.333 107.667 365 105 c 1
 455 105 501.333 148.333 504 235 c 1
 504 729 l 1
EndSplineSet
KernsSLIF: 120 61 0 0 116 68 0 0 102 68 0 0 57 63 0 0 53 63 0 0 51 58 0 0
EndChar
StartChar: V
Encoding: 86 86 57
Width: 667
Flags: W
Fore
397 0 m 5
 270 0 l 5
 24 729 l 5
 175 729 l 5
 337 180 l 5
 496 729 l 5
 647 729 l 5
 397 0 l 5
EndSplineSet
KernsSLIF: 8249 -72 0 0 198 -59 0 0 197 -71 0 0 196 -71 0 0 195 -71 0 0 194 -71 0 0 193 -71 0 0 192 -71 0 0 171 -74 0 0 120 64 0 0 107 58 0 0 98 58 0 0 74 -84 0 0 65 -71 0 0 59 -67 0 0 58 -65 0 0 52 -99 0 0 46 -69 0 0 44 -69 0 0
EndChar
StartChar: W
Encoding: 87 87 58
Width: 944
Flags: W
Fore
730 0 m 1
 595 0 l 1
 473 569 l 1
 354 0 l 1
 219 0 l 1
 13 729 l 1
 172 729 l 1
 285 183 l 1
 398 729 l 1
 546 729 l 1
 664 182 l 1
 773 729 l 1
 932 729 l 1
 730 0 l 1
EndSplineSet
KernsSLIF: 122 66 0 0 120 60 0 0 108 64 0 0 107 72 0 0 106 61 0 0 104 64 0 0 98 72 0 0 88 73 0 0 78 63 0 0 77 65 0 0 75 57 0 0 73 68 0 0 72 63 0 0 70 57 0 0 52 -69 0 0 50 62 0 0
EndChar
StartChar: X
Encoding: 88 88 59
Width: 667
Flags: W
Fore
419 372 m 1
 653 0 l 1
 475 0 l 1
 335 253 l 1
 196 0 l 1
 22 0 l 1
 252 367 l 1
 30 729 l 1
 208 729 l 1
 336 489 l 1
 470 729 l 1
 644 729 l 1
 419 372 l 1
EndSplineSet
KernsSLIF: 122 110 0 0 120 106 0 0 114 79 0 0 112 84 0 0 110 79 0 0 109 82 0 0 108 78 0 0 107 86 0 0 106 75 0 0 105 78 0 0 104 78 0 0 98 86 0 0 88 86 0 0 87 70 0 0 82 65 0 0 80 69 0 0 78 77 0 0 77 79 0 0 76 65 0 0 75 71 0 0 74 -57 0 0 73 82 0 0 72 77 0 0 70 71 0 0 69 66 0 0 68 68 0 0 66 63 0 0 50 101 0 0
EndChar
StartChar: Y
Encoding: 89 89 60
Width: 667
Flags: W
Fore
419 270 m 1
 419 0 l 1
 269 0 l 1
 269 270 l 1
 27 729 l 1
 194 729 l 1
 343 407 l 1
 482 729 l 1
 650 729 l 1
 419 270 l 1
EndSplineSet
KernsSLIF: 8249 -96 0 0 248 -67 0 0 230 -67 0 0 198 -74 0 0 197 -86 0 0 196 -86 0 0 195 -86 0 0 194 -86 0 0 193 -86 0 0 192 -86 0 0 171 -98 0 0 115 -85 0 0 113 -83 0 0 111 -70 0 0 107 62 0 0 103 -68 0 0 101 -63 0 0 100 -84 0 0 99 -89 0 0 98 62 0 0 97 -66 0 0 81 -76 0 0 74 -119 0 0 73 58 0 0 65 -86 0 0 59 -83 0 0 58 -81 0 0 52 -172 0 0 46 -78 0 0 44 -78 0 0
EndChar
StartChar: Z
Encoding: 90 90 61
Width: 611
Flags: W
Fore
578 729 m 1
 578 604 l 1
 206 125 l 1
 578 125 l 1
 578 0 l 1
 30 0 l 1
 30 125 l 1
 403 604 l 1
 30 604 l 1
 30 729 l 1
 578 729 l 1
EndSplineSet
KernsSLIF: 119 67 0 0 117 61 0 0 115 86 0 0 114 65 0 0 112 70 0 0 110 65 0 0 109 68 0 0 108 65 0 0 107 73 0 0 106 62 0 0 105 65 0 0 104 65 0 0 98 73 0 0 78 64 0 0 77 66 0 0 75 58 0 0 73 69 0 0 72 64 0 0 70 58 0 0 57 79 0 0 56 74 0 0 54 59 0 0 53 78 0 0 52 -90 0 0 48 64 0 0
EndChar
StartChar: bracketleft
Encoding: 91 91 62
Width: 333
Flags: W
Fore
308 729 m 1
 308 627 l 1
 196 627 l 1
 196 -98 l 1
 308 -98 l 1
 308 -200 l 1
 66 -200 l 1
 66 729 l 1
 308 729 l 1
EndSplineSet
EndChar
StartChar: backslash
Encoding: 92 92 63
Width: 278
Flags: W
Fore
55 714 m 1
 289 -14 l 1
 222 -14 l 1
 -12 714 l 1
 55 714 l 1
EndSplineSet
EndChar
StartChar: bracketright
Encoding: 93 93 64
Width: 333
Flags: W
Fore
18 -200 m 1
 18 -98 l 1
 130 -98 l 1
 130 627 l 1
 18 627 l 1
 18 729 l 1
 260 729 l 1
 260 -200 l 1
 18 -200 l 1
EndSplineSet
EndChar
StartChar: asciicircum
Encoding: 94 94 65
Width: 584
Flags: W
Fore
522 270 m 1
 409 270 l 1
 288 570 l 1
 173 270 l 1
 61 270 l 1
 226 695 l 1
 351 695 l 1
 522 270 l 1
EndSplineSet
EndChar
StartChar: underscore
Encoding: 95 95 66
Width: 556
Flags: W
Fore
578 -120 m 1
 578 -189 l 1
 -22 -189 l 1
 -22 -120 l 1
 578 -120 l 1
EndSplineSet
EndChar
StartChar: grave
Encoding: 96 96 67
Width: 333
Flags: W
Fore
17 757 m 1
 143 757 l 1
 213 607 l 1
 143 607 l 1
 17 757 l 1
EndSplineSet
EndChar
StartChar: a
Encoding: 97 97 68
Width: 556
Flags: W
Fore
524 17 m 1
 524 0 l 1
 372 0 l 1
 361.333 12.6667 356 30.6667 356 54 c 1
 306.667 2.66667 252 -23 192 -23 c 0
 140.667 -23 98.6667 -6 66 28 c 0
 40.6667 55.3333 28 92.3333 28 139 c 0
 28 234.333 81 291 187 309 c 2
 243 319 l 2
 288.333 326.333 316 332.333 326 337 c 2
 331 340 l 2
 346.333 348 354.333 362 355 382 c 0
 355 418 328 436 274 436 c 0
 228.667 436 199.667 425.333 187 404 c 1
 187 403 l 1
 181 393 177 379.333 175 362 c 1
 40 362 l 1
 48.6667 485.333 125.667 547.667 271 549 c 1
 417.667 549 491.333 493.667 492 383 c 1
 492 83 l 2
 492 60.3333 500.667 40.3333 518 23 c 2
 524 17 l 1
355 217 m 2
 355 255 l 1
 342.333 249 322.667 243.333 296 238 c 2
 248 229 l 2
 204 219.667 178.333 203 171 179 c 1
 171 178 l 1
 169 172 168 164.333 168 155 c 0
 168 122.333 184.333 101.667 217 93 c 0
 225 91 234 90 244 90 c 0
 302 90 337.333 117.667 350 173 c 0
 353.333 186.333 355 201 355 217 c 2
EndSplineSet
KernsSLIF: 122 104 0 0 120 97 0 0 116 67 0 0 114 69 0 0 112 74 0 0 110 69 0 0 109 72 0 0 108 65 0 0 107 73 0 0 105 65 0 0 104 65 0 0 102 72 0 0 98 73 0 0 89 -110 0 0 84 -103 0 0 83 57 0 0 78 64 0 0 77 66 0 0 75 58 0 0 73 69 0 0 72 64 0 0 70 58 0 0 67 58 0 0 57 60 0 0 56 65 0 0 54 63 0 0 53 68 0 0 51 65 0 0 50 93 0 0 48 66 0 0
EndChar
StartChar: b
Encoding: 98 98 69
Width: 611
Flags: W
Fore
59 729 m 1
 199 729 l 1
 199 470 l 1
 232.333 522.667 282 549 348 549 c 0
 404.667 549 453.333 529 494 489 c 0
 502.667 480.333 510.333 471.333 517 462 c 0
 555.667 406.667 575 340.333 575 263 c 0
 575 171.667 548.667 98 496 42 c 1
 454 -1.33333 404.667 -23 348 -23 c 0
 282 -23 232.333 3 199 55 c 1
 199 0 l 1
 59 0 l 1
 59 729 l 1
317 432 m 0
 273 432 240 408.333 218 361 c 1
 218 361 l 1
 205.333 333.667 199 301.667 199 265 c 0
 199 192.333 219 141.667 259 113 c 0
 275.667 100.333 295 94 317 94 c 0
 359.667 94 392.333 117 415 163 c 0
 428.333 191 435 224 435 262 c 0
 435 330 416.333 379.333 379 410 c 0
 360.333 424.667 339.667 432 317 432 c 0
EndSplineSet
KernsSLIF: 117 59 0 0 114 57 0 0 112 62 0 0 110 57 0 0 109 60 0 0 107 61 0 0 98 61 0 0 89 -110 0 0 84 -115 0 0 73 57 0 0 57 68 0 0 56 70 0 0 54 59 0 0 53 77 0 0 51 78 0 0 48 63 0 0
EndChar
StartChar: c
Encoding: 99 99 70
Width: 556
Flags: W
Fore
522 338 m 1
 388 338 l 1
 376.667 389.333 356.333 420 327 430 c 2
 326 430 l 2
 315.333 434 302.667 436 288 436 c 0
 246.667 436 217.667 420.667 201 390 c 0
 183 356.667 174 313 174 259 c 0
 174 177.667 196 125.333 240 102 c 0
 254.667 94 270.667 90 288 90 c 0
 328 90 356.667 108.333 374 145 c 1
 374 146 l 1
 375 147 l 1
 379.667 158.333 384 171.667 388 187 c 1
 522 187 l 1
 513.333 104.333 477 44.6667 413 8 c 0
 376.333 -12.6667 334.333 -23 287 -23 c 0
 181.667 -23 108.333 18.3333 67 101 c 0
 45 144.333 34 197 34 259 c 0
 34 383.667 73.6667 469.333 153 516 c 0
 191 538 236.333 549 289 549 c 0
 381 549 447.333 516.333 488 451 c 1
 500.667 429 510 404.667 516 378 c 1
 522 338 l 1
EndSplineSet
KernsSLIF: 122 64 0 0 119 62 0 0 117 63 0 0 116 71 0 0 114 61 0 0 112 66 0 0 110 61 0 0 109 64 0 0 108 57 0 0 105 57 0 0 104 57 0 0 102 72 0 0 98 65 0 0 89 -98 0 0 84 -111 0 0 83 58 0 0 77 58 0 0 73 61 0 0 57 80 0 0 56 80 0 0 55 -81 0 0 54 70 0 0 53 87 0 0 51 69 0 0 48 73 0 0
EndChar
StartChar: d
Encoding: 100 100 71
Width: 611
Flags: W
Fore
405 0 m 1
 405 55 l 1
 370.333 3 320.667 -23 256 -23 c 0
 200 -23 151.333 -3.33333 110 36 c 0
 101.333 44.6667 93.6667 53.6667 87 63 c 0
 48.3333 118.333 29 184.667 29 262 c 0
 29 353.333 55.3333 427 108 483 c 0
 149.333 527 198.667 549 256 549 c 0
 321.333 549 371 522.667 405 470 c 1
 405 729 l 1
 545 729 l 1
 545 0 l 1
 405 0 l 1
287 432 m 0
 243 432 210.333 408.333 189 361 c 0
 175.667 333 169 300 169 262 c 0
 169 193.333 188 144.333 226 115 c 0
 244 101 264.333 94 287 94 c 0
 331.667 94 364.667 117.667 386 165 c 0
 398.667 191.667 405 223.333 405 260 c 0
 405 332.667 385.333 383.667 346 413 c 0
 329.333 425.667 309.667 432 287 432 c 0
EndSplineSet
KernsSLIF: 122 79 0 0 121 78 0 0 120 86 0 0 119 85 0 0 118 73 0 0 116 72 0 0 115 62 0 0 113 62 0 0 103 57 0 0 102 89 0 0 101 68 0 0 100 61 0 0 97 67 0 0 90 69 0 0 88 71 0 0 87 64 0 0 84 89 0 0 83 68 0 0 79 57 0 0 65 61 0 0 57 72 0 0 56 77 0 0 54 68 0 0 53 69 0 0 51 72 0 0 50 71 0 0 48 71 0 0
EndChar
StartChar: e
Encoding: 101 101 72
Width: 556
Flags: W
Fore
524 226 m 1
 162 226 l 1
 164 180.667 170.667 149 182 131 c 0
 202.667 99.6667 233.333 84 274 84 c 0
 324 84 358.667 104.333 378 145 c 0
 379.333 147 380.333 149.333 381 152 c 1
 519 152 l 1
 499.667 84.6667 457.667 35.6667 393 5 c 0
 355.667 -13.6667 314.333 -23 269 -23 c 0
 174.333 -23 105.333 13.6667 62 87 c 0
 35.3333 133 22 189.333 22 256 c 0
 22 371.333 56.6667 454.333 126 505 c 0
 166 534.333 214.667 549 272 549 c 0
 355.333 549 420.333 519 467 459 c 0
 481 441 492.333 421 501 399 c 0
 502.333 396.333 503.333 394 504 392 c 0
 518 351.333 525 304 525 250 c 1
 524 226 l 1
164 319 m 1
 379 319 l 1
 376.333 352.333 369 378.333 357 397 c 1
 335.667 426.333 306.667 441.333 270 442 c 0
 208.667 442 173.333 401 164 319 c 1
EndSplineSet
KernsSLIF: 122 62 0 0 117 63 0 0 114 62 0 0 112 67 0 0 110 62 0 0 109 65 0 0 108 58 0 0 107 66 0 0 105 58 0 0 104 58 0 0 102 61 0 0 98 66 0 0 89 -105 0 0 84 -110 0 0 78 57 0 0 77 59 0 0 73 62 0 0 72 57 0 0 57 76 0 0 56 63 0 0 55 -79 0 0
EndChar
StartChar: f
Encoding: 102 102 73
Width: 333
Flags: W
Fore
313 529 m 1
 313 436 l 1
 230 436 l 1
 230 0 l 1
 90 0 l 1
 90 436 l 1
 14 436 l 1
 14 529 l 1
 90 529 l 1
 90 594 l 2
 90 684 136 729 228 729 c 1
 308 726 l 1
 308 621 l 1
 268 624 l 1
 244 624 231.333 610 230 582 c 1
 230 529 l 1
 313 529 l 1
EndSplineSet
KernsSLIF: 122 92 0 0 121 62 0 0 120 58 0 0 119 89 0 0 118 66 0 0 117 70 0 0 114 86 0 0 112 91 0 0 110 86 0 0 109 89 0 0 107 89 0 0 104 81 0 0 98 89 0 0 90 91 0 0 88 97 0 0 85 58 0 0 83 85 0 0 82 68 0 0 80 72 0 0 78 80 0 0 77 82 0 0 76 68 0 0 75 74 0 0 73 85 0 0 72 80 0 0 70 74 0 0 69 69 0 0 68 71 0 0 66 66 0 0 57 97 0 0 56 64 0 0 54 90 0 0 53 67 0 0 51 91 0 0 50 90 0 0 49 67 0 0 48 94 0 0
EndChar
StartChar: g
Encoding: 103 103 74
Width: 611
Flags: W
Fore
408 540 m 1
 541 540 l 1
 541 -18 l 2
 541 -104.667 500.333 -164 419 -196 c 0
 393.667 -206 365 -212.667 333 -216 c 1
 284 -218 l 1
 202.667 -218 140.667 -200.667 98 -166 c 0
 64 -137.333 46.3333 -103.667 45 -65 c 1
 190 -65 l 1
 201.333 -106.333 234.333 -127.333 289 -128 c 0
 338.333 -128 373.333 -109.667 394 -73 c 0
 403.333 -57 408 -38.6667 408 -18 c 2
 408 55 l 1
 371.333 13 335 -11.6667 299 -19 c 0
 286.333 -21.6667 271.667 -23 255 -23 c 0
 178.333 -23 119.667 10 79 76 c 0
 49 124.667 34 185 34 257 c 0
 34 351 60.3333 426.333 113 483 c 0
 153.667 527 202 549 258 549 c 0
 316 549 364.667 520.333 404 463 c 2
 408 457 l 1
 408 540 l 1
288 432 m 0
 244.667 432 212.667 407.667 192 359 c 0
 180 331 174 297.667 174 259 c 0
 174 191 192.333 142.667 229 114 c 0
 246.333 100.667 265.333 94 286 94 c 0
 332.667 94 367.333 117.333 390 164 c 0
 403.333 190.667 410 222.333 410 259 c 0
 410 324.333 391.667 373.333 355 406 c 0
 335 423.333 312.667 432 288 432 c 0
EndSplineSet
KernsSLIF: 122 75 0 0 121 74 0 0 120 82 0 0 119 81 0 0 118 69 0 0 116 68 0 0 115 58 0 0 113 58 0 0 103 62 0 0 102 85 0 0 100 57 0 0 88 64 0 0 84 -136 0 0 83 64 0 0 65 57 0 0 57 68 0 0 56 73 0 0 54 64 0 0 53 65 0 0 51 68 0 0 50 67 0 0 48 67 0 0
EndChar
StartChar: h
Encoding: 104 104 75
Width: 611
Flags: W
Fore
67 729 m 1
 207 729 l 1
 207 462 l 1
 245.667 520 298.333 549 365 549 c 0
 413 549 453.333 535.333 486 508 c 0
 522.667 477.333 541 428.667 541 362 c 2
 541 0 l 1
 401 0 l 1
 401 330 l 2
 401 358.667 395.667 381 385 397 c 0
 369 419 345.667 430 315 430 c 0
 271 430 239.333 412.667 220 378 c 0
 211.333 362 207 344 207 324 c 2
 207 0 l 1
 67 0 l 1
 67 729 l 1
EndSplineSet
KernsSLIF: 122 71 0 0 120 83 0 0 116 57 0 0 115 58 0 0 102 59 0 0 97 63 0 0 89 -124 0 0 86 -59 0 0 84 -136 0 0 57 59 0 0 56 68 0 0 54 66 0 0 53 60 0 0 51 65 0 0 50 61 0 0 48 68 0 0
EndChar
StartChar: i
Encoding: 105 105 76
Width: 278
Flags: W
Fore
207 540 m 1
 207 0 l 1
 67 0 l 1
 67 540 l 1
 207 540 l 1
207 729 m 1
 207 604 l 1
 67 604 l 1
 67 729 l 1
 207 729 l 1
EndSplineSet
KernsSLIF: 122 74 0 0 121 73 0 0 120 81 0 0 119 80 0 0 118 68 0 0 116 67 0 0 115 57 0 0 113 57 0 0 102 84 0 0 101 63 0 0 97 62 0 0 90 64 0 0 88 66 0 0 87 59 0 0 83 63 0 0 57 67 0 0 56 72 0 0 54 63 0 0 53 64 0 0 51 67 0 0 50 66 0 0 48 66 0 0
EndChar
StartChar: j
Encoding: 106 106 77
Width: 278
Flags: W
Fore
210 540 m 1
 210 -94 l 2
 210 -157.333 188.667 -196 146 -210 c 0
 130 -215.333 110.333 -218 87 -218 c 1
 4 -213 l 1
 4 -101 l 1
 28 -105 l 1
 29 -105 l 2
 52.3333 -105 65.6667 -96.3333 69 -79 c 1
 69 -78 l 1
 70 -63 l 1
 70 540 l 1
 210 540 l 1
210 729 m 1
 210 604 l 1
 70 604 l 1
 70 729 l 1
 210 729 l 1
EndSplineSet
KernsSLIF: 122 77 0 0 121 76 0 0 120 84 0 0 119 83 0 0 118 71 0 0 116 70 0 0 115 60 0 0 113 60 0 0 103 64 0 0 102 87 0 0 101 66 0 0 100 59 0 0 97 65 0 0 90 67 0 0 88 69 0 0 87 62 0 0 84 87 0 0 83 66 0 0 65 59 0 0 57 70 0 0 56 75 0 0 54 66 0 0 53 67 0 0 51 70 0 0 50 69 0 0 48 69 0 0
EndChar
StartChar: k
Encoding: 107 107 78
Width: 556
Flags: W
Fore
199 330 m 1
 376 540 l 1
 535 540 l 1
 351 336 l 1
 548 0 l 1
 384 0 l 1
 255 238 l 1
 199 177 l 1
 199 0 l 1
 59 0 l 1
 59 729 l 1
 199 729 l 1
 199 330 l 1
EndSplineSet
KernsSLIF: 122 135 0 0 121 104 0 0 120 113 0 0 119 120 0 0 118 105 0 0 116 60 0 0 114 96 0 0 112 101 0 0 110 96 0 0 109 99 0 0 108 92 0 0 107 100 0 0 106 89 0 0 105 92 0 0 104 92 0 0 102 69 0 0 98 100 0 0 88 116 0 0 87 58 0 0 84 -76 0 0 83 88 0 0 82 79 0 0 80 83 0 0 78 91 0 0 77 93 0 0 76 79 0 0 75 85 0 0 73 96 0 0 72 91 0 0 70 85 0 0 69 80 0 0 68 82 0 0 67 58 0 0 66 77 0 0 65 116 0 0 57 98 0 0 56 90 0 0 54 78 0 0 53 59 0 0 51 94 0 0 50 127 0 0 48 86 0 0
EndChar
StartChar: l
Encoding: 108 108 79
Width: 278
Flags: W
Fore
207 729 m 1
 207 0 l 1
 67 0 l 1
 67 729 l 1
 207 729 l 1
EndSplineSet
KernsSLIF: 122 74 0 0 120 81 0 0 119 80 0 0 116 67 0 0 115 57 0 0 113 57 0 0 102 84 0 0 101 63 0 0 97 62 0 0 90 64 0 0 88 66 0 0 87 59 0 0 84 84 0 0 83 63 0 0 57 67 0 0 56 72 0 0 54 63 0 0 53 64 0 0 51 67 0 0 50 66 0 0 48 66 0 0
EndChar
StartChar: m
Encoding: 109 109 80
Width: 889
Flags: W
Fore
60 540 m 1
 199 540 l 1
 199 473 l 1
 235 516.333 273.667 541 315 547 c 1
 347 549 l 1
 411 549 457.333 526.667 486 482 c 2
 487 481 l 2
 489.667 477.667 492 473.667 494 469 c 1
 532.667 520.333 585.333 547 652 549 c 1
 730.667 549 783 519.667 809 461 c 0
 819 438.333 824 412 824 382 c 2
 824 0 l 1
 684 0 l 1
 684 360 l 2
 684 395.333 667.667 417.667 635 427 c 0
 627 429 618 430 608 430 c 0
 561.333 430 531.333 408.667 518 366 c 0
 514 354 512 340 512 324 c 2
 512 0 l 1
 372 0 l 1
 372 360 l 2
 372 395.333 355.667 417.667 323 427 c 0
 315 429 306 430 296 430 c 0
 249.333 430 219.333 408.667 206 366 c 0
 202 354 200 340 200 324 c 2
 200 0 l 1
 60 0 l 1
 60 540 l 1
EndSplineSet
KernsSLIF: 122 76 0 0 120 76 0 0 116 64 0 0 115 63 0 0 113 63 0 0 103 58 0 0 102 66 0 0 100 62 0 0 97 68 0 0 89 -110 0 0 88 69 0 0 84 -131 0 0 57 65 0 0 56 70 0 0 54 60 0 0 53 65 0 0 51 71 0 0 50 66 0 0 48 63 0 0
EndChar
StartChar: n
Encoding: 110 110 81
Width: 611
Flags: W
Fore
63 540 m 1
 203 540 l 1
 203 462 l 1
 239.667 516.667 289.333 545.667 352 549 c 0
 358 549 358 549 365 549 c 0
 449.667 549 505.333 515.333 532 448 c 0
 541.333 423.333 546 394.667 546 362 c 2
 546 0 l 1
 406 0 l 1
 406 333 l 2
 406 397.667 376 430 316 430 c 0
 266.667 430 232.667 411.333 214 374 c 0
 206.667 359.333 203 342.667 203 324 c 2
 203 0 l 1
 63 0 l 1
 63 540 l 1
EndSplineSet
KernsSLIF: 122 76 0 0 120 88 0 0 116 61 0 0 115 62 0 0 113 57 0 0 103 57 0 0 102 63 0 0 97 67 0 0 89 -119 0 0 84 -80 0 0 57 64 0 0 56 73 0 0 54 71 0 0 53 65 0 0 51 70 0 0 50 66 0 0 48 73 0 0
EndChar
StartChar: o
Encoding: 111 111 82
Width: 611
Flags: W
Fore
301 549 m 0
 411 549 488.333 507.333 533 424 c 0
 557 378.667 569 323.667 569 259 c 0
 569 153 534.333 75 465 25 c 0
 420.333 -7 366 -23 302 -23 c 0
 198 -23 123 15.3333 77 92 c 0
 49 138 35 195 35 263 c 0
 35 373.667 70.6667 454 142 504 c 0
 185.333 534 238.333 549 301 549 c 0
302 436 m 1
 253.333 436 217.667 411.333 195 362 c 0
 181.667 334 175 301 175 263 c 0
 175 192.333 195.333 141.667 236 111 c 0
 255.333 97 277.333 90 302 90 c 0
 348.667 90 383.667 113.333 407 160 c 0
 421.667 188.667 429 222.333 429 261 c 0
 429 336.333 407.667 388.333 365 417 c 0
 349 428.333 328 434.667 302 436 c 1
EndSplineSet
KernsSLIF: 89 -117 0 0 84 -84 0 0 57 61 0 0 55 -88 0 0 53 70 0 0 51 66 0 0
EndChar
StartChar: p
Encoding: 112 112 83
Width: 611
Flags: W
Fore
198 540 m 1
 198 460 l 1
 231.333 519.333 281.333 549 348 549 c 0
 402 549 449.667 530.333 491 493 c 1
 500.333 483.667 508.667 474 516 464 c 0
 552.667 412.667 572 345.333 574 262 c 1
 574 169.333 547.667 95.3333 495 40 c 0
 453.667 -2.66667 404.667 -24 348 -24 c 0
 281.333 -24 231.333 5.33333 198 64 c 1
 198 -218 l 1
 58 -218 l 1
 58 540 l 1
 198 540 l 1
316 432 m 0
 271.333 432 238.333 408 217 360 c 0
 204.333 332.667 198 300 198 262 c 0
 198 191.333 217.333 141.667 256 113 c 0
 274 99.6667 294 93 316 93 c 0
 359.333 93 392 116 414 162 c 0
 427.333 190 434 222.667 434 260 c 0
 434 332.667 414.333 383.667 375 413 c 0
 358.333 425.667 338.667 432 316 432 c 0
EndSplineSet
KernsSLIF: 117 58 0 0 112 61 0 0 109 59 0 0 107 60 0 0 102 57 0 0 98 60 0 0 89 -110 0 0 84 -116 0 0 57 67 0 0 56 73 0 0 55 -88 0 0 54 63 0 0 53 77 0 0 51 78 0 0 48 67 0 0
EndChar
StartChar: q
Encoding: 113 113 84
Width: 611
Flags: W
Fore
404 540 m 1
 544 540 l 1
 544 -218 l 1
 404 -218 l 1
 404 64 l 1
 371.333 5.33333 321 -24 253 -24 c 0
 199.667 -24 152.667 -5.66667 112 31 c 0
 102 40.3333 93.3333 50.3333 86 61 c 0
 49.3333 111 30 174.667 28 252 c 0
 28 256 28 256 28 262 c 0
 28 355.333 54.6667 429.667 108 485 c 0
 148.667 527.667 197.333 549 254 549 c 0
 320.667 549 370.667 519.333 404 460 c 1
 404 540 l 1
286 432 m 0
 241.333 432 208.333 408 187 360 c 0
 174.333 332.667 168 300 168 262 c 0
 168 191.333 187.333 141.667 226 113 c 0
 244 99.6667 264 93 286 93 c 0
 330.667 93 363.667 116.667 385 164 c 0
 397.667 190.667 404 222.333 404 259 c 0
 404 334.333 383.667 386 343 414 c 0
 326.333 426 307.333 432 286 432 c 0
EndSplineSet
KernsSLIF: 122 78 0 0 121 81 0 0 120 85 0 0 119 84 0 0 118 72 0 0 116 71 0 0 115 61 0 0 113 61 0 0 106 98 0 0 103 65 0 0 102 88 0 0 101 67 0 0 100 60 0 0 97 66 0 0 88 67 0 0 84 -133 0 0 83 67 0 0 65 60 0 0 57 71 0 0 56 76 0 0 54 67 0 0 53 68 0 0 51 71 0 0 50 70 0 0 48 70 0 0
EndChar
StartChar: r
Encoding: 114 114 85
Width: 389
Flags: W
Fore
63 540 m 1
 203 540 l 1
 203 434 l 1
 227.667 494 265.667 530.667 317 544 c 0
 329 547.333 341 549 353 549 c 2
 370 548 l 1
 370 406 l 1
 326 410 l 1
 244 410 203 369 203 287 c 2
 203 0 l 1
 63 0 l 1
 63 540 l 1
EndSplineSet
KernsSLIF: 117 66 0 0 112 75 0 0 107 74 0 0 98 74 0 0 84 -102 0 0 80 57 0 0 78 65 0 0 77 67 0 0 75 59 0 0 73 70 0 0 72 65 0 0 70 59 0 0 55 -121 0 0 50 84 0 0 46 -57 0 0 44 -57 0 0
EndChar
StartChar: s
Encoding: 115 115 86
Width: 556
Flags: W
Fore
505 366 m 1
 370 366 l 1
 369.333 414 335.667 438.333 269 439 c 0
 226.333 439 200.333 427.333 191 404 c 1
 191 403 l 1
 188 389 l 1
 188 374.333 196 363.333 212 356 c 2
 213 356 l 1
 237 347 l 1
 414 296 l 2
 484 275.333 519.333 230 520 160 c 0
 520 106 500 62 460 28 c 0
 458.667 26.6667 457.333 25.6667 456 25 c 0
 416 -7 358.667 -23 284 -23 c 0
 129.333 -23 45 29.3333 31 134 c 0
 29.6667 141.333 29 149 29 157 c 1
 166 157 l 1
 171.333 133 180.333 116 193 106 c 1
 212.333 93.3333 240 87 276 87 c 0
 336 87 370 101 378 129 c 0
 379.333 132.333 380 136 380 140 c 0
 380 157.333 369.667 170 349 178 c 0
 344.333 180 339 182 333 184 c 2
 166 236 l 2
 124.667 249.333 96.3333 263.333 81 278 c 2
 78 281 l 2
 58 303 48 332.333 48 369 c 0
 48 441 80 492.333 144 523 c 0
 178.667 540.333 220.667 549 270 549 c 0
 371.333 549 441 518.667 479 458 c 0
 495.667 432 504.333 401.333 505 366 c 1
EndSplineSet
KernsSLIF: 122 65 0 0 117 60 0 0 114 60 0 0 112 65 0 0 110 60 0 0 109 63 0 0 107 64 0 0 102 69 0 0 98 64 0 0 89 -111 0 0 84 -112 0 0 83 73 0 0 77 57 0 0 73 60 0 0 56 85 0 0 55 -75 0 0 54 72 0 0 53 100 0 0 51 81 0 0 48 75 0 0
Substitution: 0 0 'medi' longs
Substitution: 0 0 'init' longs
EndChar
StartChar: t
Encoding: 116 116 87
Width: 333
Flags: W
Fore
301 529 m 1
 301 436 l 1
 223 436 l 1
 223 142 l 2
 223 111.333 229 93 241 87 c 2
 242 87 l 2
 248 84.3333 257 83 269 83 c 1
 301 86 l 1
 301 -12 l 1
 278.333 -19.3333 251.333 -23 220 -23 c 0
 129.333 -23 83.6667 19.3333 83 104 c 1
 83 436 l 1
 14 436 l 1
 14 529 l 1
 83 529 l 1
 83 674 l 1
 223 674 l 1
 223 529 l 1
 301 529 l 1
EndSplineSet
KernsSLIF: 122 106 0 0 121 68 0 0 120 108 0 0 119 82 0 0 118 64 0 0 117 77 0 0 116 103 0 0 115 77 0 0 114 74 0 0 113 57 0 0 112 79 0 0 110 74 0 0 109 77 0 0 108 70 0 0 107 78 0 0 106 67 0 0 105 70 0 0 102 106 0 0 98 78 0 0 90 90 0 0 88 102 0 0 83 78 0 0 82 57 0 0 81 65 0 0 80 61 0 0 79 68 0 0 78 69 0 0 77 71 0 0 76 57 0 0 75 63 0 0 73 74 0 0 72 69 0 0 71 67 0 0 70 63 0 0 69 58 0 0 68 60 0 0 67 67 0 0 65 68 0 0 57 91 0 0 56 72 0 0 54 83 0 0 53 71 0 0 51 85 0 0 50 99 0 0 48 87 0 0
EndChar
StartChar: u
Encoding: 117 117 88
Width: 611
Flags: W
Fore
541 0 m 1
 401 0 l 1
 401 64 l 1
 364.333 9.33333 314.667 -19.6667 252 -23 c 2
 239 -23 l 2
 154.333 -23 98.6667 10.6667 72 78 c 0
 62.6667 102.667 58 131.333 58 164 c 2
 58 540 l 1
 198 540 l 1
 198 193 l 2
 198 128.333 228 96 288 96 c 0
 336.667 96 370.333 114.333 389 151 c 0
 397 165.667 401 182.667 401 202 c 2
 401 540 l 1
 541 540 l 1
 541 0 l 1
EndSplineSet
KernsSLIF: 122 75 0 0 121 74 0 0 120 82 0 0 119 81 0 0 118 69 0 0 116 68 0 0 115 58 0 0 113 58 0 0 102 85 0 0 101 64 0 0 100 57 0 0 97 63 0 0 88 64 0 0 84 -136 0 0 83 64 0 0 65 57 0 0 57 68 0 0 56 73 0 0 54 64 0 0 53 65 0 0 51 68 0 0 50 67 0 0 48 67 0 0
EndChar
StartChar: v
Encoding: 118 118 89
Width: 556
Flags: W
Fore
350 0 m 1
 203 0 l 1
 14 540 l 1
 162 540 l 1
 279 145 l 1
 388 540 l 1
 536 540 l 1
 350 0 l 1
EndSplineSet
KernsSLIF: 122 110 0 0 120 129 0 0 117 71 0 0 114 70 0 0 112 76 0 0 110 70 0 0 109 74 0 0 107 74 0 0 106 64 0 0 105 66 0 0 104 66 0 0 102 74 0 0 98 74 0 0 84 -102 0 0 80 58 0 0 78 66 0 0 77 68 0 0 75 60 0 0 73 70 0 0 72 66 0 0 70 60 0 0 65 -63 0 0 55 -143 0 0 50 106 0 0
EndChar
StartChar: w
Encoding: 119 119 90
Width: 778
Flags: W
Fore
613 0 m 1
 468 0 l 1
 387 381 l 1
 301 0 l 1
 157 0 l 1
 5 540 l 1
 150 540 l 1
 236 162 l 1
 318 540 l 1
 458 540 l 1
 539 162 l 1
 621 540 l 1
 766 540 l 1
 613 0 l 1
EndSplineSet
KernsSLIF: 122 118 0 0 120 112 0 0 117 86 0 0 116 71 0 0 114 81 0 0 112 86 0 0 110 81 0 0 109 84 0 0 107 85 0 0 106 74 0 0 105 77 0 0 104 77 0 0 102 89 0 0 98 85 0 0 84 -91 0 0 82 64 0 0 80 68 0 0 78 76 0 0 77 78 0 0 76 64 0 0 75 70 0 0 73 81 0 0 72 76 0 0 70 70 0 0 69 65 0 0 68 67 0 0 66 62 0 0 57 66 0 0 55 -113 0 0 53 65 0 0 51 61 0 0 50 114 0 0
EndChar
StartChar: x
Encoding: 120 120 91
Width: 556
Flags: W
Fore
355 272 m 1
 535 0 l 1
 367 0 l 1
 276 168 l 1
 184 0 l 1
 16 0 l 1
 196 272 l 1
 20 540 l 1
 188 540 l 1
 276 377 l 1
 363 540 l 1
 531 540 l 1
 355 272 l 1
EndSplineSet
KernsSLIF: 122 123 0 0 121 135 0 0 120 100 0 0 119 114 0 0 118 130 0 0 117 73 0 0 114 84 0 0 112 89 0 0 110 84 0 0 109 87 0 0 108 80 0 0 107 88 0 0 106 77 0 0 105 80 0 0 104 80 0 0 102 60 0 0 98 88 0 0 88 105 0 0 84 -88 0 0 83 80 0 0 82 67 0 0 80 71 0 0 78 79 0 0 77 81 0 0 76 67 0 0 75 73 0 0 73 84 0 0 72 79 0 0 70 73 0 0 69 68 0 0 68 70 0 0 66 65 0 0 65 102 0 0 57 91 0 0 56 82 0 0 54 70 0 0 53 61 0 0 51 104 0 0 50 115 0 0 48 84 0 0
EndChar
StartChar: y
Encoding: 121 121 92
Width: 556
Flags: W
Fore
394 540 m 1
 538 540 l 1
 316 -99 l 1
 299.333 -145 281 -175 261 -189 c 1
 237 -202 l 1
 210.333 -213.333 176.667 -219 136 -219 c 0
 121.333 -219 104.667 -217.667 86 -215 c 1
 86 -110 l 1
 100.667 -114 113 -116 123 -116 c 0
 157 -116 182 -101.333 198 -72 c 0
 206 -58.6667 210 -43.3333 210 -26 c 2
 210 -23 l 1
 210 -22 l 1
 9 540 l 1
 163 540 l 1
 282 147 l 1
 394 540 l 1
EndSplineSet
KernsSLIF: 122 112 0 0 120 131 0 0 117 69 0 0 114 72 0 0 112 77 0 0 110 72 0 0 109 75 0 0 107 76 0 0 106 65 0 0 105 68 0 0 104 68 0 0 102 74 0 0 98 76 0 0 84 -100 0 0 80 59 0 0 78 67 0 0 77 69 0 0 75 61 0 0 73 72 0 0 72 67 0 0 70 61 0 0 68 58 0 0 65 -63 0 0 55 -142 0 0 50 108 0 0
EndChar
StartChar: z
Encoding: 122 122 93
Width: 500
Flags: W
Fore
459 540 m 1
 459 427 l 1
 194 113 l 1
 468 113 l 1
 468 0 l 1
 21 0 l 1
 21 113 l 1
 288 427 l 1
 39 427 l 1
 39 540 l 1
 459 540 l 1
EndSplineSet
KernsSLIF: 122 64 0 0 121 97 0 0 120 119 0 0 119 105 0 0 118 92 0 0 117 69 0 0 116 95 0 0 115 84 0 0 114 72 0 0 113 66 0 0 112 78 0 0 110 72 0 0 109 76 0 0 108 68 0 0 107 76 0 0 106 66 0 0 105 68 0 0 104 68 0 0 103 62 0 0 102 96 0 0 101 73 0 0 100 64 0 0 99 61 0 0 98 76 0 0 97 85 0 0 84 -100 0 0 83 83 0 0 81 68 0 0 80 60 0 0 79 71 0 0 78 68 0 0 77 70 0 0 75 62 0 0 73 72 0 0 72 68 0 0 71 69 0 0 70 62 0 0 68 58 0 0 67 69 0 0 65 93 0 0 57 92 0 0 56 94 0 0 54 84 0 0 53 83 0 0 51 82 0 0 50 65 0 0 48 89 0 0
EndChar
StartChar: braceleft
Encoding: 123 123 94
Width: 389
Flags: W
Fore
317 729 m 1
 317 630 l 1
 280 630 l 2
 252 630 237 611 235 573 c 1
 235 378 l 2
 235 332.667 223.667 302.667 201 288 c 2
 200 288 l 2
 186.667 279.333 166 273 138 269 c 1
 184 261.667 212.667 246 224 222 c 1
 225 222 l 1
 230.333 210.667 233.333 195.667 234 177 c 1
 235 159 l 1
 235 -36 l 2
 235 -72 243.333 -92.6667 260 -98 c 1
 280 -101 l 1
 317 -101 l 1
 317 -200 l 1
 241 -200 l 2
 194.333 -200 159.667 -179.333 137 -138 c 0
 124.333 -116 118 -90 118 -60 c 2
 118 150 l 2
 118 182 110.333 203 95 213 c 2
 94 213 l 1
 93 214 l 1
 87 217 l 2
 77.6667 220.333 62.3333 222 41 222 c 2
 37 223 l 1
 37 315 l 1
 41 315 l 1
 53 315 l 2
 93 315.667 114.333 333 117 367 c 1
 118 378 l 1
 118 589 l 2
 118 644.333 137.333 684.667 176 710 c 0
 194.667 722.667 216.333 729 241 729 c 2
 317 729 l 1
EndSplineSet
EndChar
StartChar: bar
Encoding: 124 124 95
Width: 280
Flags: W
Fore
180 729 m 1
 180 -200 l 1
 100 -200 l 1
 100 729 l 1
 180 729 l 1
EndSplineSet
EndChar
StartChar: braceright
Encoding: 125 125 96
Width: 389
Flags: W
Fore
72 -200 m 1
 72 -101 l 1
 109 -101 l 2
 137 -101 152 -82 154 -44 c 1
 154 151 l 2
 154 196.333 165.333 226.333 188 241 c 2
 189 241 l 2
 202.333 249.667 223 256 251 260 c 1
 205 267.333 176.333 283 165 307 c 0
 157.667 321 154 342 154 370 c 2
 154 565 l 2
 154 601 145.667 621.667 129 627 c 1
 109 630 l 1
 72 630 l 1
 72 729 l 1
 148 729 l 2
 194.667 729 229.333 708.333 252 667 c 0
 264.667 645 271 619 271 589 c 2
 271 379 l 2
 271 347 278.667 326 294 316 c 2
 302 312 l 2
 311.333 308.667 326.667 307 348 307 c 2
 352 306 l 1
 352 214 l 1
 348 214 l 1
 336 214 l 2
 296 213.333 274.667 196 272 162 c 1
 271 151 l 1
 271 -60 l 2
 271 -115.333 251.667 -155.667 213 -181 c 0
 194.333 -193.667 172.667 -200 148 -200 c 2
 72 -200 l 1
EndSplineSet
EndChar
StartChar: asciitilde
Encoding: 126 126 97
Width: 584
Flags: W
Fore
441 288 m 1
 519 288 l 1
 513 190.667 470.667 142 392 142 c 0
 362 142 334.333 150.667 309 168 c 1
 252 210 l 2
 230.667 226 210.333 234 191 234 c 0
 167 234 151 225 143 207 c 0
 140.333 199.667 138.667 187 138 169 c 1
 60 169 l 1
 64.6667 265.667 107 314 187 314 c 0
 218.333 314 246 305.667 270 289 c 2
 327 247 l 2
 349.667 230.333 370 222 388 222 c 0
 412 222 428 231 436 249 c 0
 438.667 256.333 440.333 269.333 441 288 c 1
EndSplineSet
EndChar
StartChar: exclamdown
Encoding: 161 161 98
Width: 333
Flags: W
Fore
66 -186 m 1
 66 24 l 1
 108 333 l 1
 175 333 l 1
 216 24 l 1
 216 -186 l 1
 66 -186 l 1
66 394 m 1
 66 540 l 1
 216 540 l 1
 216 394 l 1
 66 394 l 1
EndSplineSet
EndChar
StartChar: cent
Encoding: 162 162 99
Width: 556
Flags: W
Fore
303 435 m 1
 303 91 l 1
 339 96.3333 364.333 118.667 379 158 c 1
 380 159 l 1
 383 169 383 169 387 182 c 1
 388 187 l 1
 522 187 l 1
 515.333 113 483.333 56.3333 426 17 c 0
 390.667 -7.66667 349.667 -21 303 -23 c 1
 303 -124 l 1
 259 -124 l 1
 259 -22 l 1
 170.333 -16 107 25 69 101 c 0
 47 145 36 197.667 36 259 c 0
 36 397.667 83.6667 487.333 179 528 c 0
 203 538 229.667 544.667 259 548 c 1
 259 634 l 1
 303 634 l 1
 303 549 l 1
 379 547.667 437.667 518.667 479 462 c 0
 504.333 427.333 518.667 386 522 338 c 1
 388 338 l 1
 377.333 388.667 355.333 419.667 322 431 c 1
 303 435 l 1
259 94 m 1
 259 433 l 1
 204.333 419 176.667 361.333 176 260 c 0
 176 166 203.667 110.667 259 94 c 1
EndSplineSet
EndChar
StartChar: sterling
Encoding: 163 163 100
Width: 556
Flags: W
Fore
375 371 m 1
 375 316 l 1
 253 316 l 1
 263 294.667 268 275 268 257 c 0
 268 214.333 246.333 172 203 130 c 0
 189.667 116.667 172.667 102 152 86 c 1
 201.333 109.333 238.667 121.667 264 123 c 0
 278 123 299.333 119.333 328 112 c 0
 352.667 105.333 373.667 102 391 102 c 0
 422.333 102 457.333 111.667 496 131 c 1
 537 22 l 1
 486.333 -8 438 -23 392 -23 c 0
 370.667 -23 337.667 -17.6667 293 -7 c 0
 250.333 3.66667 217.667 9 195 9 c 0
 162.333 9 126 -1 86 -21 c 1
 31 80 l 1
 86.3333 118 120 152 132 182 c 0
 138 196 141 212.333 141 231 c 0
 141 253.667 134 282 120 316 c 1
 31 316 l 1
 31 371 l 1
 91 371 l 1
 59.6667 425.667 42.6667 464.667 40 488 c 1
 38 516 l 1
 38 569.333 58.3333 615.333 99 654 c 0
 103 658 107.333 662 112 666 c 0
 154.667 698.667 209.333 715 276 715 c 0
 374.667 715 444 684 484 622 c 2
 485 621 l 2
 489 614 489 614 494 605 c 0
 508 577.667 517.333 537.333 522 484 c 1
 390 484 l 1
 389 495 l 1
 384.333 531.667 374.667 557.333 360 572 c 2
 359 573 l 1
 354 577 l 2
 334 595 308.333 604 277 604 c 0
 236.333 604 207.333 588.333 190 557 c 0
 190 556.333 189.667 556 189 556 c 1
 182.333 543.333 179 529 179 513 c 0
 179 499 185.333 478.667 198 452 c 1
 199 451 l 1
 199 450 l 1
 200 449 l 1
 206 436 l 1
 236 371 l 1
 375 371 l 1
EndSplineSet
EndChar
StartChar: currency
Encoding: 164 164 101
Width: 556
Flags: W
Fore
388 528 m 1
 461 601 l 1
 530 532 l 1
 455 457 l 1
 473 421 482 386.667 482 354 c 0
 482 316 472.333 280 453 246 c 1
 530 170 l 1
 461 102 l 1
 386 177 l 1
 351.333 158.333 322 148.333 298 147 c 2
 297 147 l 1
 296 147 l 2
 292 147 292 147 286 147 c 0
 240 147 203 157.333 175 178 c 1
 96 100 l 1
 28 169 l 1
 106 246 l 1
 86 282 76 317.333 76 352 c 0
 76 391.333 85.6667 426.333 105 457 c 1
 26 536 l 1
 95 604 l 1
 172 527 l 1
 205.333 547.667 241.667 558 281 558 c 0
 320.333 558 356 548 388 528 c 1
280 460 m 0
 240.667 460 210.333 443.667 189 411 c 0
 177.667 393.667 172 374 172 352 c 0
 172 313.333 188.333 283.333 221 262 c 0
 238.333 250.667 257.667 245 279 245 c 0
 317 245 346.667 261 368 293 c 0
 380 311 386 331 386 353 c 0
 386 390.333 370.333 420 339 442 c 0
 321 454 301.333 460 280 460 c 0
EndSplineSet
EndChar
StartChar: yen
Encoding: 165 165 102
Width: 556
Flags: W
Fore
497 351 m 1
 497 292 l 1
 355 292 l 1
 355 239 l 1
 497 239 l 1
 497 180 l 1
 355 180 l 1
 355 0 l 1
 215 0 l 1
 215 180 l 1
 70 180 l 1
 70 239 l 1
 215 239 l 1
 215 292 l 1
 70 292 l 1
 70 351 l 1
 208 351 l 1
 5 704 l 1
 144 704 l 1
 283 450 l 1
 417 704 l 1
 552 704 l 1
 360 351 l 1
 497 351 l 1
EndSplineSet
EndChar
StartChar: brokenbar
Encoding: 166 166 103
Width: 280
Flags: W
Fore
180 729 m 1
 180 340 l 1
 100 340 l 1
 100 729 l 1
 180 729 l 1
180 189 m 1
 180 -200 l 1
 100 -200 l 1
 100 189 l 1
 180 189 l 1
EndSplineSet
EndChar
StartChar: section
Encoding: 167 167 104
Width: 556
Flags: W
Fore
473 544 m 1
 346 544 l 1
 340 592 317.333 617.667 278 621 c 2
 277 621 l 1
 268 621 l 2
 235.333 621 215 609.333 207 586 c 1
 204 570 l 1
 204 551.333 217 533 243 515 c 0
 255 507 272 497 294 485 c 2
 421 415 l 2
 485 379 517.333 328 518 262 c 0
 518 208.667 497 168.333 455 141 c 1
 424 124 l 1
 470 91.3333 493.333 46.6667 494 -10 c 0
 494 -78.6667 466 -130.667 410 -166 c 0
 372.667 -189.333 328 -201 276 -201 c 0
 136.667 -201 66.3333 -134 65 0 c 1
 196 0 l 1
 196 -10 l 1
 198 -38 204.333 -57.3333 215 -68 c 0
 229.667 -82.6667 250.333 -90 277 -90 c 0
 313 -90 336.667 -77.6667 348 -53 c 0
 351.333 -45.6667 353 -37.6667 353 -29 c 0
 353 -11 347 4 335 16 c 0
 328.333 22.6667 311 33.6667 283 49 c 1
 112 149 l 2
 60 179.667 33.6667 223.667 33 281 c 0
 33 321 46.3333 355 73 383 c 0
 85.6667 396.333 103 411.333 125 428 c 1
 106.333 446.667 95 459 91 465 c 0
 73 487.667 64 516.333 64 551 c 0
 64 609.667 90 655.333 142 688 c 0
 178.667 711.333 222.333 723 273 723 c 0
 344.333 723 398 703 434 663 c 2
 435 662 l 1
 447 647 l 1
 462.333 621.667 471 587.333 473 544 c 1
337 306 m 1
 194 382 l 1
 166.667 365.333 152.667 343.667 152 317 c 0
 152 293.667 163 274.333 185 259 c 2
 186 258 l 1
 205 247 l 1
 352 167 l 1
 382 188.333 397.333 210 398 232 c 0
 398 255.333 386.667 274.667 364 290 c 1
 364 290 l 1
 337 306 l 1
EndSplineSet
EndChar
StartChar: dieresis
Encoding: 168 168 105
Width: 333
Flags: W
Fore
128 743 m 1
 128 621 l 1
 18 621 l 1
 18 743 l 1
 128 743 l 1
314 743 m 1
 314 621 l 1
 204 621 l 1
 204 743 l 1
 314 743 l 1
EndSplineSet
EndChar
StartChar: copyright
Encoding: 169 169 106
Width: 737
Flags: W
Fore
552 431 m 1
 462 431 l 1
 452 480.333 421 506.333 369 509 c 1
 317 509 282.333 482.333 265 429 c 0
 260.333 415.667 257.333 401 256 385 c 1
 255 359 l 1
 255 284.333 278.333 237.667 325 219 c 0
 337 213.667 350.667 211 366 211 c 0
 422 211 453.667 237.333 461 290 c 2
 462 297 l 1
 554 297 l 1
 550.667 225.667 519.667 176 461 148 c 0
 433 134.667 400.667 128 364 128 c 0
 286.667 128 230.333 159.667 195 223 c 0
 173.667 260.333 163 306 163 360 c 0
 163 454.667 193.333 521.667 254 561 c 0
 286 581.667 323.667 592 367 592 c 0
 435 592 486.667 568.667 522 522 c 0
 539.333 498.667 549.333 468.333 552 431 c 1
369 743 m 2
 469 743 555.667 709 629 641 c 0
 701 573.667 741.333 491.333 750 394 c 1
 751 361 l 1
 751 257.667 715.667 169.333 645 96 c 0
 576.333 24 491 -15 389 -21 c 2
 364 -22 l 2
 267.333 -22 182.333 12 109 80 c 0
 37.6667 146.667 -2.66667 228 -12 324 c 0
 -13.3333 336 -14 348.333 -14 361 c 0
 -14 461 20.3333 547.667 89 621 c 0
 157 693.667 239.667 734 337 742 c 1
 369 743 l 2
368 671 m 0
 284.667 671 213 640.667 153 580 c 0
 153 579.333 152.667 578.667 152 578 c 0
 93.3333 518 64 445.667 64 361 c 0
 64 277 93.3333 204.333 152 143 c 0
 210.667 82.3333 281.667 51.3333 365 50 c 1
 451.667 50 525 80.6667 585 142 c 0
 643.667 202 673 275 673 361 c 0
 673 447 642.667 520.333 582 581 c 0
 522.667 641 451.333 671 368 671 c 0
EndSplineSet
EndChar
StartChar: ordfeminine
Encoding: 170 170 107
Width: 370
Flags: W
Fore
321 340 m 1
 321 262 l 1
 37 262 l 1
 37 340 l 1
 321 340 l 1
329 410 m 1
 329 400 l 1
 237 400 l 1
 231 407.333 227.667 418 227 432 c 1
 198.333 401.333 165.667 386 129 386 c 0
 85.6667 386 56 403.667 40 439 c 0
 34 452.333 31 467.333 31 484 c 0
 31 542 62.6667 576.333 126 587 c 2
 160 593 l 2
 187.333 597.667 204.667 602 212 606 c 0
 221.333 610 226.333 618 227 630 c 0
 227 650.667 210.667 661 178 661 c 0
 146.667 661 128 651.333 122 632 c 1
 122 631 l 1
 122 630 l 1
 119 617 l 1
 41 617 l 1
 42.3333 691 87.3333 728.333 176 729 c 0
 264 729 308.333 695.667 309 629 c 1
 309 450 l 2
 309 435.333 315.667 422 329 410 c 1
227 530 m 1
 227 553 l 1
 219.667 549 208 545.667 192 543 c 2
 163 537 l 2
 134.333 531 118.667 519.333 116 502 c 1
 115 493 l 1
 115 470.333 127.333 457.667 152 455 c 0
 154.667 454.333 157.667 454 161 454 c 0
 198.333 454 220 473.333 226 512 c 1
 227 530 l 1
EndSplineSet
EndChar
StartChar: guillemotleft
Encoding: 171 171 108
Width: 556
Flags: W
Fore
88 218 m 1
 88 332 l 1
 255 481 l 1
 255 364 l 1
 154 275 l 1
 255 186 l 1
 255 72 l 1
 88 218 l 1
301 218 m 1
 301 332 l 1
 468 481 l 1
 468 364 l 1
 367 275 l 1
 468 186 l 1
 468 72 l 1
 301 218 l 1
EndSplineSet
EndChar
StartChar: logicalnot
Encoding: 172 172 109
Width: 584
Flags: W
Fore
40 375 m 1
 544 375 l 1
 544 86 l 1
 467 86 l 1
 467 298 l 1
 40 298 l 1
 40 375 l 1
EndSplineSet
EndChar
StartChar: registered
Encoding: 174 174 110
Width: 737
Flags: W
Fore
288 313 m 1
 288 140 l 1
 192 140 l 1
 192 583 l 1
 430 583 l 2
 489.333 583 527 559 543 511 c 1
 543 511 l 1
 548.333 497 551 480.667 551 462 c 0
 551 412.667 527.667 376.667 481 354 c 1
 504.333 343.333 519 332 525 320 c 1
 525 320 l 1
 532.333 306 536.667 264.333 538 195 c 0
 538 179.667 543 169 553 163 c 2
 557 161 l 1
 557 140 l 1
 454 140 l 1
 444.667 157.333 440 184.333 440 221 c 1
 441 247 l 1
 441 264 l 2
 441 296 420.667 312.333 380 313 c 2
 288 313 l 1
288 394 m 1
 391 394 l 2
 425 394 445 403 451 421 c 0
 453.667 427.667 455 436.667 455 448 c 0
 455 476 444.667 493 424 499 c 0
 416 501 405 502 391 502 c 2
 288 502 l 1
 288 394 l 1
369 743 m 2
 469 743 555.667 709 629 641 c 0
 701 573.667 741.333 491.333 750 394 c 1
 751 361 l 1
 751 257.667 715.667 169.333 645 96 c 0
 576.333 24 491 -15 389 -21 c 2
 364 -22 l 2
 267.333 -22 182.333 12 109 80 c 0
 37.6667 146.667 -2.66667 228 -12 324 c 0
 -13.3333 336 -14 348.333 -14 361 c 0
 -14 461 20.3333 547.667 89 621 c 0
 157 693.667 239.667 734 337 742 c 1
 369 743 l 2
368 671 m 0
 284.667 671 213 640.667 153 580 c 0
 153 579.333 152.667 578.667 152 578 c 0
 93.3333 518 64 445.667 64 361 c 0
 64 277 93.3333 204.333 152 143 c 0
 210.667 82.3333 281.667 51.3333 365 50 c 1
 451.667 50 525 80.6667 585 142 c 0
 643.667 202 673 275 673 361 c 0
 673 447 642.667 520.333 582 581 c 0
 522.667 641 451.333 671 368 671 c 0
EndSplineSet
EndChar
StartChar: macron
Encoding: 175 175 111
Width: 333
Flags: W
Fore
315 719 m 1
 315 640 l 1
 16 640 l 1
 16 719 l 1
 315 719 l 1
EndSplineSet
EndChar
StartChar: degree
Encoding: 176 176 112
Width: 606
Flags: W
Fore
303 686 m 0
 352.333 686 392 666.333 422 627 c 0
 442.667 600.333 453.333 569.667 454 535 c 0
 454 484.333 434 444 394 414 c 0
 366.667 393.333 335.667 383 301 383 c 0
 253 383 213.667 402.667 183 442 c 0
 161.667 469.333 151 500.333 151 535 c 0
 151 584.333 171 624.333 211 655 c 0
 237.667 675.667 268.333 686 303 686 c 0
303 623 m 0
 269.667 623 244.333 609 227 581 c 0
 218.333 567 214 551.333 214 534 c 0
 214 502 227.667 477.333 255 460 c 0
 269.667 450.667 285 446 301 446 c 0
 335.667 446 361.667 460.667 379 490 c 1
 379 491 l 1
 386.333 503.667 390.333 518.333 391 535 c 0
 391 567 377 592 349 610 c 0
 335 618.667 319.667 623 303 623 c 0
EndSplineSet
EndChar
StartChar: plusminus
Encoding: 177 177 113
Width: 584
Flags: W
Fore
527 103 m 1
 527 -16 l 1
 56 -16 l 1
 56 103 l 1
 527 103 l 1
527 432 m 1
 527 313 l 1
 351 313 l 1
 351 137 l 1
 232 137 l 1
 232 313 l 1
 56 313 l 1
 56 432 l 1
 232 432 l 1
 232 608 l 1
 351 608 l 1
 351 432 l 1
 527 432 l 1
EndSplineSet
EndChar
StartChar: twosuperior
Encoding: 178 178 114
Width: 351
Flags: W
Fore
326 365 m 1
 326 284 l 1
 16 284 l 1
 18 336 32.3333 376 59 404 c 0
 73 419.333 93.3333 435.667 120 453 c 0
 178 491.667 212.333 519.333 223 536 c 0
 229.667 547.333 233 562 233 580 c 0
 233 616 217.667 637 187 643 c 1
 172 644 l 2
 138 644 118.333 625.667 113 589 c 1
 112 573 l 1
 114 557 l 1
 22 557 l 1
 21 575 l 1
 21 649 54.3333 694.667 121 712 c 0
 137.667 716 156.333 718 177 718 c 0
 257.667 718 306 688 322 628 c 0
 326 614.667 328 600 328 584 c 0
 328 546.667 315.333 515 290 489 c 0
 276 475 254.667 458 226 438 c 2
 167 395 l 2
 161 391 151.667 381 139 365 c 1
 326 365 l 1
EndSplineSet
EndChar
StartChar: threesuperior
Encoding: 179 179 115
Width: 351
Flags: W
Fore
134 471 m 1
 134 533 l 1
 145 533 l 2
 194.333 533 219.333 552.333 220 591 c 0
 220 619.667 207.333 637 182 643 c 1
 167 645 l 1
 141.667 645 125 635.667 117 617 c 0
 112.333 607.667 110 592.333 110 571 c 1
 22 571 l 1
 24 614.333 33.3333 647 50 669 c 1
 76.6667 701.667 116.667 718 170 718 c 0
 233.333 718 277 697.667 301 657 c 0
 310.333 641 315 622.333 315 601 c 0
 315 563 297.667 533.333 263 512 c 1
 306.333 491.333 328.333 457 329 409 c 0
 329 352.333 304.333 312.333 255 289 c 0
 231 277 202.667 271 170 271 c 0
 92 271 43 300.667 23 360 c 0
 17.6667 376 15 394 15 414 c 1
 107 414 l 1
 109.667 371.333 131.333 349.333 172 348 c 0
 200.667 348 220 360.333 230 385 c 0
 232.667 391.667 234 399.333 234 408 c 0
 234 448.667 206 469.667 150 471 c 2
 134 471 l 1
EndSplineSet
EndChar
StartChar: acute
Encoding: 180 180 116
Width: 333
Flags: W
Fore
317 757 m 1
 191 607 l 1
 121 607 l 1
 191 757 l 1
 317 757 l 1
EndSplineSet
EndChar
StartChar: mu
Encoding: 181 181 117
Width: 611
Flags: W
Fore
192 -220 m 1
 58 -220 l 1
 58 540 l 1
 198 540 l 1
 198 206 l 2
 198 172 204 146.333 216 129 c 0
 230.667 107 252.667 96 282 96 c 0
 322.667 96 352 113 370 147 c 0
 378.667 163 383 181.333 383 202 c 2
 383 540 l 1
 523 540 l 1
 523 150 l 2
 523 108.667 528.333 85.3333 539 80 c 2
 540 79 l 1
 553 77 l 1
 573 81 l 1
 573 -6 l 1
 551 -17.3333 527.667 -23 503 -23 c 0
 467 -23 439.667 -11.3333 421 12 c 0
 417 17.3333 412.667 23.6667 408 31 c 1
 375.333 -2.33333 341.333 -20.3333 306 -23 c 0
 301 -23 301 -23 292 -23 c 0
 251.333 -23 218 -10.3333 192 15 c 1
 192 -220 l 1
EndSplineSet
EndChar
StartChar: paragraph
Encoding: 182 182 118
Width: 556
Flags: W
Fore
529 729 m 1
 529 657 l 1
 486 657 l 1
 486 -191 l 1
 388 -191 l 1
 388 657 l 1
 325 657 l 1
 325 -191 l 1
 227 -191 l 1
 227 267 l 1
 154.333 270.333 98.3333 300.667 59 358 c 0
 32.3333 396.667 19 442.333 19 495 c 0
 19 553 36 604.667 70 650 c 0
 108.667 702.667 160.667 729 226 729 c 2
 529 729 l 1
EndSplineSet
EndChar
StartChar: periodcentered
Encoding: 183 183 119
Width: 278
Flags: W
Fore
64 292 m 1
 188 292 l 1
 188 169 l 1
 64 169 l 1
 64 292 l 1
EndSplineSet
EndChar
StartChar: cedilla
Encoding: 184 184 120
Width: 333
Flags: W
Fore
162 0 m 1
 205 0 l 1
 176 -63 l 1
 190 -58.3333 204 -56 218 -56 c 0
 258 -56 282.333 -72 291 -104 c 0
 293 -110.667 294 -118.333 294 -127 c 0
 294 -177.667 264 -207.667 204 -217 c 0
 192 -219 179 -220 165 -220 c 0
 128.333 -220 83.6667 -211 31 -193 c 2
 27 -192 l 1
 46 -140 l 1
 92 -160 127 -170 151 -170 c 0
 177.667 -170 195.333 -161.333 204 -144 c 0
 206 -140 207.333 -135 208 -129 c 0
 208 -111 196.667 -100 174 -96 c 2
 173 -95 l 2
 167.667 -94.3333 162.333 -94 157 -94 c 0
 141 -94 124.667 -98 108 -106 c 1
 162 0 l 1
EndSplineSet
EndChar
StartChar: onesuperior
Encoding: 185 185 121
Width: 351
Flags: W
Fore
147 573 m 1
 40 573 l 1
 40 634 l 1
 118 634 164 659 178 709 c 1
 242 709 l 1
 242 284 l 1
 147 284 l 1
 147 573 l 1
EndSplineSet
EndChar
StartChar: ordmasculine
Encoding: 186 186 122
Width: 365
Flags: W
Fore
334 340 m 1
 334 262 l 1
 33 262 l 1
 33 340 l 1
 334 340 l 1
183 729 m 0
 257.667 729 306.667 697.667 330 635 c 0
 338.667 612.333 343 585.667 343 555 c 0
 343 483.667 317.333 434 266 406 c 0
 242 392.667 214.333 386 183 386 c 0
 114.333 386 67 413.333 41 468 c 0
 29 493.333 23 523 23 557 c 0
 23 632.333 49.6667 683.667 103 711 c 0
 125.667 723 152.333 729 183 729 c 0
183 661 m 0
 151 661 128.333 643.667 115 609 c 0
 109.667 594.333 107 577.333 107 558 c 0
 107 510.667 121.667 478.667 151 462 c 0
 161 456.667 171.667 454 183 454 c 0
 215 454 237.333 471.333 250 506 c 0
 256 520.667 259 537.333 259 556 c 0
 259 606 243.667 638.667 213 654 c 0
 205.667 658 195.667 660.333 183 661 c 0
EndSplineSet
EndChar
StartChar: guillemotright
Encoding: 187 187 123
Width: 556
Flags: W
Fore
255 335 m 1
 255 220 l 1
 88 72 l 1
 88 189 l 1
 189 278 l 1
 88 367 l 1
 88 481 l 1
 255 335 l 1
462 335 m 1
 462 220 l 1
 295 72 l 1
 295 189 l 1
 396 278 l 1
 295 367 l 1
 295 481 l 1
 462 335 l 1
EndSplineSet
KernsSLIF: 89 -111 0 0 87 -60 0 0 86 -78 0 0 84 -108 0 0
EndChar
StartChar: onequarter
Encoding: 188 188 124
Width: 869
Flags: W
Fore
147 573 m 1
 40 573 l 1
 40 634 l 1
 118 634 164 659 178 709 c 1
 242 709 l 1
 242 284 l 1
 147 284 l 1
 147 573 l 1
593 715 m 1
 680 715 l 1
 257 -20 l 1
 170 -20 l 1
 593 715 l 1
850 168 m 1
 850 93 l 1
 804 93 l 1
 804 0 l 1
 709 0 l 1
 709 93 l 1
 530 93 l 1
 530 167 l 1
 695 425 l 1
 804 425 l 1
 804 168 l 1
 850 168 l 1
709 168 m 1
 709 332 l 1
 603 168 l 1
 709 168 l 1
EndSplineSet
EndChar
StartChar: onehalf
Encoding: 189 189 125
Width: 869
Flags: W
Fore
147 573 m 1
 40 573 l 1
 40 634 l 1
 118 634 164 659 178 709 c 1
 242 709 l 1
 242 284 l 1
 147 284 l 1
 147 573 l 1
587 715 m 1
 674 715 l 1
 251 -20 l 1
 164 -20 l 1
 587 715 l 1
844 81 m 1
 844 0 l 1
 534 0 l 1
 536 52 550.333 92 577 120 c 0
 591 135.333 611.333 151.667 638 169 c 0
 696 207.667 730.333 235.333 741 252 c 0
 747.667 263.333 751 278 751 296 c 0
 751 332 735.667 353 705 359 c 1
 690 360 l 2
 656 360 636.333 341.667 631 305 c 1
 631 304 l 1
 630 289 l 1
 632 273 l 1
 540 273 l 1
 539 291 l 1
 539 365 572.333 410.667 639 428 c 0
 655.667 432 674.333 434 695 434 c 0
 775.667 434 824 404 840 344 c 0
 844 330.667 846 316 846 300 c 0
 846 262.667 833.333 231 808 205 c 0
 794 191 772.667 174 744 154 c 2
 685 111 l 2
 679 107 669.667 97 657 81 c 1
 844 81 l 1
EndSplineSet
EndChar
StartChar: threequarters
Encoding: 190 190 126
Width: 869
Flags: W
Fore
134 471 m 1
 134 533 l 1
 145 533 l 2
 194.333 533 219.333 552.333 220 591 c 0
 220 619.667 207.333 637 182 643 c 1
 167 645 l 1
 141.667 645 125 635.667 117 617 c 0
 112.333 607.667 110 592.333 110 571 c 1
 22 571 l 1
 24 614.333 33.3333 647 50 669 c 1
 76.6667 701.667 116.667 718 170 718 c 0
 233.333 718 277 697.667 301 657 c 0
 310.333 641 315 622.333 315 601 c 0
 315 563 297.667 533.333 263 512 c 1
 306.333 491.333 328.333 457 329 409 c 0
 329 352.333 304.333 312.333 255 289 c 0
 231 277 202.667 271 170 271 c 0
 92 271 43 300.667 23 360 c 0
 17.6667 376 15 394 15 414 c 1
 107 414 l 1
 109.667 371.333 131.333 349.333 172 348 c 0
 200.667 348 220 360.333 230 385 c 0
 232.667 391.667 234 399.333 234 408 c 0
 234 448.667 206 469.667 150 471 c 2
 134 471 l 1
625 715 m 1
 712 715 l 1
 289 -20 l 1
 202 -20 l 1
 625 715 l 1
850 168 m 1
 850 93 l 1
 804 93 l 1
 804 0 l 1
 709 0 l 1
 709 93 l 1
 530 93 l 1
 530 167 l 1
 695 425 l 1
 804 425 l 1
 804 168 l 1
 850 168 l 1
709 168 m 1
 709 332 l 1
 603 168 l 1
 709 168 l 1
EndSplineSet
EndChar
StartChar: questiondown
Encoding: 191 191 127
Width: 611
Flags: W
Fore
239 339 m 1
 363 339 l 1
 365 285 352.667 240.333 326 205 c 0
 311.333 185.667 290.333 164.333 263 141 c 0
 225.667 110.333 203.667 85.6667 197 67 c 0
 193.667 57 192 44.3333 192 29 c 0
 192 -15 208.333 -47.6667 241 -69 c 0
 257.667 -80.3333 276.333 -86 297 -86 c 0
 338.333 -86 369.667 -66.3333 391 -27 c 0
 403.667 -2.33333 409.333 25.6667 408 57 c 1
 408 59 l 1
 544 59 l 1
 543.333 -13 529.333 -68.3333 502 -107 c 0
 500.667 -109.667 499 -112.333 497 -115 c 0
 453.667 -174.333 388.333 -204 301 -204 c 0
 213.667 -204 146.667 -175.333 100 -118 c 0
 67.3333 -78.6667 51 -30.6667 51 26 c 0
 51 78 65.6667 120.667 95 154 c 0
 111.667 174 137.333 196 172 220 c 0
 204 242.667 223.333 261 230 275 c 0
 233.333 281.667 235.667 289 237 297 c 1
 239 339 l 1
223 394 m 1
 223 540 l 1
 373 540 l 1
 373 394 l 1
 223 394 l 1
EndSplineSet
EndChar
StartChar: AE
Encoding: 198 198 134
Width: 1000
Flags: W
Fore
430 152 m 1
 207 152 l 1
 154 0 l 1
 1 0 l 1
 264 729 l 1
 946 729 l 1
 946 604 l 1
 580 604 l 1
 580 439 l 1
 919 439 l 1
 919 314 l 1
 580 314 l 1
 580 125 l 1
 966 125 l 1
 966 0 l 1
 430 0 l 1
 430 152 l 1
430 277 m 1
 430 604 l 1
 363 604 l 1
 249 277 l 1
 430 277 l 1
EndSplineSet
EndChar
StartChar: Ccedilla
Encoding: 199 199 135
Width: 722
Flags: W
Fore
379 -23 m 1
 360 -63 l 1
 373.333 -58.3333 387.333 -56 402 -56 c 0
 442 -56 466.333 -72 475 -104 c 0
 477 -110.667 478 -118.333 478 -127 c 0
 478 -177.667 448 -207.667 388 -217 c 0
 376 -219 363 -220 349 -220 c 0
 312.333 -220 267.667 -211 215 -193 c 2
 211 -192 l 1
 230 -140 l 1
 276 -160 311 -170 335 -170 c 0
 361.667 -170 379.333 -161.333 388 -144 c 0
 390 -140 391.333 -135 392 -129 c 0
 392 -112.333 381.667 -101.333 361 -96 c 2
 360 -96 l 1
 360 -96 l 1
 359 -96 l 1
 341 -94 l 1
 325 -94 308.667 -98 292 -106 c 1
 335 -23 l 1
 268.333 -11.6667 218.667 6 186 30 c 1
 155 56 l 1
 81 126.667 44 227.333 44 358 c 0
 44 496.667 84 600 164 668 c 0
 221.333 716.667 292.667 741 378 741 c 0
 485.333 741 568 705.667 626 635 c 2
 633 626 l 2
 661 589.333 677.333 541.333 682 482 c 1
 539 482 l 1
 531 516.667 520 542.667 506 560 c 0
 478 595.333 437 613 383 613 c 0
 306.333 613 252 576 220 502 c 0
 207.333 472 199.333 437 196 397 c 1
 194 356 l 1
 194 242 225.333 165.667 288 127 c 0
 314 111 344 103 378 103 c 0
 452 103 501.333 133 526 193 c 0
 532.667 209.667 537 228.333 539 249 c 1
 685 249 l 1
 680.333 147 638 72 558 24 c 0
 508.667 -6 449 -21.6667 379 -23 c 1
EndSplineSet
EndChar
StartChar: Eth
Encoding: 208 208 144
Width: 722
Flags: W
Fore
77 339 m 1
 0 339 l 1
 0 419 l 1
 77 419 l 1
 77 729 l 1
 362 729 l 2
 457.333 729 527.333 708.333 572 667 c 2
 585 654 l 1
 593 645 l 2
 644.333 580.333 673.333 498.333 680 399 c 1
 681 365 l 1
 681 262.333 656 175 606 103 c 0
 602 96.3333 597.667 90.3333 593 85 c 0
 553 35 490.667 7 406 1 c 0
 392 0.333333 377.333 -2.71051e-20 362 0 c 2
 77 0 l 1
 77 339 l 1
227 339 m 1
 227 125 l 1
 362 125 l 2
 422 125 464.333 142 489 176 c 0
 489 176.667 489.667 177.667 491 179 c 0
 521.667 222.333 537 284 537 364 c 0
 537 444.667 521.667 506.667 491 550 c 0
 467 584.667 424 602.667 362 604 c 1
 227 604 l 1
 227 419 l 1
 377 419 l 1
 377 339 l 1
 227 339 l 1
EndSplineSet
EndChar
StartChar: multiply
Encoding: 215 215 151
Width: 584
Flags: W
Fore
421 444 m 1
 505 360 l 1
 376 231 l 1
 504 102 l 1
 420 18 l 1
 292 147 l 1
 164 19 l 1
 80 103 l 1
 208 231 l 1
 79 359 l 1
 163 444 l 1
 292 315 l 1
 421 444 l 1
EndSplineSet
EndChar
StartChar: Oslash
Encoding: 216 216 152
Width: 778
Flags: W
Fore
165 52 m 1
 82 -39 l 1
 31 7 l 1
 117 102 l 1
 62.3333 175.333 35 261 35 359 c 0
 35 461.667 63.3333 548.333 120 619 c 0
 129 630 129 630 138 640 c 0
 200.667 707.333 284 741 388 741 c 0
 475.333 741 549.333 715.667 610 665 c 0
 620 657 l 1
 703 749 l 1
 755 704 l 1
 666 605 l 1
 710.667 543.667 735 468.333 739 379 c 0
 739.667 372.333 740 365 740 357 c 0
 740 260.333 713.667 177 661 107 c 0
 653.667 96.3333 645.667 86.6667 637 78 c 0
 574.333 10.6667 491.333 -23 388 -23 c 0
 297.333 -23 223 2 165 52 c 1
567 497 m 1
 256 153 l 1
 289.333 121 333.333 105 388 105 c 0
 460.667 105 515.333 137 552 201 c 0
 577.333 243.667 590 297 590 361 c 0
 590 411 582.333 456.333 567 497 c 1
214 209 m 1
 528 555 l 1
 491.333 593.667 444.667 613 388 613 c 0
 313.333 613 258 580.333 222 515 c 1
 221.333 515 221 514.667 221 514 c 0
 197 471.333 185 418.667 185 356 c 0
 185 300.667 194.667 251.667 214 209 c 1
EndSplineSet
EndChar
StartChar: Thorn
Encoding: 222 222 158
Width: 667
Flags: W
Fore
226 140 m 1
 226 0 l 1
 76 0 l 1
 76 729 l 1
 226 729 l 1
 226 609 l 1
 398 609 l 2
 474 609 531.667 590.333 571 553 c 0
 612.333 513 633 456 633 382 c 0
 633 286.667 602 218 540 176 c 0
 504.667 152 462.333 140 413 140 c 2
 226 140 l 1
226 265 m 1
 366 265 l 2
 438.667 265 477.333 296.333 482 359 c 1
 483 374 l 1
 483 440.667 451 477 387 483 c 2
 366 484 l 1
 226 484 l 1
 226 265 l 1
EndSplineSet
EndChar
StartChar: germandbls
Encoding: 223 223 159
Width: 611
Flags: W
Fore
285 349 m 1
 285 444 l 1
 294 444 l 2
 341.333 444.667 372 462.667 386 498 c 1
 386 499 l 1
 386 500 l 1
 388.667 506 390.333 512.333 391 519 c 0
 391.667 523 392 527.667 392 533 c 0
 392 575 371.333 601.333 330 612 c 0
 318.667 614.667 306.667 616 294 616 c 0
 246 616 217.667 596.667 209 558 c 1
 209 557 l 1
 209 557 l 1
 207.667 551 207 544.333 207 537 c 2
 207 0 l 1
 67 0 l 1
 67 518 l 2
 67 592.667 87.3333 646.333 128 679 c 0
 167.333 710.333 225.667 727 303 729 c 1
 386.333 729 449.333 704.667 492 656 c 0
 518.667 625.333 532 589 532 547 c 0
 532 479 503 433.667 445 411 c 1
 475.667 405 502 391.667 524 371 c 0
 556 339.667 573 298.333 575 247 c 0
 575 242 575 242 575 236 c 0
 575 142.667 546.333 73 489 27 c 0
 453 -2.33333 409 -17 357 -17 c 0
 341.667 -17 317.667 -15 285 -11 c 1
 285 101 l 1
 298 102 l 1
 318 103 l 2
 364.667 103.667 398.333 123 419 161 c 0
 429.667 180.333 435 202 435 226 c 0
 435 281.333 410.667 318.667 362 338 c 0
 346 344.667 324.667 348.333 298 349 c 2
 285 349 l 1
EndSplineSet
EndChar
StartChar: ae
Encoding: 230 230 166
Width: 889
Flags: W
Fore
712 152 m 1
 850 152 l 1
 830 83.3333 787 33.6667 721 3 c 0
 684.333 -14.3333 644 -23 600 -23 c 0
 509.333 -23 442.667 11.6667 400 81 c 1
 344.667 16.3333 283 -18.3333 215 -23 c 0
 208.333 -23.6667 201.667 -24 195 -24 c 0
 125 -24 76 1.66667 48 53 c 0
 34 77.6667 27 107 27 141 c 0
 27 231.667 74 287.333 168 308 c 2
 186 312 l 1
 242 322 l 2
 287.333 329.333 315 335.333 325 340 c 2
 330 343 l 2
 345.333 351 353.333 364.333 354 383 c 0
 354 418.333 325.667 436 269 436 c 0
 223.667 436 195 423 183 397 c 0
 179 387.667 176 376 174 362 c 1
 43 362 l 1
 45 486.667 121 549 271 549 c 0
 349 549 407.333 532.333 446 499 c 1
 487.333 532.333 539 549 601 549 c 0
 690.333 549 758.333 516 805 450 c 1
 806 450 l 1
 818 432.667 828 413.333 836 392 c 0
 850 352.667 857 305.333 857 250 c 1
 856 226 l 1
 494 226 l 1
 494 184.667 500.667 153.667 514 133 c 0
 535.333 100.333 566.667 84 608 84 c 0
 646 84 675.667 97.6667 697 125 c 0
 704.333 133.667 709.333 142.667 712 152 c 1
354 216 m 1
 354 254 l 1
 339.333 245.333 319.667 239 295 235 c 2
 247 228 l 2
 194.333 221.333 167.667 197 167 155 c 0
 167 121 183.667 100 217 92 c 0
 223.667 90 232.333 89 243 89 c 0
 306.333 89 342.667 121 352 185 c 1
 354 216 l 1
495 319 m 1
 711 319 l 1
 703.667 401 667.333 442 602 442 c 0
 536.667 442 501 401 495 319 c 1
EndSplineSet
EndChar
StartChar: ccedilla
Encoding: 231 231 167
Width: 556
Flags: W
Fore
291 -23 m 1
 274 -63 l 1
 286 -58.3333 299.667 -56 315 -56 c 0
 355.667 -56 380.333 -72.3333 389 -105 c 1
 392 -127 l 1
 392 -177.667 362 -207.667 302 -217 c 0
 290 -219 277 -220 263 -220 c 0
 224.333 -220 178.333 -210.667 125 -192 c 1
 144 -140 l 1
 188.667 -160 223.333 -170 248 -170 c 0
 274.667 -170 292.667 -161.333 302 -144 c 1
 306 -129 l 1
 306 -112.333 295.667 -101.333 275 -96 c 2
 274 -96 l 1
 274 -96 l 1
 273 -96 l 1
 255 -94 l 1
 238.333 -94 221.667 -98 205 -106 c 1
 248 -21 l 1
 144 -7.66667 77.6667 48 49 146 c 0
 39 179.333 34 217 34 259 c 0
 34 383.667 73.6667 469.333 153 516 c 0
 191 538 236.333 549 289 549 c 0
 381 549 447.333 516.333 488 451 c 1
 500.667 429 510 404.667 516 378 c 1
 522 338 l 1
 388 338 l 1
 376.667 389.333 356.333 420 327 430 c 2
 326 430 l 2
 315.333 434 302.667 436 288 436 c 0
 246.667 436 217.667 420.667 201 390 c 0
 183 356.667 174 313.333 174 260 c 0
 174 199.333 186.667 153.667 212 123 c 0
 229.333 101.667 255 90.6667 289 90 c 0
 331 90 360.333 111 377 153 c 1
 388 187 l 1
 522 187 l 1
 515.333 112.333 483.333 55.6667 426 17 c 1
 387.333 -10.3333 342.333 -23.6667 291 -23 c 1
EndSplineSet
EndChar
StartChar: eth
Encoding: 240 240 176
Width: 611
Flags: W
Fore
432 710 m 1
 348 660 l 1
 473.333 575.333 545.333 470.333 564 345 c 0
 567.333 321 569 295.667 569 269 c 0
 569 148.333 530 63.6667 452 15 c 0
 410.667 -10.3333 360.667 -23 302 -23 c 0
 196.667 -23 121 16.3333 75 95 c 0
 48.3333 141 35 197.667 35 265 c 0
 35 374.333 72.6667 451.667 148 497 c 0
 188 521.667 230 534 274 534 c 0
 298 534 326.333 527.667 359 515 c 1
 332.333 557.667 300.667 589.667 264 611 c 1
 187 565 l 1
 145 602 l 1
 215 646 l 1
 189.667 661.333 159.667 677.333 125 694 c 1
 192 741 l 1
 215.333 732.333 244.333 718.333 279 699 c 1
 294 692 l 1
 381 744 l 1
 432 710 l 1
302 429 m 0
 252 429 216 404 194 354 c 0
 182 327.333 176 296 176 260 c 0
 176 187.333 197 137 239 109 c 0
 257.667 96.3333 278.667 90 302 90 c 0
 351.333 90 387.333 114.667 410 164 c 0
 422 190 428 221 428 257 c 0
 428 331.667 406.667 383 364 411 c 0
 346 423 325.333 429 302 429 c 0
EndSplineSet
EndChar
StartChar: divide
Encoding: 247 247 183
Width: 584
Flags: W
Fore
534 291 m 1
 534 172 l 1
 50 172 l 1
 50 291 l 1
 534 291 l 1
230 474 m 1
 354 474 l 1
 354 351 l 1
 230 351 l 1
 230 474 l 1
230 112 m 1
 354 112 l 1
 354 -11 l 1
 230 -11 l 1
 230 112 l 1
EndSplineSet
EndChar
StartChar: oslash
Encoding: 248 248 184
Width: 611
Flags: W
Fore
126 35 m 1
 54 -38 l 1
 11 2 l 1
 86 79 l 1
 52.6667 127 36 188.333 36 263 c 0
 36 375.667 73 456.667 147 506 c 0
 190.333 534.667 243 549 305 549 c 0
 376.333 549 437 528.333 487 487 c 1
 555 557 l 1
 598 516 l 1
 526 443 l 1
 557.333 394.333 573 334.333 573 263 c 0
 573 152.333 537 72 465 22 c 0
 421.667 -8 368.667 -23 306 -23 c 0
 236 -23 179 -6.33333 135 27 c 1
 126 35 l 1
421 336 m 1
 220 132 l 1
 244 104 272.667 90 306 90 c 0
 351.333 90 386 113 410 159 c 0
 425.333 187.667 433 221.333 433 260 c 0
 433 286.667 429 312 421 336 c 1
190 184 m 1
 392 390 l 1
 366 421.333 336.333 437 303 437 c 0
 256.333 437 221.333 413.333 198 366 c 0
 183.333 338 176 304.667 176 266 c 0
 176 235.333 180.667 208 190 184 c 1
EndSplineSet
EndChar
StartChar: thorn
Encoding: 254 254 190
Width: 611
Flags: W
Fore
198 729 m 1
 198 460 l 1
 231.333 519.333 281.333 549 348 549 c 0
 417.333 549 474 518.333 518 457 c 0
 555.333 404.333 574 339.333 574 262 c 0
 574 169.333 547.333 95.6667 494 41 c 0
 453.333 -1.66667 404.667 -23 348 -23 c 0
 281.333 -23 231.333 6 198 64 c 1
 198 -218 l 1
 58 -218 l 1
 58 729 l 1
 198 729 l 1
316 432 m 0
 271.333 432 238.333 408 217 360 c 0
 204.333 332.667 198 300 198 262 c 0
 198 192.667 217.333 143.333 256 114 c 0
 274 100.667 294 94 316 94 c 0
 359.333 94 392 116.667 414 162 c 0
 427.333 189.333 434 222 434 260 c 0
 434 332.667 414.333 383.667 375 413 c 0
 358.333 425.667 338.667 432 316 432 c 0
EndSplineSet
EndChar
StartChar: Aogonek
Encoding: 260 260 196
Width: 722
Flags: W
Fore
501 147 m 1
 228 147 l 1
 179 0 l 1
 26 0 l 1
 285 729 l 1
 452 729 l 1
 703 0 l 1
 647.667 -24 612 -56 596 -96 c 0
 592 -106.667 590 -117.667 590 -129 c 0
 590 -164.333 615.333 -182 666 -182 c 0
 684 -182 703 -180.333 723 -177 c 1
 723 -224 l 1
 699 -230 674 -233 648 -233 c 0
 568.667 -233 521 -211 505 -167 c 0
 501.667 -158.333 500 -148.667 500 -138 c 0
 500 -88 528.667 -47.6667 586 -17 c 2
 587 -16 l 1
 624 0 l 1
 549 0 l 1
 501 147 l 1
461 272 m 1
 366 557 l 1
 270 272 l 1
 461 272 l 1
EndSplineSet
EndChar
StartChar: aogonek
Encoding: 261 261 197
Width: 556
Flags: W
Fore
524 17 m 1
 524 0 l 1
 452 -38.6667 415.667 -81.6667 415 -129 c 0
 415 -164.333 440.333 -182 491 -182 c 0
 507.667 -182 526.667 -180.333 548 -177 c 1
 548 -224 l 1
 524 -230 499 -233 473 -233 c 0
 396.333 -233 349 -212.333 331 -171 c 0
 327 -161.667 325 -151 325 -139 c 0
 325 -91.6667 350.667 -52.6667 402 -22 c 0
 414 -14.6667 427 -8.33333 441 -3 c 0
 443.667 -1.66667 446.333 -0.666667 449 0 c 1
 372 0 l 1
 361.333 12.6667 356 30.6667 356 54 c 1
 306.667 2.66667 252 -23 192 -23 c 0
 140.667 -23 98.6667 -6 66 28 c 0
 40.6667 55.3333 28 92.3333 28 139 c 0
 28 234.333 81 291 187 309 c 2
 243 319 l 2
 288.333 326.333 316 332.333 326 337 c 2
 331 340 l 2
 346.333 348 354.333 362 355 382 c 0
 355 418 328 436 274 436 c 0
 228.667 436 199.667 425.333 187 404 c 1
 187 403 l 1
 181 393 177 379.333 175 362 c 1
 40 362 l 1
 48.6667 485.333 125.667 547.667 271 549 c 1
 417.667 549 491.333 493.667 492 383 c 1
 492 83 l 2
 492 60.3333 500.667 40.3333 518 23 c 2
 524 17 l 1
355 217 m 2
 355 255 l 1
 342.333 249 322.667 243.333 296 238 c 2
 248 229 l 2
 204 219.667 178.333 203 171 179 c 1
 171 178 l 1
 169 172 168 164.333 168 155 c 0
 168 122.333 184.333 101.667 217 93 c 0
 225 91 234 90 244 90 c 0
 302 90 337.333 117.667 350 173 c 0
 353.333 186.333 355 201 355 217 c 2
EndSplineSet
EndChar
StartChar: Dcroat
Encoding: 272 272 208
Width: 722
Flags: W
Fore
77 339 m 1
 0 339 l 1
 0 419 l 1
 77 419 l 1
 77 729 l 1
 362 729 l 2
 457.333 729 527.333 708.333 572 667 c 2
 585 654 l 1
 593 645 l 2
 644.333 580.333 673.333 498.333 680 399 c 1
 681 365 l 1
 681 262.333 656 175 606 103 c 0
 602 96.3333 597.667 90.3333 593 85 c 0
 553 35 490.667 7 406 1 c 0
 392 0.333333 377.333 -2.71051e-20 362 0 c 2
 77 0 l 1
 77 339 l 1
227 339 m 1
 227 125 l 1
 362 125 l 2
 422 125 464.333 142 489 176 c 0
 489 176.667 489.667 177.667 491 179 c 0
 521.667 222.333 537 284 537 364 c 0
 537 444.667 521.667 506.667 491 550 c 0
 467 584.667 424 602.667 362 604 c 1
 227 604 l 1
 227 419 l 1
 377 419 l 1
 377 339 l 1
 227 339 l 1
EndSplineSet
EndChar
StartChar: dcroat
Encoding: 273 273 209
Width: 611
Flags: W
Fore
405 596 m 1
 272 596 l 1
 272 663 l 1
 405 663 l 1
 405 729 l 1
 545 729 l 1
 545 663 l 1
 605 663 l 1
 605 596 l 1
 545 596 l 1
 545 0 l 1
 405 0 l 1
 405 55 l 1
 370.333 3 320.667 -23 256 -23 c 0
 188 -23 132 7 88 67 c 0
 48.6667 120.333 29 185.333 29 262 c 0
 29 353.333 55.3333 427 108 483 c 0
 149.333 527 198.667 549 256 549 c 0
 321.333 549 371 522.667 405 470 c 1
 405 596 l 1
287 432 m 0
 244.333 432 211.667 409 189 363 c 0
 175.667 334.333 169 300.667 169 262 c 0
 169 193.333 188 144.333 226 115 c 0
 244 101 264.333 94 287 94 c 0
 331.667 94 364.667 117.667 386 165 c 0
 398.667 191.667 405 223.333 405 260 c 0
 405 332.667 385.333 383.667 346 413 c 0
 329.333 425.667 309.667 432 287 432 c 0
EndSplineSet
EndChar
StartChar: Eogonek
Encoding: 280 280 216
Width: 667
Flags: W
Fore
229 314 m 1
 229 125 l 1
 624 125 l 1
 624 0 l 1
 552 -38.6667 515.667 -81.6667 515 -129 c 0
 515 -164.333 540.333 -182 591 -182 c 0
 609 -182 628 -180.333 648 -177 c 1
 648 -224 l 1
 621.333 -230 596.667 -233 574 -233 c 0
 493.333 -233 445 -210.667 429 -166 c 0
 426.333 -158 425 -148.667 425 -138 c 0
 425 -86.6667 462 -43 536 -7 c 2
 550 0 l 1
 79 0 l 1
 79 729 l 1
 606 729 l 1
 606 604 l 1
 229 604 l 1
 229 439 l 1
 578 439 l 1
 578 314 l 1
 229 314 l 1
EndSplineSet
EndChar
StartChar: eogonek
Encoding: 281 281 217
Width: 556
Flags: W
Fore
478 -177 m 1
 478 -224 l 1
 452 -230.667 425.667 -234 399 -234 c 0
 329 -234 284 -214.333 264 -175 c 0
 258 -164.333 255 -151.667 255 -137 c 0
 255 -104.333 272.333 -73.3333 307 -44 c 1
 307 -43 l 1
 308 -43 l 1
 350 -11 l 1
 319.333 -19.6667 292 -24 268 -24 c 0
 174.667 -24 106.333 12.3333 63 85 c 0
 35 131 21 188 21 256 c 0
 21 371.333 55.6667 454.333 125 505 c 0
 165 534.333 213.667 549 271 549 c 0
 353.667 549 418.667 519.667 466 461 c 0
 482 440.333 494.667 417.333 504 392 c 0
 518 352.667 525 305.333 525 250 c 1
 524 226 l 1
 162 226 l 1
 164 180.667 170.667 148.667 182 130 c 0
 202 98.6667 232.667 83 274 83 c 0
 325.333 83 360.333 104.667 379 148 c 0
 379 149.333 379.333 150.667 380 152 c 1
 518 152 l 1
 508.667 119.333 494 90.6667 474 66 c 0
 465.333 55.3333 452 40.3333 434 21 c 0
 384 -33.6667 355.333 -75.3333 348 -104 c 1
 345 -131 l 1
 345 -165.667 370.333 -183 421 -183 c 0
 440.333 -183 459.333 -181 478 -177 c 1
163 319 m 1
 379 319 l 1
 376.333 353 368.667 379 356 397 c 0
 335.333 427 306.667 442 270 442 c 0
 207.333 442 171.667 401 163 319 c 1
EndSplineSet
EndChar
StartChar: Hbar
Encoding: 294 294 230
Width: 722
Flags: W
Fore
507 331 m 1
 218 331 l 1
 218 0 l 1
 68 0 l 1
 68 729 l 1
 218 729 l 1
 218 456 l 1
 506 456 l 1
 506 729 l 1
 657 729 l 1
 657 0 l 1
 507 0 l 1
 507 331 l 1
EndSplineSet
EndChar
StartChar: hbar
Encoding: 295 295 231
Width: 611
Flags: W
Fore
67 729 m 1
 207 729 l 1
 207 462 l 1
 245.667 520 298.333 549 365 549 c 0
 413 549 453.333 535.333 486 508 c 0
 522.667 477.333 541 428.667 541 362 c 2
 541 0 l 1
 401 0 l 1
 401 330 l 2
 401 358.667 395.667 381 385 397 c 0
 369 419 345.667 430 315 430 c 0
 271 430 239.333 412.667 220 378 c 0
 211.333 362 207 344 207 324 c 2
 207 0 l 1
 67 0 l 1
 67 729 l 1
EndSplineSet
EndChar
StartChar: Iogonek
Encoding: 302 302 238
Width: 278
Flags: W
Fore
213 729 m 1
 213 0 l 1
 154.333 -42 124.667 -85.6667 124 -131 c 0
 124 -155 137 -171 163 -179 c 1
 187 -182 l 1
 235 -177 l 1
 237 -177 l 1
 237 -224 l 1
 211 -230 187.667 -233 167 -233 c 0
 103 -233 61.6667 -213.667 43 -175 c 0
 37 -163.667 34 -150.667 34 -136 c 0
 34 -85.3333 71.6667 -40 147 0 c 1
 63 0 l 1
 63 729 l 1
 213 729 l 1
EndSplineSet
EndChar
StartChar: iogonek
Encoding: 303 303 239
Width: 278
Flags: W
Fore
207 540 m 1
 207 0 l 1
 152.333 -38.6667 124.667 -81.3333 124 -128 c 0
 124 -148 131.333 -162.333 146 -171 c 0
 158 -178.333 171.667 -182 187 -182 c 1
 231 -177 l 1
 231 -224 l 1
 204.333 -230 183.333 -233 168 -233 c 0
 102 -233 60 -213.333 42 -174 c 0
 36.6667 -162.667 34 -150 34 -136 c 0
 34 -88.6667 70.6667 -43.3333 144 0 c 1
 67 0 l 1
 67 540 l 1
 207 540 l 1
207 729 m 1
 207 604 l 1
 67 604 l 1
 67 729 l 1
 207 729 l 1
EndSplineSet
EndChar
StartChar: dotlessi
Encoding: 305 305 241
Width: 278
Flags: W
Fore
207 540 m 1
 207 0 l 1
 67 0 l 1
 67 540 l 1
 207 540 l 1
EndSplineSet
EndChar
StartChar: jcircumflex
Encoding: 309 309 245
Width: 278
Flags: W
Fore
210 540 m 1
 210 -94 l 2
 210 -157.333 188.667 -196 146 -210 c 0
 130 -215.333 110.333 -218 87 -218 c 1
 4 -213 l 1
 4 -101 l 1
 28 -105 l 1
 29 -105 l 2
 52.3333 -105 65.6667 -96.3333 69 -79 c 1
 69 -78 l 1
 70 -63 l 1
 70 540 l 1
 210 540 l 1
89 783 m 1
 196 783 l 1
 299 633 l 1
 221 633 l 1
 139 733 l 1
 57 633 l 1
 -19 633 l 1
 89 783 l 1
EndSplineSet
EndChar
StartChar: Lslash
Encoding: 321 321 257
Width: 611
Flags: W
Fore
230 423 m 1
 395 535 l 1
 395 447 l 1
 230 334 l 1
 230 125 l 1
 597 125 l 1
 597 0 l 1
 80 0 l 1
 80 257 l 1
 0 201 l 1
 0 290 l 1
 80 346 l 1
 80 729 l 1
 230 729 l 1
 230 423 l 1
EndSplineSet
EndChar
StartChar: lslash
Encoding: 322 322 258
Width: 278
Flags: W
Fore
196 442 m 1
 252 482 l 1
 252 403 l 1
 196 363 l 1
 196 0 l 1
 56 0 l 1
 56 294 l 1
 0 254 l 1
 0 333 l 1
 56 373 l 1
 56 729 l 1
 196 729 l 1
 196 442 l 1
EndSplineSet
EndChar
StartChar: napostrophe
Encoding: 329 329 265
Width: 611
Flags: W
Fore
63 540 m 1
 203 540 l 1
 203 462 l 1
 239.667 516.667 289.333 545.667 352 549 c 0
 358 549 358 549 365 549 c 0
 449.667 549 505.333 515.333 532 448 c 0
 541.333 423.333 546 394.667 546 362 c 2
 546 0 l 1
 406 0 l 1
 406 333 l 2
 406 397.667 376 430 316 430 c 0
 266.667 430 232.667 411.333 214 374 c 0
 206.667 359.333 203 342.667 203 324 c 2
 203 0 l 1
 63 0 l 1
 63 540 l 1
EndSplineSet
EndChar
StartChar: Eng
Encoding: 330 330 266
Width: 722
Flags: W
Fore
511 0 m 1
 218 504 l 1
 218 0 l 1
 68 0 l 1
 68 729 l 1
 222 729 l 1
 511 233 l 1
 511 729 l 1
 661 729 l 1
 661 0 l 1
 511 0 l 1
EndSplineSet
EndChar
StartChar: eng
Encoding: 331 331 267
Width: 611
Flags: W
Fore
63 540 m 1
 203 540 l 1
 203 462 l 1
 239.667 516.667 289.333 545.667 352 549 c 0
 358 549 358 549 365 549 c 0
 449.667 549 505.333 515.333 532 448 c 0
 541.333 423.333 546 394.667 546 362 c 2
 546 0 l 1
 406 0 l 1
 406 333 l 2
 406 397.667 376 430 316 430 c 0
 266.667 430 232.667 411.333 214 374 c 0
 206.667 359.333 203 342.667 203 324 c 2
 203 0 l 1
 63 0 l 1
 63 540 l 1
EndSplineSet
EndChar
StartChar: OE
Encoding: 338 338 274
Width: 1000
Flags: W
Fore
624 314 m 1
 624 125 l 1
 970 125 l 1
 970 0 l 1
 480 0 l 1
 480 59 l 1
 446 16.3333 411.333 -9.33333 376 -18 c 0
 361.333 -21.3333 344.333 -23 325 -23 c 0
 237 -23 165 14 109 88 c 0
 55 158.667 28 249 28 359 c 0
 28 483 61 581 127 653 c 0
 181.667 711.667 249 741 329 741 c 0
 379 741 421.667 726.667 457 698 c 1
 480 677 l 1
 480 729 l 1
 951 729 l 1
 951 604 l 1
 624 604 l 1
 624 439 l 1
 923 439 l 1
 923 314 l 1
 624 314 l 1
474 178 m 1
 474 540 l 1
 448 586 412.333 610.333 367 613 c 2
 356 613 l 2
 292.667 613 244.667 581.667 212 519 c 0
 212 518.333 211.667 517.667 211 517 c 1
 211 517 l 1
 189 473.667 178 421 178 359 c 0
 178 261.667 203.333 190 254 144 c 0
 282.667 118 316.333 105 355 105 c 0
 405 105 443.333 127.333 470 172 c 0
 474 178 l 1
EndSplineSet
EndChar
StartChar: oe
Encoding: 339 339 275
Width: 944
Flags: W
Fore
776 152 m 1
 914 152 l 1
 893.333 83.3333 850.333 33.6667 785 3 c 0
 753.667 -11.6667 719.333 -20 682 -22 c 0
 676 -22.6667 670 -23 664 -23 c 0
 588.667 -23 529 2 485 52 c 1
 433.667 2 368.667 -23 290 -23 c 0
 186 -23 111 15.3333 65 92 c 0
 37 138 23 195 23 263 c 0
 23 375.667 59.6667 456.667 133 506 c 0
 175.667 534.667 228 549 290 549 c 0
 371.333 549 436.333 523.667 485 473 c 1
 528.333 523.667 588.333 549 665 549 c 0
 750.333 549 816.333 518.333 863 457 c 0
 878.333 437.667 890.333 416 899 392 c 0
 913 351.333 920 304 920 250 c 1
 919 226 l 1
 557 226 l 1
 557.667 184.667 564.667 153.333 578 132 c 0
 596.667 100.667 627.667 84.6667 671 84 c 0
 711 84 741.667 98.6667 763 128 c 0
 769 135.333 773.333 143.333 776 152 c 1
290 436 m 1
 241.333 436 205.667 411.333 183 362 c 0
 169.667 334 163 301 163 263 c 0
 163 192.333 183.333 141.667 224 111 c 0
 243.333 97 265.333 90 290 90 c 0
 336.667 90 371.667 113.333 395 160 c 0
 409.667 188.667 417 222.333 417 261 c 0
 417 336.333 395.667 388.333 353 417 c 0
 337 428.333 316 434.667 290 436 c 1
559 319 m 1
 774 319 l 1
 770.667 353.667 763 379.667 751 397 c 0
 731.667 425 703.333 440 666 442 c 1
 629.333 442 601.333 427.333 582 398 c 2
 576 388 l 1
 567.333 370.667 561.667 347.667 559 319 c 1
EndSplineSet
EndChar
StartChar: Scedilla
Encoding: 350 350 286
Width: 667
Flags: W
Fore
340 -23 m 1
 323 -62 l 1
 338.333 -58 352 -56 364 -56 c 0
 404.667 -56 429.333 -72.3333 438 -105 c 1
 441 -127 l 1
 441 -177.667 411 -207.667 351 -217 c 0
 339 -219 326 -220 312 -220 c 0
 274 -220 228 -210.667 174 -192 c 1
 193 -140 l 1
 238.333 -160 273.333 -170 298 -170 c 0
 324.667 -170 342.333 -161.333 351 -144 c 0
 353 -140 354.333 -135 355 -129 c 0
 355 -112.333 344.667 -101.333 324 -96 c 2
 323 -96 l 1
 323 -96 l 1
 322 -96 l 1
 304 -94 l 1
 288 -94 271.667 -98 255 -106 c 1
 297 -23 l 1
 157 -8.33333 72.6667 49.3333 44 150 c 0
 38 170.667 34 193.333 32 218 c 1
 178 218 l 1
 182 151.333 221 112 295 100 c 1
 342 97 l 1
 414 97 460 117 480 157 c 0
 486 168.333 489 181 489 195 c 0
 489 233.667 469.667 261.667 431 279 c 0
 411.667 287.667 385.333 295 352 301 c 2
 250 321 l 2
 154 339 92.6667 372.333 66 421 c 2
 65 422 l 1
 65 423 l 1
 64 424 l 2
 51.3333 448.667 45 479.667 45 517 c 0
 45 612.333 86.6667 678 170 714 c 0
 212 732 262.333 741 321 741 c 0
 427 741 505.333 713.333 556 658 c 0
 590 620.667 607 570.333 607 507 c 1
 467 507 l 1
 462.333 574.333 420.667 612 342 620 c 1
 314 621 l 2
 254 621 215 603.333 197 568 c 2
 196 567 l 2
 190.667 556.333 188 544.333 188 531 c 0
 188 500.333 202 478 230 464 c 0
 245.333 456 266.667 449 294 443 c 0
 294.667 443 295.333 442.667 296 442 c 2
 326 436 l 1
 440 414 l 2
 536.667 395.333 596.667 355.667 620 295 c 0
 628.667 272.333 633 245.333 633 214 c 0
 633 65.3333 535.333 -13.6667 340 -23 c 1
EndSplineSet
EndChar
StartChar: scedilla
Encoding: 351 351 287
Width: 556
Flags: W
Fore
283 -23 m 1
 264 -63 l 1
 278 -58.3333 292 -56 306 -56 c 0
 346 -56 370.333 -72 379 -104 c 0
 381 -110.667 382 -118.333 382 -127 c 0
 382 -177.667 352.333 -207.667 293 -217 c 0
 281.667 -219 268.667 -220 254 -220 c 0
 217.333 -220 173 -211.333 121 -194 c 0
 115 -192 l 1
 134 -140 l 1
 180 -160 215 -170 239 -170 c 0
 265.667 -170 283.333 -161.333 292 -144 c 0
 294 -140 295.333 -135 296 -129 c 0
 296 -112.333 285.667 -101.333 265 -96 c 2
 264 -96 l 1
 264 -96 l 1
 263 -96 l 1
 245 -94 l 1
 229 -94 212.667 -98 196 -106 c 1
 239 -22 l 1
 137.667 -10 73.6667 23.6667 47 79 c 0
 36.3333 100.333 30.3333 126.333 29 157 c 1
 166 157 l 1
 171.333 133 180.333 116 193 106 c 1
 212.333 93.3333 240 87 276 87 c 0
 336 87 370 101 378 129 c 0
 379.333 132.333 380 136 380 140 c 0
 380 157.333 369.667 170 349 178 c 0
 344.333 180 339 182 333 184 c 2
 166 236 l 2
 124.667 249.333 96.3333 263.333 81 278 c 2
 78 281 l 2
 58 303 48 332.333 48 369 c 0
 48 441 80 492.333 144 523 c 0
 178.667 540.333 220.667 549 270 549 c 0
 371.333 549 441 518.667 479 458 c 0
 495.667 432 504.333 401.333 505 366 c 1
 370 366 l 1
 369.333 414 335.667 438.333 269 439 c 0
 226.333 439 200.333 427.333 191 404 c 1
 191 403 l 1
 188 389 l 1
 188 374.333 196 363.333 212 356 c 2
 213 356 l 1
 237 347 l 1
 414 296 l 2
 484 275.333 519.333 230 520 160 c 0
 520 96 492.667 47 438 13 c 0
 400 -11 354.333 -23 301 -23 c 2
 283 -23 l 1
EndSplineSet
EndChar
StartChar: Tbar
Encoding: 358 358 294
Width: 611
Flags: W
Fore
385 604 m 1
 385 0 l 1
 235 0 l 1
 235 604 l 1
 14 604 l 1
 14 729 l 1
 598 729 l 1
 598 604 l 1
 385 604 l 1
EndSplineSet
EndChar
StartChar: tbar
Encoding: 359 359 295
Width: 333
Flags: W
Fore
301 529 m 1
 301 436 l 1
 223 436 l 1
 223 142 l 2
 223 111.333 229 93 241 87 c 2
 242 87 l 2
 248 84.3333 257 83 269 83 c 1
 301 86 l 1
 301 -12 l 1
 278.333 -19.3333 251.333 -23 220 -23 c 0
 129.333 -23 83.6667 19.3333 83 104 c 1
 83 436 l 1
 14 436 l 1
 14 529 l 1
 83 529 l 1
 83 674 l 1
 223 674 l 1
 223 529 l 1
 301 529 l 1
EndSplineSet
EndChar
StartChar: Uogonek
Encoding: 370 370 306
Width: 722
Flags: W
Fore
597 -177 m 1
 597 -224 l 1
 571 -230.667 544.333 -234 517 -234 c 0
 490.333 -234 465 -230 441 -222 c 0
 396.333 -207.333 373.667 -179.333 373 -138 c 0
 373 -102 392.667 -68.6667 432 -38 c 2
 433 -38 l 1
 477 -7 l 1
 437.667 -17.6667 401.333 -23 368 -23 c 0
 275.333 -23 201.667 1.66667 147 51 c 0
 99.6667 93 76 154.333 76 235 c 2
 76 729 l 1
 226 729 l 1
 226 235 l 2
 226 151 272.333 107.667 365 105 c 1
 455 105 501.333 148.333 504 235 c 1
 504 729 l 1
 654 729 l 1
 654 235 l 2
 654 169.667 636.667 114.333 602 69 c 0
 590.667 55 565.667 27.6667 527 -13 c 0
 483.667 -59.6667 462 -99.3333 462 -132 c 0
 462 -166 487.667 -183 539 -183 c 0
 558.333 -183 577.667 -181 597 -177 c 1
EndSplineSet
EndChar
StartChar: uogonek
Encoding: 371 371 307
Width: 611
Flags: W
Fore
465 0 m 1
 401 0 l 1
 401 64 l 1
 364.333 9.33333 314.667 -19.6667 252 -23 c 2
 239 -23 l 2
 154.333 -23 98.6667 10.6667 72 78 c 0
 62.6667 102.667 58 131.333 58 164 c 2
 58 540 l 1
 198 540 l 1
 198 193 l 2
 198 128.333 228 96 288 96 c 0
 336.667 96 370.333 114.333 389 151 c 0
 397 165.667 401 182.667 401 202 c 2
 401 540 l 1
 541 540 l 1
 541 0 l 1
 467.667 -37.3333 430.667 -80.3333 430 -129 c 0
 430 -164.333 455.333 -182 506 -182 c 0
 522.667 -182 540.667 -180.667 560 -178 c 2
 561 -177 l 1
 564 -177 l 1
 564 -224 l 1
 540 -230 515 -233 489 -233 c 0
 410.333 -233 362.667 -211.667 346 -169 c 0
 342 -159.667 340 -149.333 340 -138 c 0
 340 -100 358.667 -66.3333 396 -37 c 0
 403.333 -31 411 -25.6667 419 -21 c 0
 428.333 -15 443.667 -8 465 0 c 1
EndSplineSet
EndChar
StartChar: longs
Encoding: 383 383 319
Width: 333
Flags: W
Fore
230 0 m 1
 90 0 l 1
 90 436 l 1
 14 436 l 1
 14 529 l 1
 90 529 l 1
 90 594 l 2
 90 684 136 729 228 729 c 1
 308 726 l 1
 308 621 l 1
 268 624 l 1
 244 624 231.333 610 230 582 c 1
 230 0 l 1
EndSplineSet
EndChar
StartChar: florin
Encoding: 402 402 320
Width: 556
Flags: W
Fore
500 480 m 1
 500 383 l 1
 363 383 l 1
 304 1 l 2
 291.333 -81.6667 268.667 -139.333 236 -172 c 0
 204 -204 162.333 -220 111 -220 c 0
 79.6667 -220 49.6667 -212.667 21 -198 c 1
 45 -83 l 1
 68.3333 -97 87.3333 -104 102 -104 c 0
 125.333 -104 142.333 -88.3333 153 -57 c 0
 158.333 -41.6667 163 -20.3333 167 7 c 1
 227 383 l 1
 104 383 l 1
 104 480 l 1
 242 480 l 1
 253 539 l 1
 271 650.333 314 716 382 736 c 0
 398.667 741.333 417.667 744 439 744 c 0
 465.667 744 497.667 738.333 535 727 c 1
 515 612 l 1
 491 622.667 472.667 628 460 628 c 0
 421.333 628 396 593 384 523 c 1
 384 522 l 1
 384 521 l 1
 377 480 l 1
 500 480 l 1
EndSplineSet
EndChar
StartChar: circumflex
Encoding: 710 710 325
Width: 333
Flags: W
Fore
116 757 m 1
 223 757 l 1
 326 607 l 1
 248 607 l 1
 166 707 l 1
 84 607 l 1
 8 607 l 1
 116 757 l 1
EndSplineSet
EndChar
StartChar: caron
Encoding: 711 711 326
Width: 333
Flags: W
Fore
219 607 m 1
 112 607 l 1
 9 757 l 1
 87 757 l 1
 169 660 l 1
 251 757 l 1
 327 757 l 1
 219 607 l 1
EndSplineSet
EndChar
StartChar: breve
Encoding: 728 728 327
Width: 333
Flags: W
Fore
299 748 m 1
 299 737 l 2
 299 689.667 280 653 242 627 c 0
 220 612.333 195 605 167 605 c 0
 119 605 82.3333 624 57 662 c 1
 57 663 l 1
 42.3333 685 35 710 35 738 c 2
 35 748 l 1
 91 748 l 1
 97 704 122.667 682 168 682 c 0
 208.667 682 233.333 701.667 242 741 c 1
 243 748 l 1
 299 748 l 1
EndSplineSet
EndChar
StartChar: dotaccent
Encoding: 729 729 328
Width: 333
Flags: W
Fore
222 743 m 1
 222 621 l 1
 112 621 l 1
 112 743 l 1
 222 743 l 1
EndSplineSet
EndChar
StartChar: ring
Encoding: 730 730 329
Width: 333
Flags: W
Fore
168 770 m 0
 202 770 227.667 755.333 245 726 c 0
 253 712 257 696.333 257 679 c 0
 257 645.667 242.333 620.333 213 603 c 0
 199 594.333 183.667 590 167 590 c 0
 133 590 107.333 604.333 90 633 c 2
 89 634 l 1
 89 635 l 1
 81.6667 648.333 77.6667 663.333 77 680 c 0
 77 714 91.6667 739.667 121 757 c 0
 135 765.667 150.667 770 168 770 c 0
168 722 m 1
 148.667 722 135.333 713 128 695 c 1
 125 680 l 1
 125 661.333 133.667 648.333 151 641 c 1
 168 638 l 1
 185.333 638 197.667 646.333 205 663 c 1
 206 664 l 1
 209 680 l 1
 209 698.667 200.333 711.667 183 719 c 1
 168 722 l 1
EndSplineSet
EndChar
StartChar: ogonek
Encoding: 731 731 330
Width: 333
Flags: W
Fore
169 0 m 1
 244 0 l 1
 189.333 -34 156 -63.3333 144 -88 c 0
 138 -100.667 135 -115.667 135 -133 c 0
 135 -166.333 160.333 -183 211 -183 c 0
 231 -183 250 -181 268 -177 c 1
 268 -224 l 1
 242 -230.667 215.667 -234 189 -234 c 0
 119.667 -234 74.6667 -215 54 -177 c 0
 48 -165.667 45 -153 45 -139 c 0
 45 -90.3333 72 -50.6667 126 -20 c 0
 139.333 -12 153.667 -5.33333 169 0 c 1
EndSplineSet
EndChar
StartChar: tilde
Encoding: 732 732 331
Width: 333
Flags: W
Fore
282 749 m 1
 345 749 l 1
 341 664.333 309.333 622 250 622 c 0
 234 622 215.667 626 195 634 c 2
 124 660 l 2
 112 664 102 666 94 666 c 0
 74 666 61.3333 654.333 56 631 c 0
 54 621 l 1
 -9 621 l 1
 -5.66667 686.333 16.3333 726 57 740 c 0
 65.6667 743.333 75 745 85 745 c 0
 98.3333 745 115.667 741 137 733 c 2
 141 732 l 1
 212 707 l 2
 221.333 703 232.667 701 246 701 c 0
 267.333 701 279.333 717 282 749 c 1
EndSplineSet
EndChar
StartChar: hungarumlaut
Encoding: 733 733 332
Width: 333
Flags: W
Fore
152 757 m 1
 26 610 l 1
 -44 610 l 1
 26 757 l 1
 152 757 l 1
340 757 m 1
 214 610 l 1
 144 610 l 1
 214 757 l 1
 340 757 l 1
EndSplineSet
EndChar
StartChar: dieresistonos
Encoding: 901 901 333
Width: 494
Flags: W
Fore
434 745 m 1
 279 557 l 1
 157 557 l 1
 247 745 l 1
 434 745 l 1
374 403 m 1
 232 403 l 1
 232 553 l 1
 374 553 l 1
 374 403 l 1
192 403 m 1
 50 403 l 1
 50 553 l 1
 192 553 l 1
 192 403 l 1
EndSplineSet
EndChar
StartChar: Alphatonos
Encoding: 902 902 334
Width: 764
Flags: W
Fore
725 -25 m 1
 565 -25 l 1
 481 193 l 1
 216 193 l 1
 138 -25 l 1
 -18 -25 l 1
 277 741 l 1
 412 741 l 1
 725 -25 l 1
346 549 m 1
 327 496 l 1
 262 319 l 1
 432 319 l 1
 371 483 l 1
 360 512 l 1
 346 549 l 1
244 739 m 1
 89 551 l 1
 -33 551 l 1
 57 739 l 1
 244 739 l 1
EndSplineSet
EndChar
StartChar: anoteleia
Encoding: 903 903 335
Width: 474
Flags: W
Fore
357 350 m 0
 357 326 351.667 302.333 341 279 c 1
 328.333 255 311 236.333 289 223 c 1
 268.333 208.333 241.333 201 208 201 c 0
 175.333 201 148.667 208.333 128 223 c 1
 104.667 237 87 255.667 75 279 c 0
 64.3333 301.667 59 325.333 59 350 c 0
 59 374 64.3333 397.667 75 421 c 0
 86.3333 445 104 464.333 128 479 c 0
 151.333 492.333 178 499 208 499 c 0
 238.667 499 265.667 492.333 289 479 c 1
 313 463 330.333 443.667 341 421 c 0
 351 399 356.333 375.333 357 350 c 0
EndSplineSet
EndChar
StartChar: Epsilontonos
Encoding: 904 904 336
Width: 866
Flags: W
Fore
247 739 m 1
 92 551 l 1
 -30 551 l 1
 60 739 l 1
 247 739 l 1
791 -25 m 1
 207 -25 l 1
 207 741 l 1
 775 741 l 1
 775 607 l 1
 351 607 l 1
 351 437 l 1
 747 437 l 1
 747 303 l 1
 351 303 l 1
 351 109 l 1
 791 109 l 1
 791 -25 l 1
EndSplineSet
EndChar
StartChar: Etatonos
Encoding: 905 905 337
Width: 903
Flags: W
Fore
244 739 m 1
 89 551 l 1
 -33 551 l 1
 57 739 l 1
 244 739 l 1
814 -25 m 1
 670 -25 l 1
 670 313 l 1
 348 313 l 1
 348 -25 l 1
 204 -25 l 1
 204 741 l 1
 348 741 l 1
 348 447 l 1
 670 447 l 1
 670 741 l 1
 814 741 l 1
 814 -25 l 1
EndSplineSet
EndChar
StartChar: Iotatonos
Encoding: 906 906 338
Width: 430
Flags: W
Fore
245 747 m 1
 90 559 l 1
 -32 559 l 1
 58 747 l 1
 245 747 l 1
349 -23 m 1
 205 -23 l 1
 205 743 l 1
 349 743 l 1
 349 -23 l 1
EndSplineSet
EndChar
StartChar: Omicrontonos
Encoding: 908 908 339
Width: 898
Flags: W
Fore
236 749 m 1
 81 561 l 1
 -41 561 l 1
 49 749 l 1
 236 749 l 1
860 358 m 0
 860 230 826 130 758 58 c 0
 690 -14.6667 601.667 -51 493 -51 c 128
 384.333 -51 296 -14.6667 228 58 c 0
 160 130 126 230 126 358 c 0
 126 483.333 160 582 228 654 c 1
 294.667 726.667 383 763 493 763 c 0
 603 763 691.333 726.667 758 654 c 1
 826 582 860 483.333 860 358 c 0
714 356 m 0
 714 456 692 527 648 569 c 0
 603.333 610.333 551.667 631 493 631 c 0
 435.667 631 384 610.333 338 569 c 1
 294 527 272 456 272 356 c 128
 272 256 294 185 338 143 c 1
 383.333 101.667 435 81 493 81 c 0
 551.667 81 603.333 101.667 648 143 c 0
 692 185 714 256 714 356 c 0
EndSplineSet
EndChar
StartChar: Upsilontonos
Encoding: 910 910 340
Width: 965
Flags: W
Fore
243 741 m 1
 88 553 l 1
 -34 553 l 1
 56 741 l 1
 243 741 l 1
924 741 m 1
 615 296 l 1
 615 -25 l 1
 471 -25 l 1
 471 296 l 1
 173 741 l 1
 348 741 l 1
 497 514 l 1
 549 429 l 1
 605 520 l 1
 752 741 l 1
 924 741 l 1
EndSplineSet
EndChar
StartChar: Omegatonos
Encoding: 911 911 341
Width: 844
Flags: W
Fore
249 745 m 1
 94 557 l 1
 -28 557 l 1
 62 745 l 1
 249 745 l 1
787 -25 m 1
 463 -25 l 1
 463 96 l 1
 529 123.333 576.333 160.333 605 207 c 0
 633 253.667 647 310 647 376 c 2
 647 384 l 2
 647 446.667 626.333 502.667 585 552 c 1
 545 598 492.667 621 428 621 c 0
 365.333 621 315.667 597.667 279 551 c 0
 239.667 501.667 220 443 220 375 c 1
 219 368 l 1
 219 306 232.333 253.333 259 210 c 1
 285 162.667 329 125 391 97 c 1
 391 -25 l 1
 77 -25 l 1
 77 101 l 1
 199 101 l 1
 169 127.667 144.667 156.667 126 188 c 1
 100 236 86.3333 299 85 377 c 1
 83 379 l 1
 83 477 115.333 562.333 180 635 c 1
 244.667 709.667 326.667 747 426 747 c 0
 531.333 747 618 711 686 639 c 0
 753.333 567.667 787 484 787 388 c 0
 787 303.333 772.667 236.333 744 187 c 0
 726 155.667 701 127 669 101 c 1
 787 101 l 1
 787 -25 l 1
EndSplineSet
EndChar
StartChar: Alpha
Encoding: 913 913 342
Width: 764
Flags: W
Fore
725 -25 m 1
 565 -25 l 1
 481 193 l 1
 216 193 l 1
 138 -25 l 1
 -18 -25 l 1
 277 741 l 1
 412 741 l 1
 725 -25 l 1
346 549 m 1
 327 496 l 1
 262 319 l 1
 432 319 l 1
 371 483 l 1
 360 512 l 1
 346 549 l 1
EndSplineSet
EndChar
StartChar: Beta
Encoding: 914 914 343
Width: 688
Flags: W
Fore
640 212 m 0
 640 190.667 637.667 171.333 633 154 c 0
 619 99.3333 593 57.3333 555 28 c 0
 509.667 -7.33333 440 -25 346 -25 c 2
 49 -25 l 1
 49 741 l 1
 342 741 l 2
 387.333 741 428.667 735 466 723 c 1
 500 710.333 527.667 694 549 674 c 1
 570.333 652.667 585 630 593 606 c 128
 601 582 605 558 605 534 c 0
 605 497.333 595.333 463.667 576 433 c 0
 562 412.333 548.333 396.667 535 386 c 1
 551 377 l 1
 609.667 336.333 639.333 281.333 640 212 c 0
461 522 m 0
 461 540 456.667 556.333 448 571 c 0
 439.333 585.667 426.667 595 410 599 c 0
 386 604.333 353.333 607 312 607 c 2
 193 607 l 1
 193 441 l 1
 324 441 l 2
 365.333 441 393 443.333 407 448 c 0
 442.333 458 460.333 482.667 461 522 c 0
491 208 m 0
 491 230.667 485.667 249.333 475 264 c 0
 463.667 278 448.667 288 430 294 c 0
 409.333 301.333 377.333 305 334 305 c 2
 193 305 l 1
 193 109 l 1
 346 109 l 1
 379 110 l 1
 453 116 490.333 148.667 491 208 c 0
EndSplineSet
EndChar
StartChar: Gamma
Encoding: 915 915 344
Width: 642
Flags: W
Fore
591 607 m 1
 203 607 l 1
 203 -25 l 1
 57 -25 l 1
 57 741 l 1
 591 741 l 1
 591 607 l 1
EndSplineSet
EndChar
StartChar: Delta
Encoding: 916 916 345
Width: 744
Flags: W
Fore
721 -26 m 1
 581 -23 l 1
 -24 -26 l 1
 272 741 l 1
 407 741 l 1
 721 -26 l 1
509 109 m 1
 366 483 l 1
 331 578 l 1
 327 587.333 321 606.333 313 635 c 1
 362 638 l 1
 360 621.333 354.667 597.333 346 566 c 1
 323 496 l 1
 183 109 l 1
 509 109 l 1
EndSplineSet
EndChar
StartChar: Epsilon
Encoding: 917 917 346
Width: 710
Flags: W
Fore
639 -25 m 1
 55 -25 l 1
 55 741 l 1
 623 741 l 1
 623 607 l 1
 199 607 l 1
 199 437 l 1
 595 437 l 1
 595 303 l 1
 199 303 l 1
 199 109 l 1
 639 109 l 1
 639 -25 l 1
EndSplineSet
EndChar
StartChar: Zeta
Encoding: 918 918 347
Width: 688
Flags: W
Fore
626 -25 m 1
 10 -25 l 1
 10 97 l 1
 383 562 l 1
 420 607 l 1
 52 607 l 1
 52 741 l 1
 614 741 l 1
 614 623 l 1
 206 120 l 1
 197 109 l 1
 626 109 l 1
 626 -25 l 1
EndSplineSet
EndChar
StartChar: Eta
Encoding: 919 919 348
Width: 743
Flags: W
Fore
650 -25 m 1
 506 -25 l 1
 506 313 l 1
 184 313 l 1
 184 -25 l 1
 40 -25 l 1
 40 741 l 1
 184 741 l 1
 184 447 l 1
 506 447 l 1
 506 741 l 1
 650 741 l 1
 650 -25 l 1
EndSplineSet
EndChar
StartChar: Theta
Encoding: 920 920 349
Width: 810
Flags: W
Fore
754 358 m 0
 754 279.333 738 210 706 150 c 0
 675.333 92 631 45.6667 573 11 c 0
 517.667 -21 455.667 -37 387 -37 c 0
 326.333 -37 267.667 -24 211 2 c 1
 151.667 31.3333 105.667 74.3333 73 131 c 1
 37.6667 189 20 262 20 350 c 0
 20 410 28.6667 466 46 518 c 1
 64.6667 570 90 612.667 122 646 c 1
 154 682 193 709 239 727 c 1
 283 745.667 332.333 755 387 755 c 0
 433.667 755 478 747.667 520 733 c 0
 565.333 716.333 605 692 639 660 c 0
 675.667 626.667 703.667 584.667 723 534 c 1
 743.667 484 754 425.333 754 358 c 0
606 358 m 0
 606 398.667 600.667 436 590 470 c 0
 580 501.333 565.333 529 546 553 c 0
 526.667 575.667 503.667 593 477 605 c 0
 449 617 419 623 387 623 c 0
 353 623 322 617 294 605 c 0
 267.333 593.667 244.667 576.667 226 554 c 0
 206.667 530.667 192 502.333 182 469 c 0
 171.333 432.333 166 392 166 348 c 0
 166 308.667 171.667 273 183 241 c 1
 191.667 212.333 207 186 229 162 c 1
 247.667 139.333 270.667 122.667 298 112 c 0
 324 100.667 353 95 385 95 c 0
 428.333 95 466.667 105 500 125 c 0
 534 145.667 560 175.333 578 214 c 0
 596.667 252 606 300 606 358 c 0
578 303 m 1
 192 303 l 1
 192 437 l 1
 578 437 l 1
 578 303 l 1
EndSplineSet
EndChar
StartChar: Iota
Encoding: 921 921 350
Width: 296
Flags: W
Fore
188 -25 m 1
 44 -25 l 1
 44 741 l 1
 188 741 l 1
 188 -25 l 1
EndSplineSet
EndChar
StartChar: Kappa
Encoding: 922 922 351
Width: 744
Flags: W
Fore
716 -25 m 1
 527 -25 l 1
 279 323 l 1
 193 237 l 1
 193 -25 l 1
 49 -25 l 1
 49 741 l 1
 193 741 l 1
 193 423 l 1
 511 741 l 1
 703 741 l 1
 385 423 l 1
 716 -25 l 1
EndSplineSet
EndChar
StartChar: Lambda
Encoding: 923 923 352
Width: 744
Flags: W
Fore
715 -25 m 1
 555 -25 l 1
 361 483 l 1
 326 578 l 1
 320.667 588.667 314.667 607.667 308 635 c 1
 357 638 l 1
 353.667 616 348.333 592 341 566 c 1
 317 496 l 1
 127 -25 l 1
 -28 -25 l 1
 267 741 l 1
 402 741 l 1
 715 -25 l 1
EndSplineSet
EndChar
StartChar: Mu
Encoding: 924 924 353
Width: 860
Flags: W
Fore
773 -25 m 1
 631 -25 l 1
 631 451 l 1
 466 -25 l 1
 344 -25 l 1
 181 457 l 1
 181 -25 l 1
 39 -25 l 1
 39 741 l 1
 226 741 l 1
 399 219 l 1
 413 179 l 1
 422 153 l 1
 425 145 l 1
 426 141 l 1
 415 197 l 1
 424 226 l 1
 602 741 l 1
 773 741 l 1
 773 -25 l 1
EndSplineSet
EndChar
StartChar: Nu
Encoding: 925 925 354
Width: 714
Flags: W
Fore
645 -25 m 1
 510 -25 l 1
 173 479 l 1
 173 -25 l 1
 31 -25 l 1
 31 741 l 1
 168 741 l 1
 505 237 l 1
 505 741 l 1
 645 741 l 1
 645 -25 l 1
EndSplineSet
EndChar
StartChar: Xi
Encoding: 926 926 355
Width: 690
Flags: W
Fore
613 607 m 1
 45 607 l 1
 45 741 l 1
 613 741 l 1
 613 607 l 1
557 301 m 1
 107 301 l 1
 107 435 l 1
 557 435 l 1
 557 301 l 1
629 -25 m 1
 45 -25 l 1
 45 109 l 1
 629 109 l 1
 629 -25 l 1
EndSplineSet
EndChar
StartChar: Omicron
Encoding: 927 927 356
Width: 822
Flags: W
Fore
754 358 m 0
 754 230 720 130 652 58 c 0
 584 -14.6667 495.667 -51 387 -51 c 0
 277 -51 188.667 -14.6667 122 58 c 1
 54 130 20 230 20 358 c 0
 20 483.333 54 582 122 654 c 1
 188.667 726.667 277 763 387 763 c 0
 497 763 585.333 726.667 652 654 c 1
 720 582 754 483.333 754 358 c 0
608 356 m 0
 608 456 586 527 542 569 c 0
 497.333 610.333 445.667 631 387 631 c 128
 328.333 631 276.667 610.333 232 569 c 0
 188 527 166 456 166 356 c 128
 166 256 188 185 232 143 c 0
 276.667 101.667 328.333 81 387 81 c 128
 445.667 81 497.333 101.667 542 143 c 0
 586 185 608 256 608 356 c 0
EndSplineSet
EndChar
StartChar: Pi
Encoding: 928 928 357
Width: 781
Flags: W
Fore
665 -25 m 1
 521 -25 l 1
 521 607 l 1
 199 607 l 1
 199 -25 l 1
 55 -25 l 1
 55 741 l 1
 665 741 l 1
 665 -25 l 1
EndSplineSet
EndChar
StartChar: Rho
Encoding: 929 929 358
Width: 698
Flags: W
Fore
649 510 m 0
 649 463.333 639.667 422.667 621 388 c 0
 601.667 350 569.667 320 525 298 c 0
 481 277.333 424.667 267 356 267 c 2
 197 267 l 1
 197 -25 l 1
 53 -25 l 1
 53 741 l 1
 348 741 l 2
 402.667 741 442.667 738.667 468 734 c 0
 510.667 726 545.667 710 573 686 c 0
 600.333 662.667 619.667 635.333 631 604 c 0
 643 574 649 542.667 649 510 c 0
501 506 m 0
 501 557.333 479.667 589.333 437 602 c 1
 418.333 605.333 391.333 607 356 607 c 2
 197 607 l 1
 197 401 l 1
 358 401 l 2
 410 401 447.667 410 471 428 c 0
 491 442.667 501 468.667 501 506 c 0
EndSplineSet
EndChar
StartChar: Sigma
Encoding: 931 931 359
Width: 688
Flags: W
Fore
631 -25 m 1
 15 -25 l 1
 15 98 l 1
 244 386 l 1
 49 625 l 1
 49 743 l 1
 611 743 l 1
 611 609 l 1
 243 609 l 1
 261 586 l 1
 279 564 l 1
 425 386 l 1
 211 120 l 1
 202 109 l 1
 631 109 l 1
 631 -25 l 1
EndSplineSet
EndChar
StartChar: Tau
Encoding: 932 932 360
Width: 688
Flags: W
Fore
632 607 m 1
 394 607 l 1
 394 -25 l 1
 250 -25 l 1
 250 607 l 1
 14 607 l 1
 14 741 l 1
 632 741 l 1
 632 607 l 1
EndSplineSet
EndChar
StartChar: Upsilon
Encoding: 933 933 361
Width: 744
Flags: W
Fore
718 741 m 1
 409 296 l 1
 409 -25 l 1
 265 -25 l 1
 265 296 l 1
 -33 741 l 1
 142 741 l 1
 291 514 l 1
 343 429 l 1
 399 520 l 1
 546 741 l 1
 718 741 l 1
EndSplineSet
EndChar
StartChar: Phi
Encoding: 934 934 362
Width: 777
Flags: W
Fore
713 353 m 0
 713 263 683 189.667 623 133 c 1
 571 81.6667 505 53.6667 425 49 c 1
 425 -25 l 1
 292 -25 l 1
 292 49 l 1
 212 53.6667 146 81.6667 94 133 c 1
 34 189.667 4 263 4 353 c 0
 4 397 11.6667 438 27 476 c 0
 42.3333 513.333 64.6667 546.667 94 576 c 0
 147.333 628 213.667 656.667 293 662 c 1
 293 745 l 1
 424 745 l 1
 424 662 l 1
 503.333 656.667 569.333 628 622 576 c 0
 682.667 515.333 713 441 713 353 c 0
572 358 m 0
 572 409.333 555.667 451 523 483 c 0
 497 509 464.333 526.667 425 536 c 1
 425 171 l 1
 463 179.667 496 198 524 226 c 1
 556 260 572 304 572 358 c 0
292 171 m 1
 292 536 l 1
 253.333 526.667 220.667 509 194 483 c 0
 161.333 452.333 145 410.667 145 358 c 0
 145 304 161 260 193 226 c 1
 220.333 198.667 253.333 180.333 292 171 c 1
EndSplineSet
EndChar
StartChar: Chi
Encoding: 935 935 363
Width: 783
Flags: W
Fore
736 -25 m 1
 557 -25 l 1
 368 242 l 1
 358 258 l 1
 365 268 l 1
 366 270 l 1
 359 259 l 1
 349 244 l 2
 345.667 238.667 343.667 235.667 343 235 c 2
 156 -25 l 1
 -21 -25 l 1
 276 374 l 1
 14 741 l 1
 187 741 l 1
 325 547 l 1
 345 520 l 1
 361 497 l 1
 363 492 l 1
 366 497 l 2
 367.333 499 368.333 500 369 500 c 1
 371 503 l 1
 399 541 l 1
 551 741 l 1
 717 741 l 1
 446 378 l 1
 736 -25 l 1
EndSplineSet
EndChar
StartChar: Psi
Encoding: 936 936 364
Width: 805
Flags: W
Fore
719 368 m 2
 719 301.333 704 248.667 674 210 c 0
 643.333 169.333 604 143 556 131 c 1
 533.333 124.333 496 121 444 121 c 2
 445 121 l 1
 445 -27 l 1
 301 -27 l 1
 301 121 l 1
 302 121 l 2
 249.333 121 211.667 124.333 189 131 c 1
 159 137.667 131.333 151.667 106 173 c 0
 82 193 62.6667 219.667 48 253 c 0
 34 283.667 27 322 27 368 c 2
 27 746 l 1
 167 742 l 1
 167 380 l 2
 167 347.333 171.333 322 180 304 c 0
 186.667 288 199.333 276 218 268 c 0
 238 258.667 266.667 254 304 254 c 2
 305 254 l 1
 305 743 l 1
 441 743 l 1
 441 254 l 1
 442 254 l 2
 477.333 254 506 258.667 528 268 c 0
 546 275.333 558.667 287.333 566 304 c 0
 574.667 322 579 347.333 579 380 c 2
 579 742 l 1
 719 746 l 1
 719 368 l 2
EndSplineSet
EndChar
StartChar: Omega
Encoding: 937 937 365
Width: 780
Flags: W
Fore
729 370 m 0
 729 300 714 239 684 187 c 0
 664.667 154.333 639.667 125.667 609 101 c 1
 727 101 l 1
 727 -25 l 1
 403 -25 l 1
 403 96 l 1
 469 123.333 516.333 160.333 545 207 c 0
 573.667 255 588 308.667 588 368 c 0
 588 402 583 434 573 464 c 0
 562.333 496 548 523.667 530 547 c 0
 511.333 570.333 488.333 588.333 461 601 c 0
 433 614.333 402 621 368 621 c 0
 324.667 621 287.667 609.333 257 586 c 0
 225 562 200.667 530.667 184 492 c 0
 167.333 454 159 411.667 159 365 c 0
 159 307.667 172.333 256 199 210 c 1
 225 161.333 269 123.667 331 97 c 1
 331 -25 l 1
 17 -25 l 1
 17 101 l 1
 139 101 l 1
 109 127.667 84.6667 156.667 66 188 c 0
 36.6667 240 22 299.333 22 366 c 0
 22 428.667 35.3333 489 62 547 c 0
 88.6667 605.667 128 654 180 692 c 1
 233.333 728.667 295.333 747 366 747 c 0
 444.667 747 511.667 728.667 567 692 c 0
 621 655.333 662 608 690 550 c 1
 716 492 729 432 729 370 c 0
EndSplineSet
EndChar
StartChar: Iotadieresis
Encoding: 938 938 366
Width: 367
Flags: W
Fore
313 735 m 1
 171 735 l 1
 171 885 l 1
 313 885 l 1
 313 735 l 1
131 735 m 1
 -11 735 l 1
 -11 885 l 1
 131 885 l 1
 131 735 l 1
223 -25 m 1
 79 -25 l 1
 79 741 l 1
 223 741 l 1
 223 -25 l 1
EndSplineSet
EndChar
StartChar: Upsilondieresis
Encoding: 939 939 367
Width: 744
Flags: W
Fore
495 735 m 1
 353 735 l 1
 353 885 l 1
 495 885 l 1
 495 735 l 1
313 735 m 1
 171 735 l 1
 171 885 l 1
 313 885 l 1
 313 735 l 1
718 741 m 1
 409 296 l 1
 409 -25 l 1
 265 -25 l 1
 265 296 l 1
 -33 741 l 1
 142 741 l 1
 291 514 l 1
 343 429 l 1
 399 520 l 1
 546 741 l 1
 718 741 l 1
EndSplineSet
EndChar
StartChar: alphatonos
Encoding: 940 940 368
Width: 656
Flags: W
Fore
525 789 m 1
 377 603 l 1
 252 603 l 1
 343 789 l 1
 525 789 l 1
393 262 m 0
 393 312 382.667 353.333 362 386 c 0
 343.333 414.667 314.667 429 276 429 c 0
 237.333 429 208.667 416 190 390 c 0
 168 360 157 316 157 258 c 0
 157 201.333 167.333 158.667 188 130 c 0
 206.667 104 235.333 91 274 91 c 0
 352.667 91 392.333 148 393 262 c 0
420 7 m 1
 380.667 -22.3333 332.667 -37 276 -37 c 0
 194 -37 132 -12.3333 90 37 c 0
 48 87 27 162 27 262 c 0
 27 308.667 33 351.333 45 390 c 0
 57 428 75 459.333 99 484 c 0
 123 508 149.667 525.667 179 537 c 0
 207.667 549 240 555 276 555 c 1
 308.667 553.667 336 549.333 358 542 c 1
 381.333 532.667 402.333 519.333 421 502 c 1
 421 545 l 1
 543 545 l 1
 543 99 l 1
 543 93 l 1
 577 117 l 1
 613 -5 l 1
 568.333 -27 531.667 -38 503 -38 c 0
 486.333 -38 470 -33.3333 454 -24 c 0
 438.667 -14.6667 427.333 -4.33333 420 7 c 1
EndSplineSet
EndChar
StartChar: epsilontonos
Encoding: 941 941 369
Width: 570
Flags: W
Fore
505 161 m 1
 498.333 112.333 485 73.6667 465 45 c 1
 446.333 16.3333 419.333 -4 384 -16 c 0
 350 -28.6667 306.333 -35 253 -35 c 0
 94.3333 -35 14.6667 22 14 136 c 0
 14 178.667 25 211.333 47 234 c 0
 57.6667 244.667 68.3333 253.667 79 261 c 1
 65 270.333 54.3333 279 47 287 c 0
 25 311.667 14 344.667 14 386 c 0
 14 442.667 33.3333 485 72 513 c 0
 111.333 541.667 171.667 556.333 253 557 c 2
 262 557 l 2
 313.333 557 355 550.667 387 538 c 0
 421 524.667 447.333 504 466 476 c 0
 484.667 447.333 497.667 409 505 361 c 1
 378 361 l 1
 374 391 360.667 411 338 421 c 0
 316 431.667 286.667 437 250 437 c 0
 182 437 147.333 418 146 380 c 1
 148.667 357.333 156.667 341.333 170 332 c 0
 185.333 320.667 211.667 315 249 315 c 2
 320 315 l 1
 320 206 l 1
 249 206 l 2
 209 206 182.667 200.667 170 190 c 0
 156.667 180 148.667 163.667 146 141 c 1
 147.333 103.667 182 85 250 85 c 0
 286.667 85 316 90.3333 338 101 c 0
 360.667 111 374 131 378 161 c 1
 505 161 l 1
481 789 m 1
 333 603 l 1
 208 603 l 1
 299 789 l 1
 481 789 l 1
EndSplineSet
EndChar
StartChar: etatonos
Encoding: 942 942 370
Width: 596
Flags: W
Fore
505 789 m 1
 357 603 l 1
 232 603 l 1
 323 789 l 1
 505 789 l 1
171 494 m 1
 177 505 l 2
 180.333 510.333 189.333 517 204 525 c 0
 218.667 533 236 540 256 546 c 0
 277.333 552 298.667 555 320 555 c 0
 358 555 392 548.333 422 535 c 0
 451.333 521.667 475 500.667 493 472 c 0
 510.333 444.667 520 411.667 522 373 c 1
 523 320 l 1
 523 -215 l 1
 385 -177 l 1
 385 316 l 2
 385 348 382 371.667 376 387 c 0
 364 415 339.333 429 302 429 c 0
 227.333 429 189.667 380.667 189 284 c 1
 189 -25 l 1
 51 -25 l 1
 51 414 l 1
 52 421 l 1
 54 426 l 1
 18 418 l 1
 -5 536 l 1
 31.6667 549.333 61.6667 556 85 556 c 0
 111.667 556 134 545.667 152 525 c 0
 159.333 516.333 165.667 506 171 494 c 1
EndSplineSet
EndChar
StartChar: iotatonos
Encoding: 943 943 371
Width: 334
Flags: W
Fore
302 -1 m 1
 251.333 -22.3333 210.667 -33 180 -33 c 0
 137.333 -33 101.333 -19.3333 72 8 c 1
 44.6667 35.3333 31 77 31 133 c 2
 31 545 l 1
 169 545 l 1
 169 150 l 1
 169 137 l 1
 169 131 l 1
 171 123 l 1
 171.667 116.333 175.333 110.667 182 106 c 1
 189 104 l 1
 194 104 l 2
 204.667 105.333 224.667 114 254 130 c 1
 302 -1 l 1
329 789 m 1
 181 603 l 1
 56 603 l 1
 147 789 l 1
 329 789 l 1
EndSplineSet
EndChar
StartChar: upsilondieresistonos
Encoding: 944 944 372
Width: 575
Flags: W
Fore
482 881 m 1
 327 693 l 1
 205 693 l 1
 295 881 l 1
 482 881 l 1
422 539 m 1
 280 539 l 1
 280 689 l 1
 422 689 l 1
 422 539 l 1
240 539 m 1
 98 539 l 1
 98 689 l 1
 240 689 l 1
 240 539 l 1
503 198 m 2
 503 156.667 500 124.667 494 102 c 0
 488.667 78.6667 479.333 56.3333 466 35 c 1
 456 23 433.333 6.33333 398 -15 c 1
 368.667 -31 323.333 -39 262 -39 c 0
 195.333 -39 147.667 -31 119 -15 c 1
 85 5.66667 62.6667 22.3333 52 35 c 1
 38.6667 54.3333 29.3333 76.6667 24 102 c 0
 18 124.667 15 156.667 15 198 c 2
 15 543 l 1
 153 543 l 1
 153 232 l 2
 153 190 155.333 159 160 139 c 1
 165.333 123 171 113.333 177 110 c 0
 188.333 102 198 96.6667 206 94 c 0
 218 89.3333 236 87 260 87 c 0
 282.667 87 300 89.3333 312 94 c 0
 321.333 97.3333 330.667 102.667 340 110 c 0
 347.333 115.333 353.333 125 358 139 c 1
 362.667 158.333 365 189.333 365 232 c 2
 365 543 l 1
 503 543 l 1
 503 198 l 2
EndSplineSet
EndChar
StartChar: alpha
Encoding: 945 945 373
Width: 656
Flags: W
Fore
393 262 m 0
 393 312 382.667 353.333 362 386 c 0
 343.333 414.667 314.667 429 276 429 c 0
 237.333 429 208.667 416 190 390 c 0
 168 360 157 316 157 258 c 0
 157 201.333 167.333 158.667 188 130 c 0
 206.667 104 235.333 91 274 91 c 0
 352.667 91 392.333 148 393 262 c 0
420 7 m 1
 380.667 -22.3333 332.667 -37 276 -37 c 0
 194 -37 132 -12.3333 90 37 c 0
 48 87 27 162 27 262 c 0
 27 308.667 33 351.333 45 390 c 0
 57 428 75 459.333 99 484 c 0
 123 508 149.667 525.667 179 537 c 0
 207.667 549 240 555 276 555 c 1
 308.667 553.667 336 549.333 358 542 c 1
 381.333 532.667 402.333 519.333 421 502 c 1
 421 545 l 1
 543 545 l 1
 543 99 l 1
 543 93 l 1
 577 117 l 1
 613 -5 l 1
 568.333 -27 531.667 -38 503 -38 c 0
 486.333 -38 470 -33.3333 454 -24 c 0
 438.667 -14.6667 427.333 -4.33333 420 7 c 1
EndSplineSet
EndChar
StartChar: beta
Encoding: 946 946 374
Width: 576
Flags: W
Fore
529 200 m 0
 529 156.667 520 117 502 81 c 1
 485.333 44.3333 459 15.3333 423 -6 c 0
 387.667 -28 346 -39 298 -39 c 0
 259.333 -39 226 -33.6667 198 -23 c 0
 184.667 -17.6667 172.333 -11 161 -3 c 1
 161 -223 l 1
 25 -223 l 1
 25 490 l 2
 25 555.333 32.3333 605 47 639 c 1
 59 663.667 74.3333 685.333 93 704 c 1
 111.667 720.667 134.667 734 162 744 c 0
 188 752.667 217.333 757 250 757 c 0
 290 757 326 750.333 358 737 c 1
 435.333 702.333 474.333 638 475 544 c 1
 472.333 479.333 451 430.333 411 397 c 2
 410 396 l 1
 409 395 l 1
 437.667 383 461.667 366.333 481 345 c 0
 513 309 529 260.667 529 200 c 0
389 202 m 0
 389 240.667 379.333 267.667 360 283 c 0
 334 303 298 313 252 313 c 2
 177 313 l 1
 177 437 l 1
 244 437 l 2
 282.667 437 310.333 447.333 327 468 c 0
 344.333 489.333 353 515.333 353 546 c 0
 353 574.667 344.333 596.667 327 612 c 0
 309.667 627.333 288.333 635 263 635 c 0
 229.667 635 202.333 623.667 181 601 c 0
 167.667 587.667 161 549.333 161 486 c 1
 162 148 l 1
 168.667 129.333 181.333 114.333 200 103 c 0
 218 91 244.667 85 280 85 c 0
 300.667 85 319 89 335 97 c 0
 351 105 364 117.667 374 135 c 0
 384 151.667 389 174 389 202 c 0
EndSplineSet
EndChar
StartChar: gamma
Encoding: 947 947 375
Width: 591
Flags: W
Fore
559 543 m 1
 360 28 l 1
 360 -223 l 1
 224 -223 l 1
 224 27 l 1
 81 373 l 1
 72.3333 400.333 65.3333 418.333 60 427 c 1
 57 429 l 1
 51 429 35 423.667 9 413 c 1
 0 517 l 1
 0 521 2.66667 526.667 8 534 c 0
 13.3333 541.333 22 546.333 34 549 c 0
 47.3333 553 58.3333 555 67 555 c 0
 106.333 555 134.333 546.667 151 530 c 1
 167.667 511.333 182.667 484.333 196 449 c 1
 291 205 l 1
 418 543 l 1
 559 543 l 1
EndSplineSet
EndChar
StartChar: delta
Encoding: 948 948 376
Width: 620
Flags: W
Fore
554 250 m 0
 554 186 544.333 132.667 525 90 c 1
 506.333 45.3333 475 12 431 -10 c 0
 390.333 -30.6667 338.333 -41 275 -41 c 0
 195 -41 130.667 -16.6667 82 32 c 0
 35.3333 79.3333 12 149.333 12 242 c 0
 12 292.667 19.6667 337.333 35 376 c 0
 51 414 71.3333 443.333 96 464 c 0
 120 485.333 147 501.333 177 512 c 0
 201.667 520 226 524 250 524 c 2
 271 523 l 1
 288 520 l 1
 269 475 l 1
 48 633 l 1
 48 743 l 1
 496 743 l 1
 496 621 l 1
 279 621 l 1
 392 539 l 2
 427.333 513 453.667 491.333 471 474 c 0
 526.333 416.667 554 342 554 250 c 0
416 252 m 0
 416 281.333 411.667 307 403 329 c 0
 394.333 351.667 380 370.333 360 385 c 0
 341.333 399.667 315 407 281 407 c 0
 255.667 407 233.667 400.333 215 387 c 1
 195 374.333 180 356.333 170 333 c 1
 158 309 152 281.333 152 250 c 0
 152 144 193 91 275 91 c 0
 311 91 339.333 98.6667 360 114 c 0
 380 128.667 394.333 148 403 172 c 0
 411.667 198 416 224.667 416 252 c 0
EndSplineSet
EndChar
StartChar: epsilon
Encoding: 949 949 377
Width: 570
Flags: W
Fore
505 161 m 1
 498.333 112.333 485 73.6667 465 45 c 1
 446.333 16.3333 419.333 -4 384 -16 c 0
 350 -28.6667 306.333 -35 253 -35 c 0
 94.3333 -35 14.6667 22 14 136 c 0
 14 178.667 25 211.333 47 234 c 0
 57.6667 244.667 68.3333 253.667 79 261 c 1
 65 270.333 54.3333 279 47 287 c 0
 25 311.667 14 344.667 14 386 c 0
 14 442.667 33.3333 485 72 513 c 0
 111.333 541.667 171.667 556.333 253 557 c 2
 262 557 l 2
 313.333 557 355 550.667 387 538 c 0
 421 524.667 447.333 504 466 476 c 0
 484.667 447.333 497.667 409 505 361 c 1
 378 361 l 1
 374 391 360.667 411 338 421 c 0
 316 431.667 286.667 437 250 437 c 0
 182 437 147.333 418 146 380 c 1
 148.667 357.333 156.667 341.333 170 332 c 0
 185.333 320.667 211.667 315 249 315 c 2
 320 315 l 1
 320 206 l 1
 249 206 l 2
 209 206 182.667 200.667 170 190 c 0
 156.667 180 148.667 163.667 146 141 c 1
 147.333 103.667 182 85 250 85 c 0
 286.667 85 316 90.3333 338 101 c 0
 360.667 111 374 131 378 161 c 1
 505 161 l 1
EndSplineSet
EndChar
StartChar: zeta
Encoding: 950 950 378
Width: 522
Flags: W
Fore
465 -42 m 0
 465 -83.3333 448.667 -144.667 416 -226 c 1
 292 -180 l 1
 320.667 -120 335 -81.3333 335 -64 c 0
 335 -48.6667 332.667 -39 328 -35 c 0
 324 -31 312.667 -29 294 -29 c 0
 232 -29 167.667 -7.33333 101 36 c 0
 42.3333 73.3333 13 134.667 13 220 c 0
 13 312.667 35.6667 397.667 81 475 c 0
 115.667 533 156 581.667 202 621 c 1
 29 621 l 1
 29 743 l 1
 435 743 l 1
 435 643 l 1
 351.667 595.667 283.667 535.667 231 463 c 1
 180.333 391 155 315.333 155 236 c 0
 155 194.667 167.333 163 192 141 c 1
 210.667 125.667 227.667 115.667 243 111 c 0
 255 106.333 275.667 102.333 305 99 c 0
 329 97 348.667 94.3333 364 91 c 0
 388 86.3333 409 76 427 60 c 1
 452.333 32.6667 465 -1.33333 465 -42 c 0
EndSplineSet
EndChar
StartChar: eta
Encoding: 951 951 379
Width: 586
Flags: W
Fore
171 494 m 1
 177 505 l 2
 180.333 510.333 189.333 517 204 525 c 0
 218.667 533 236 540 256 546 c 0
 277.333 552 298.667 555 320 555 c 0
 358 555 392 548.333 422 535 c 0
 451.333 521.667 475 500.667 493 472 c 0
 510.333 444.667 520 411.667 522 373 c 1
 523 320 l 1
 523 -215 l 1
 385 -177 l 1
 385 316 l 2
 385 348 382 371.667 376 387 c 0
 364 415 339.333 429 302 429 c 0
 227.333 429 189.667 380.667 189 284 c 1
 189 -25 l 1
 51 -25 l 1
 51 414 l 1
 52 421 l 1
 54 426 l 1
 18 418 l 1
 -5 536 l 1
 31.6667 549.333 61.6667 556 85 556 c 0
 111.667 556 134 545.667 152 525 c 0
 159.333 516.333 165.667 506 171 494 c 1
EndSplineSet
EndChar
StartChar: theta
Encoding: 952 952 380
Width: 586
Flags: W
Fore
515 360 m 0
 515 265.333 506.333 189 489 131 c 0
 470.333 71 442 27.6667 404 1 c 1
 365.333 -24.3333 320 -37 268 -37 c 0
 227.333 -37 192 -30 162 -16 c 0
 130 -1.33333 103.667 22 83 54 c 0
 60.3333 88.6667 44.6667 130.333 36 179 c 1
 25.3333 224.333 20 284.667 20 360 c 0
 20 437.333 28 504.667 44 562 c 1
 58.6667 619.333 85 666 123 702 c 0
 160.333 737.333 208.667 755 268 755 c 0
 326.667 755 374.667 737.333 412 702 c 0
 450 666 476.667 619 492 561 c 0
 507.333 506.333 515 439.333 515 360 c 0
381 427 m 1
 379 486.333 370 536.333 354 577 c 0
 338.667 614.333 310 633 268 633 c 0
 232 633 205.333 616.333 188 583 c 0
 168.667 548.333 158 496.333 156 427 c 1
 381 427 l 1
381 305 m 1
 156 305 l 1
 157.333 262.333 161 226.333 167 197 c 0
 173 163 185 135 203 113 c 0
 218.333 95.6667 240 87 268 87 c 0
 294 87 314.667 94.6667 330 110 c 0
 347.333 127.333 360 153 368 187 c 0
 374.667 215.667 379 255 381 305 c 1
EndSplineSet
EndChar
StartChar: iota
Encoding: 953 953 381
Width: 346
Flags: W
Fore
302 -1 m 1
 251.333 -22.3333 210.667 -33 180 -33 c 0
 137.333 -33 101.333 -19.3333 72 8 c 1
 44.6667 35.3333 31 77 31 133 c 2
 31 545 l 1
 169 545 l 1
 169 150 l 1
 169 137 l 1
 169 131 l 1
 171 123 l 1
 171.667 116.333 175.333 110.667 182 106 c 1
 189 104 l 1
 194 104 l 2
 204.667 105.333 224.667 114 254 130 c 1
 302 -1 l 1
EndSplineSet
EndChar
StartChar: kappa
Encoding: 954 954 382
Width: 576
Flags: W
Fore
543 -25 m 1
 374 -25 l 1
 211 227 l 1
 179 196 l 1
 179 -25 l 1
 41 -25 l 1
 41 543 l 1
 179 543 l 1
 179 369 l 1
 351 543 l 1
 537 543 l 1
 310 323 l 1
 543 -25 l 1
EndSplineSet
EndChar
StartChar: lambda
Encoding: 955 955 383
Width: 620
Flags: W
Fore
586 2 m 1
 539.333 -22.6667 502.333 -35 475 -35 c 0
 429 -35 398.667 -13.6667 384 29 c 1
 371 59 l 1
 283 295 l 2
 267 338.333 255 379 247 417 c 1
 296 415 l 1
 278 352 l 1
 271 330 l 1
 258 294 l 1
 144 -23 l 1
 -6 -23 l 1
 201 521 l 1
 197 534 l 2
 189.667 558.667 182 577.667 174 591 c 0
 168 601 159 609.667 147 617 c 0
 141.667 619.667 132.667 621 120 621 c 2
 96 619 l 1
 82 616 l 1
 66 613 l 1
 37 609 l 1
 53 738 l 1
 86.3333 750.667 112.667 757 132 757 c 0
 160 757 182.333 752.667 199 744 c 0
 215.667 736 234 721 254 699 c 1
 271.333 678.333 285 656 295 632 c 0
 299 624 311 593 331 539 c 2
 483 129 l 1
 496 103 l 1
 502 98 l 1
 513 100 l 1
 528 107 l 1
 552 120 l 1
 586 2 l 1
EndSplineSet
EndChar
StartChar: uni03BC
Encoding: 956 956 384
Width: 667
Flags: W
Fore
595 12 m 1
 573 -3.33333 555.667 -13.6667 543 -19 c 0
 533 -23 522 -25 510 -25 c 0
 477.333 -25 452.667 -15.6667 436 3 c 0
 430 9 425.333 15.3333 422 22 c 1
 413.333 11.3333 401.667 1.33333 387 -8 c 0
 359.667 -26 329 -35 295 -35 c 0
 261 -35 231.667 -28 207 -14 c 2
 190 -3 l 1
 190 -225 l 1
 52 -225 l 1
 52 543 l 1
 190 543 l 1
 190 208 l 2
 190 159.333 211.333 122.667 254 98 c 0
 263.333 92 278 89 298 89 c 0
 334.667 89 360 101.667 374 127 c 2
 386 148 l 1
 390 155 l 2
 392 158.333 393 160.333 393 161 c 1
 397 177 l 1
 398 208 l 1
 398 543 l 1
 534 543 l 1
 534 152 l 2
 534 124.667 535.333 107.333 538 100 c 1
 532 100 528.667 101.333 528 104 c 1
 528 105 l 1
 559 91 l 1
 595 12 l 1
EndSplineSet
EndChar
StartChar: nu
Encoding: 957 957 385
Width: 564
Flags: W
Fore
524 543 m 1
 309 -25 l 1
 193 -25 l 1
 -22 543 l 1
 124 543 l 1
 242 216 l 1
 259 164 l 1
 262 154 l 1
 264 148 l 1
 251 195 l 1
 250.333 190.333 248.333 183.333 245 174 c 1
 240 156 l 1
 238 150 l 1
 243 165 l 1
 251 188 l 2
 254.333 197.333 257.333 205.333 260 212 c 1
 380 543 l 1
 524 543 l 1
EndSplineSet
EndChar
StartChar: xi
Encoding: 958 958 386
Width: 530
Flags: W
Fore
466 -39 m 0
 466 -81.6667 449.333 -144 416 -226 c 1
 297 -181 l 1
 322.333 -111 335.667 -69 337 -55 c 1
 338 -46 l 1
 338 -36.6667 336.667 -31.6667 334 -31 c 0
 326 -27 304.333 -25 269 -25 c 2
 250 -25 l 2
 203.333 -25 161 -18.6667 123 -6 c 0
 83 8 51 31 27 63 c 128
 3 95 -9 137 -9 189 c 1
 -5.66667 227 -4.33681e-19 256 8 276 c 0
 16.6667 297.333 31 317.333 51 336 c 2
 53 338 l 2
 69 352.667 87.6667 366 109 378 c 1
 97.6667 384 87 393 77 405 c 1
 50.3333 433.667 37 470.667 37 516 c 0
 37 551.333 46 583 64 611 c 1
 68 616 l 1
 73 623 l 1
 13 623 l 1
 13 743 l 1
 435 743 l 1
 435 623 l 1
 244 623 l 2
 230.667 623 218.333 618.333 207 609 c 0
 193 598.333 182.667 584.333 176 567 c 1
 167.333 551.667 163 534.667 163 516 c 0
 163 477.333 187.333 450.667 236 436 c 1
 247.333 431.333 269.333 429 302 429 c 2
 409 429 l 1
 409 315 l 1
 274 315 l 2
 247.333 315 222 310 198 300 c 0
 176.667 291.333 158.667 277 144 257 c 1
 131.333 241.667 125 222 125 198 c 0
 125 174 131.333 155.333 144 142 c 1
 159.333 124 176.667 112.333 196 107 c 1
 218.667 99 240.667 95 262 95 c 0
 316.667 95 353 92.6667 371 88 c 1
 403.667 82 427 68.3333 441 47 c 1
 457.667 25 466 -3.66667 466 -39 c 0
EndSplineSet
EndChar
StartChar: omicron
Encoding: 959 959 387
Width: 610
Flags: W
Fore
543 260 m 0
 543 197.333 531.667 144.667 509 102 c 1
 487 56.6667 455.333 22 414 -2 c 0
 372.667 -25.3333 326.667 -37 276 -37 c 0
 228 -37 183.333 -26.3333 142 -5 c 1
 100.667 17.6667 68.3333 51.6667 45 97 c 1
 21 141 9 195.333 9 260 c 0
 9 357.333 34 431 84 481 c 0
 134.667 530.333 198.667 555 276 555 c 0
 353.333 555 417.333 530.333 468 481 c 0
 518 431 543 357.333 543 260 c 0
403 260 m 0
 403 286.667 400 311.667 394 335 c 0
 388.667 354.333 379.667 372.667 367 390 c 0
 357.667 404 344.667 414.667 328 422 c 0
 313.333 429.333 296 433 276 433 c 128
 256 433 238.667 429.333 224 422 c 0
 207.333 414.667 194.333 404 185 390 c 0
 173 372.667 164.333 354.333 159 335 c 0
 152.333 311 149 286 149 260 c 0
 149 200.667 161 157 185 129 c 1
 207 101 237.333 87 276 87 c 0
 313.333 87 343.667 101 367 129 c 0
 391 157 403 200.667 403 260 c 0
EndSplineSet
EndChar
StartChar: pi
Encoding: 960 960 388
Width: 721
Flags: W
Fore
647 -1 m 1
 582 -23 l 2
 568.667 -27 555.667 -29 543 -29 c 0
 497.667 -29 466.333 -15.3333 449 12 c 0
 435 34 428 68 428 114 c 2
 428 425 l 1
 242 425 l 1
 242 -24 l 1
 98 -28 l 1
 99 425 l 1
 29 425 l 1
 28 545 l 1
 630 545 l 1
 630 425 l 1
 566 425 l 1
 566 116 l 2
 566 98.6667 567 88.6667 569 86 c 1
 570 88 l 1
 571 89 l 1
 573 89 l 1
 574 88 l 1
 575.333 89.3333 579.333 92.3333 586 97 c 2
 616 119 l 1
 647 -1 l 1
EndSplineSet
EndChar
StartChar: rho
Encoding: 961 961 389
Width: 626
Flags: W
Fore
566 270 m 0
 566 201.333 557.333 149.667 540 115 c 0
 524 83 508.333 59.3333 493 44 c 0
 478.333 28.6667 455 11.6667 423 -7 c 1
 388.333 -25.6667 346.333 -35 297 -35 c 0
 262.333 -35 230 -28.3333 200 -15 c 1
 170 2 l 1
 170 -225 l 1
 32 -225 l 1
 32 270 l 2
 32 370 58.6667 443 112 489 c 0
 163.333 534.333 225 557 297 557 c 0
 377 557 442 531 492 479 c 0
 541.333 427.667 566 358 566 270 c 0
426 264 m 0
 426 321.333 413.333 364.333 388 393 c 0
 364 421 333.667 435 297 435 c 0
 259 435 229 421.333 207 394 c 1
 182.333 367.333 170 323.333 170 262 c 0
 170 200.667 182.333 156.667 207 130 c 1
 230.333 102.667 260.333 89 297 89 c 0
 333 89 363.333 102.333 388 129 c 1
 413.333 159 426 204 426 264 c 0
EndSplineSet
EndChar
StartChar: sigma1
Encoding: 962 962 390
Width: 595
Flags: W
Fore
526 299 m 1
 385 299 l 1
 385 350.333 375.667 385.333 357 404 c 1
 335.667 423.333 306.667 433 270 433 c 0
 248.667 433 228.667 428 210 418 c 0
 189.333 406.667 173.333 390 162 368 c 1
 149.333 346 143 314.667 143 274 c 0
 143 247.333 147 224 155 204 c 0
 170.333 168.667 206.667 142 264 124 c 0
 276.667 120 294 117.667 316 117 c 1
 367 112 l 2
 421 105.333 459.667 92.6667 483 74 c 0
 511 51.3333 525 17.3333 525 -28 c 0
 525 -47.3333 521 -69 513 -93 c 1
 467 -214 l 1
 327 -165 l 1
 345.667 -125 362.667 -81.3333 378 -34 c 1
 378 -31.3333 372 -30 360 -30 c 1
 296 -24 l 2
 264 -22 235.333 -18 210 -12 c 0
 182 -4.66667 148.667 13.3333 110 42 c 1
 78.6667 63.3333 51.3333 96 28 140 c 1
 7.33333 176 -3 221.333 -3 276 c 0
 -3 336 9.33333 387.333 34 430 c 0
 60 473.333 94.3333 506 137 528 c 0
 179 550 226 561 278 561 c 0
 348.667 561 407.667 540 455 498 c 1
 502.333 454.667 526 388.333 526 299 c 1
EndSplineSet
EndChar
StartChar: sigma
Encoding: 963 963 391
Width: 676
Flags: W
Fore
615 419 m 1
 501 419 l 1
 529 371 543 318 543 260 c 0
 543 197.333 531.667 144.667 509 102 c 1
 487 56.6667 455.333 22 414 -2 c 0
 372.667 -25.3333 326.667 -37 276 -37 c 0
 228 -37 183.333 -26.3333 142 -5 c 1
 100.667 17.6667 68.3333 51.6667 45 97 c 1
 21 141 9 195.333 9 260 c 0
 9 357.333 34 431 84 481 c 0
 134.667 530.333 198.667 555 276 555 c 0
 296.667 555 314 553.667 328 551 c 1
 615 551 l 1
 615 419 l 1
403 260 m 0
 403 286.667 400 311.667 394 335 c 0
 388.667 354.333 379.667 372.667 367 390 c 0
 357.667 404 344.667 414.667 328 422 c 0
 313.333 429.333 296 433 276 433 c 128
 256 433 238.667 429.333 224 422 c 0
 207.333 414.667 194.333 404 185 390 c 0
 173 372.667 164.333 354.333 159 335 c 0
 152.333 311 149 286 149 260 c 0
 149 200.667 161 157 185 129 c 1
 207 101 237.333 87 276 87 c 0
 313.333 87 343.667 101 367 129 c 0
 391 157 403 200.667 403 260 c 0
EndSplineSet
EndChar
StartChar: tau
Encoding: 964 964 392
Width: 592
Flags: W
Fore
519 425 m 1
 319 425 l 1
 319 152 l 1
 321 114 l 1
 321.667 111.333 323.667 109 327 107 c 1
 344 105 l 1
 352 106 l 1
 396 115 l 1
 426 -13 l 1
 364 -26 l 1
 350 -28 338 -29 328 -29 c 0
 293.333 -29 264.667 -22.6667 242 -10 c 0
 218 3.33333 202 21 194 43 c 0
 190 52.3333 186.667 65.3333 184 82 c 1
 181 143 l 1
 181 144 l 1
 181 425 l 1
 17 425 l 1
 17 543 l 1
 519 543 l 1
 519 425 l 1
EndSplineSet
EndChar
StartChar: upsilon
Encoding: 965 965 393
Width: 575
Flags: W
Fore
503 198 m 2
 503 156.667 500 124.667 494 102 c 0
 488.667 78.6667 479.333 56.3333 466 35 c 1
 456 23 433.333 6.33333 398 -15 c 1
 368.667 -31 323.333 -39 262 -39 c 0
 195.333 -39 147.667 -31 119 -15 c 1
 85 5.66667 62.6667 22.3333 52 35 c 1
 38.6667 54.3333 29.3333 76.6667 24 102 c 0
 18 124.667 15 156.667 15 198 c 2
 15 543 l 1
 153 543 l 1
 153 232 l 2
 153 190 155.333 159 160 139 c 1
 165.333 123 171 113.333 177 110 c 0
 188.333 102 198 96.6667 206 94 c 0
 218 89.3333 236 87 260 87 c 0
 282.667 87 300 89.3333 312 94 c 0
 321.333 97.3333 330.667 102.667 340 110 c 0
 347.333 115.333 353.333 125 358 139 c 1
 362.667 158.333 365 189.333 365 232 c 2
 365 543 l 1
 503 543 l 1
 503 198 l 2
EndSplineSet
EndChar
StartChar: phi
Encoding: 966 966 394
Width: 801
Flags: W
Fore
588 250 m 0
 588 278 582.333 304 571 328 c 0
 559.667 352.667 543 371.667 521 385 c 0
 498.333 399.667 473 407 445 407 c 1
 445 96 l 1
 477 96 503 103 523 117 c 0
 543.667 131 559.667 150 571 174 c 1
 582.333 195.333 588 220.667 588 250 c 0
180 528 m 1
 260 424 l 1
 223.333 398 197 371.667 181 345 c 1
 163.667 313.667 155 283.333 155 254 c 0
 155 226 162 199.667 176 175 c 0
 187.333 153 206 133.667 232 117 c 1
 256 103 283 96 313 96 c 1
 313 547 l 1
 421 547 l 2
 485.667 547 540.333 532.667 585 504 c 1
 629.667 477.333 664 440.333 688 393 c 0
 710.667 349 722 301 722 249 c 0
 722 201 711.667 155 691 111 c 0
 671.667 69.6667 641 34.3333 599 5 c 1
 557.667 -21.6667 509 -35 453 -35 c 2
 446 -35 l 1
 446 -225 l 1
 308 -225 l 1
 308 -35 l 1
 311 -35 l 2
 267 -35 226 -27.3333 188 -12 c 0
 153.333 2 122.667 23.3333 96 52 c 1
 72 76 53 106.667 39 144 c 0
 27 179.333 21 214.667 21 250 c 0
 21 288 27.6667 325 41 361 c 0
 53 396.333 72.3333 429.667 99 461 c 0
 117.667 483 144.667 505.333 180 528 c 1
EndSplineSet
EndChar
StartChar: chi
Encoding: 967 967 395
Width: 632
Flags: W
Fore
598 -217 m 1
 568 -230.333 542.667 -237 522 -237 c 2
 514 -237 l 2
 485.333 -237 458.333 -226.333 433 -205 c 0
 413 -189 394.333 -165.333 377 -134 c 1
 299 24 l 1
 132 -225 l 1
 -32 -225 l 1
 219 161 l 1
 77 408 l 1
 69 420.667 63.6667 428 61 430 c 0
 59 432 53.3333 433 44 433 c 1
 34 430.333 16.6667 429 -8 429 c 1
 -8 554 l 1
 45 561 l 1
 73 563 l 1
 100.333 563 123.333 557 142 545 c 1
 160.667 535 177.333 517 192 491 c 1
 302 287 l 1
 440 543 l 1
 593 543 l 1
 384 160 l 1
 509 -79 l 1
 524 -99 l 2
 526 -101 531 -102 539 -102 c 2
 552 -100 l 2
 556.667 -100 572 -94.6667 598 -84 c 1
 598 -217 l 1
EndSplineSet
EndChar
StartChar: psi
Encoding: 968 968 396
Width: 722
Flags: W
Fore
645 214 m 2
 645 134 620 73.3333 570 32 c 0
 526 -4 469 -23.3333 399 -26 c 1
 399 -225 l 1
 263 -225 l 1
 263 -26 l 1
 193 -23.3333 136 -4 92 32 c 0
 42 72.6667 17 133.333 17 214 c 2
 17 543 l 1
 157 543 l 1
 157 242 l 2
 157 204.667 161.333 175.333 170 154 c 0
 178 135.333 190.667 121.333 208 112 c 1
 224 104.667 242.333 100 263 98 c 1
 263 525 l 1
 399 525 l 1
 399 98 l 1
 419.667 100 436.667 104 450 110 c 0
 466.667 116.667 479.667 130.333 489 151 c 1
 499.667 171 505 201.333 505 242 c 2
 505 543 l 1
 645 543 l 1
 645 214 l 2
EndSplineSet
EndChar
StartChar: omega
Encoding: 969 969 397
Width: 800
Flags: W
Fore
729 241 m 0
 729 201 724.667 166 716 136 c 0
 706.667 102 693.333 73 676 49 c 0
 657.333 23 634.667 2.66667 608 -12 c 0
 581.333 -26.6667 550 -34 514 -34 c 0
 474.667 -34 440.333 -24.3333 411 -5 c 0
 395.667 5.66667 382 18.6667 370 34 c 1
 358 18.6667 344.333 5.66667 329 -5 c 0
 299.667 -24.3333 265.333 -34 226 -34 c 0
 188.667 -34 157.667 -26.6667 133 -12 c 1
 105 2 81.6667 22.3333 63 49 c 0
 45.6667 74.3333 32.6667 103.667 24 137 c 0
 15.3333 166.333 11 201 11 241 c 0
 11 275.667 16.6667 313.667 28 355 c 0
 40 397.667 54.6667 435 72 467 c 0
 92 503.667 116 532.667 144 554 c 1
 273 513 l 1
 229 465 200.333 428 187 402 c 1
 173 377.333 162 349 154 317 c 0
 148 290.333 145 263 145 235 c 0
 145 192.333 152.333 155.667 167 125 c 1
 179.667 101 200 88.6667 228 88 c 1
 249.333 89.3333 260.333 90.3333 261 91 c 2
 282 107 l 1
 296 119.667 303 135 303 153 c 2
 303 401 l 1
 437 401 l 1
 437 153 l 2
 437 135.667 443.667 120.333 457 107 c 1
 479 91 l 1
 511 88 l 1
 539 88 559.667 100.333 573 125 c 1
 587.667 155 595 191.667 595 235 c 0
 595 262.333 592 289.667 586 317 c 0
 579.333 344.333 568.667 372.667 554 402 c 1
 537.333 430.667 508.667 467.333 468 512 c 1
 597 555 l 1
 625 531 648.667 501.667 668 467 c 0
 685.333 435 700 397.667 712 355 c 0
 723.333 315 729 277 729 241 c 0
EndSplineSet
EndChar
StartChar: iotadieresis
Encoding: 970 970 398
Width: 372
Flags: W
Fore
276 595 m 1
 134 595 l 1
 134 745 l 1
 276 745 l 1
 276 595 l 1
94 595 m 1
 -48 595 l 1
 -48 745 l 1
 94 745 l 1
 94 595 l 1
314 -1 m 1
 263.333 -22.3333 222.667 -33 192 -33 c 0
 146 -33 110 -19 84 9 c 1
 56.6667 36.3333 43 77.6667 43 133 c 2
 43 545 l 1
 181 545 l 1
 181 150 l 1
 181 137 l 1
 182 129 l 1
 183 123 l 1
 183.667 116.333 187.333 110.667 194 106 c 1
 201 104 l 1
 206 104 l 2
 216.667 105.333 236.667 114 266 130 c 1
 314 -1 l 1
EndSplineSet
EndChar
StartChar: upsilondieresis
Encoding: 971 971 399
Width: 575
Flags: W
Fore
423 597 m 1
 281 597 l 1
 281 747 l 1
 423 747 l 1
 423 597 l 1
241 597 m 1
 99 597 l 1
 99 747 l 1
 241 747 l 1
 241 597 l 1
503 198 m 2
 503 156.667 500 124.667 494 102 c 0
 488.667 78.6667 479.333 56.3333 466 35 c 1
 456 23 433.333 6.33333 398 -15 c 1
 368.667 -31 323.333 -39 262 -39 c 0
 195.333 -39 147.667 -31 119 -15 c 1
 85 5.66667 62.6667 22.3333 52 35 c 1
 38.6667 54.3333 29.3333 76.6667 24 102 c 0
 18 124.667 15 156.667 15 198 c 2
 15 543 l 1
 153 543 l 1
 153 232 l 2
 153 190 155.333 159 160 139 c 1
 165.333 123 171 113.333 177 110 c 0
 188.333 102 198 96.6667 206 94 c 0
 218 89.3333 236 87 260 87 c 0
 282.667 87 300 89.3333 312 94 c 0
 321.333 97.3333 330.667 102.667 340 110 c 0
 347.333 115.333 353.333 125 358 139 c 1
 362.667 158.333 365 189.333 365 232 c 2
 365 543 l 1
 503 543 l 1
 503 198 l 2
EndSplineSet
EndChar
StartChar: omicrontonos
Encoding: 972 972 400
Width: 610
Flags: W
Fore
505 789 m 1
 357 603 l 1
 232 603 l 1
 323 789 l 1
 505 789 l 1
543 260 m 0
 543 197.333 531.667 144.667 509 102 c 1
 487 56.6667 455.333 22 414 -2 c 0
 372.667 -25.3333 326.667 -37 276 -37 c 0
 228 -37 183.333 -26.3333 142 -5 c 1
 100.667 17.6667 68.3333 51.6667 45 97 c 1
 21 141 9 195.333 9 260 c 0
 9 357.333 34 431 84 481 c 0
 134.667 530.333 198.667 555 276 555 c 0
 353.333 555 417.333 530.333 468 481 c 0
 518 431 543 357.333 543 260 c 0
403 260 m 0
 403 286.667 400 311.667 394 335 c 0
 388.667 354.333 379.667 372.667 367 390 c 0
 357.667 404 344.667 414.667 328 422 c 0
 313.333 429.333 296 433 276 433 c 128
 256 433 238.667 429.333 224 422 c 0
 207.333 414.667 194.333 404 185 390 c 0
 173 372.667 164.333 354.333 159 335 c 0
 152.333 311 149 286 149 260 c 0
 149 200.667 161 157 185 129 c 1
 207 101 237.333 87 276 87 c 0
 313.333 87 343.667 101 367 129 c 0
 391 157 403 200.667 403 260 c 0
EndSplineSet
EndChar
StartChar: upsilontonos
Encoding: 973 973 401
Width: 575
Flags: W
Fore
503 198 m 2
 503 156.667 500 124.667 494 102 c 0
 488.667 78.6667 479.333 56.3333 466 35 c 1
 456 23 433.333 6.33333 398 -15 c 1
 368.667 -31 323.333 -39 262 -39 c 0
 195.333 -39 147.667 -31 119 -15 c 1
 85 5.66667 62.6667 22.3333 52 35 c 1
 38.6667 54.3333 29.3333 76.6667 24 102 c 0
 18 124.667 15 156.667 15 198 c 2
 15 543 l 1
 153 543 l 1
 153 232 l 2
 153 190 155.333 159 160 139 c 1
 165.333 123 171 113.333 177 110 c 0
 188.333 102 198 96.6667 206 94 c 0
 218 89.3333 236 87 260 87 c 0
 282.667 87 300 89.3333 312 94 c 0
 321.333 97.3333 330.667 102.667 340 110 c 0
 347.333 115.333 353.333 125 358 139 c 1
 362.667 158.333 365 189.333 365 232 c 2
 365 543 l 1
 503 543 l 1
 503 198 l 2
481 789 m 1
 333 603 l 1
 208 603 l 1
 299 789 l 1
 481 789 l 1
EndSplineSet
EndChar
StartChar: omegatonos
Encoding: 974 974 402
Width: 800
Flags: W
Fore
729 241 m 0
 729 201 724.667 166 716 136 c 0
 706.667 102 693.333 73 676 49 c 0
 657.333 23 634.667 2.66667 608 -12 c 0
 581.333 -26.6667 550 -34 514 -34 c 0
 474.667 -34 440.333 -24.3333 411 -5 c 0
 395.667 5.66667 382 18.6667 370 34 c 1
 358 18.6667 344.333 5.66667 329 -5 c 0
 299.667 -24.3333 265.333 -34 226 -34 c 0
 188.667 -34 157.667 -26.6667 133 -12 c 1
 105 2 81.6667 22.3333 63 49 c 0
 45.6667 74.3333 32.6667 103.667 24 137 c 0
 15.3333 166.333 11 201 11 241 c 0
 11 275.667 16.6667 313.667 28 355 c 0
 40 397.667 54.6667 435 72 467 c 0
 92 503.667 116 532.667 144 554 c 1
 273 513 l 1
 229 465 200.333 428 187 402 c 1
 173 377.333 162 349 154 317 c 0
 148 290.333 145 263 145 235 c 0
 145 192.333 152.333 155.667 167 125 c 1
 179.667 101 200 88.6667 228 88 c 1
 249.333 89.3333 260.333 90.3333 261 91 c 2
 282 107 l 1
 296 119.667 303 135 303 153 c 2
 303 401 l 1
 437 401 l 1
 437 153 l 2
 437 135.667 443.667 120.333 457 107 c 1
 479 91 l 1
 511 88 l 1
 539 88 559.667 100.333 573 125 c 1
 587.667 155 595 191.667 595 235 c 0
 595 262.333 592 289.667 586 317 c 0
 579.333 344.333 568.667 372.667 554 402 c 1
 537.333 430.667 508.667 467.333 468 512 c 1
 597 555 l 1
 625 531 648.667 501.667 668 467 c 0
 685.333 435 700 397.667 712 355 c 0
 723.333 315 729 277 729 241 c 0
601 789 m 1
 453 603 l 1
 328 603 l 1
 419 789 l 1
 601 789 l 1
EndSplineSet
EndChar
StartChar: afii10023
Encoding: 1025 1025 404
Width: 709
Flags: W
Fore
232 314 m 1
 232 125 l 1
 627 125 l 1
 627 0 l 1
 82 0 l 1
 82 729 l 1
 609 729 l 1
 609 604 l 1
 232 604 l 1
 232 439 l 1
 581 439 l 1
 581 314 l 1
 232 314 l 1
310 922 m 1
 310 800 l 1
 200 800 l 1
 200 922 l 1
 310 922 l 1
496 922 m 1
 496 800 l 1
 386 800 l 1
 386 922 l 1
 496 922 l 1
EndSplineSet
EndChar
StartChar: afii10051
Encoding: 1026 1026 405
Width: 790
Flags: W
Fore
352 504 m 1
 540 504 l 2
 607.333 504 663 482.333 707 439 c 0
 741 405.667 758 367.333 758 324 c 2
 758 323 l 1
 758 0 l 1
 752 -44.6667 744 -75.3333 734 -92 c 0
 720.667 -115.333 698.667 -133.333 668 -146 c 1
 630.667 -154.667 594.333 -160 559 -162 c 2
 538 -163 l 1
 468 -164 l 1
 468 -70 l 1
 528 -70 l 2
 572 -69.3333 598 -51.3333 606 -16 c 1
 608 0 l 1
 608 317 l 2
 608 349 589.667 368.667 553 376 c 1
 528 379 l 1
 353 379 l 1
 353 0 l 1
 202 0 l 1
 202 605 l 1
 14 605 l 1
 14 729 l 1
 536 729 l 1
 536 605 l 1
 352 605 l 1
 352 504 l 1
EndSplineSet
EndChar
StartChar: afii10052
Encoding: 1027 1027 406
Width: 611
Flags: W
Fore
224 0 m 1
 74 0 l 1
 74 729 l 1
 586 729 l 1
 586 604 l 1
 224 604 l 1
 224 0 l 1
428 979 m 1
 302 829 l 1
 232 829 l 1
 302 979 l 1
 428 979 l 1
EndSplineSet
EndChar
StartChar: afii10053
Encoding: 1028 1028 407
Width: 722
Flags: W
Fore
488 311 m 1
 196 311 l 1
 205.333 207 244 141.667 312 115 c 0
 332 107 354 103 378 103 c 0
 452 103 501.333 133 526 193 c 0
 532.667 209.667 537 228.333 539 249 c 1
 685 249 l 1
 679.667 150.333 639 76.3333 563 27 c 0
 511 -6.33333 448 -23 374 -23 c 0
 259.333 -23 172.333 19.6667 113 105 c 0
 67 171 44 255.333 44 358 c 0
 44 496.667 84 600 164 668 c 0
 221.333 716.667 292.667 741 378 741 c 0
 485.333 741 568 705.667 626 635 c 2
 633 626 l 2
 661 589.333 677.333 541.333 682 482 c 1
 539 482 l 1
 531 516.667 520 542.667 506 560 c 0
 478 595.333 437 613 383 613 c 0
 309.667 613 256.333 580 223 514 c 0
 211 491.333 202.333 465.333 197 436 c 1
 488 436 l 1
 488 311 l 1
EndSplineSet
EndChar
StartChar: afii10054
Encoding: 1029 1029 408
Width: 667
Flags: W
Fore
607 507 m 1
 467 507 l 1
 462.333 574.333 420.667 612 342 620 c 1
 314 621 l 2
 254 621 215 603.333 197 568 c 2
 196 567 l 2
 190.667 556.333 188 544.333 188 531 c 0
 188 500.333 202 478 230 464 c 0
 245.333 456 266.667 449 294 443 c 0
 294.667 443 295.333 442.667 296 442 c 2
 326 436 l 1
 440 414 l 2
 536.667 395.333 596.667 355.667 620 295 c 0
 628.667 272.333 633 245 633 213 c 0
 633 119.667 592.333 53 511 13 c 0
 463 -11 404 -23 334 -23 c 0
 190.667 -23 97.6667 24.3333 55 119 c 0
 41.6667 147.667 34 180.667 32 218 c 1
 178 218 l 1
 182 151.333 221 112 295 100 c 1
 342 97 l 1
 414 97 460 117 480 157 c 0
 486 168.333 489 181 489 195 c 0
 489 233.667 469.667 261.667 431 279 c 0
 411.667 287.667 385.333 295 352 301 c 2
 250 321 l 2
 154 339 92.6667 372.333 66 421 c 2
 65 422 l 1
 65 423 l 1
 64 424 l 2
 51.3333 448.667 45 479.667 45 517 c 0
 45 612.333 86.6667 678 170 714 c 0
 212 732 262.333 741 321 741 c 0
 427 741 505.333 713.333 556 658 c 0
 590 620.667 607 570.333 607 507 c 1
EndSplineSet
EndChar
StartChar: afii10058
Encoding: 1033 1033 412
Width: 1110
Flags: W
Fore
507 0 m 1
 507 604 l 1
 285 604 l 1
 285 414 l 2
 285 195.333 235.667 63.3333 137 18 c 0
 110.333 6 80 0 46 0 c 1
 46 145 l 1
 82.6667 144.333 107.333 176 120 240 c 0
 130 287.333 135 360.667 135 460 c 2
 135 461 l 1
 135 729 l 1
 657 729 l 1
 657 435 l 1
 844 435 l 2
 926.667 435 987.667 403 1027 339 c 0
 1051.67 299 1064 250.333 1064 193 c 2
 1064 192 l 2
 1064 126 1045 79 1007 51 c 2
 1006 50 l 2
 988 37.3333 961.667 25.3333 927 14 c 0
 898.333 4.66667 865.667 4.33681e-19 829 0 c 2
 507 0 l 1
657 310 m 1
 657 125 l 1
 797 125 l 2
 844.333 125 874 127.667 886 133 c 2
 887 134 l 1
 888 134 l 2
 895.333 138 901 143.667 905 151 c 0
 909 159 911.667 169.667 913 183 c 1
 914 200 l 1
 914 201 l 2
 914 268.333 881 304.333 815 309 c 2
 814 309 l 1
 813 310 l 1
 797 310 l 1
 657 310 l 1
EndSplineSet
EndChar
StartChar: afii10059
Encoding: 1034 1034 413
Width: 1113
Flags: W
Fore
657 729 m 1
 657 469 l 1
 844 469 l 2
 926.667 469 987.667 437 1027 373 c 0
 1051.67 333 1064 284 1064 226 c 0
 1064 114.667 1019 44 929 14 c 0
 899.667 4.66667 866.333 4.33681e-19 829 0 c 2
 507 0 l 1
 507 311 l 1
 218 311 l 1
 218 0 l 1
 68 0 l 1
 68 729 l 1
 218 729 l 1
 218 436 l 1
 506 436 l 1
 506 729 l 1
 657 729 l 1
657 344 m 1
 657 125 l 1
 797 125 l 2
 869 125 907.667 155.667 913 217 c 0
 913.667 222.333 914 228.333 914 235 c 0
 914 302.333 881 338.333 815 343 c 2
 814 343 l 1
 813 344 l 1
 797 344 l 1
 657 344 l 1
EndSplineSet
EndChar
StartChar: afii10060
Encoding: 1035 1035 414
Width: 790
Flags: W
Fore
352 504 m 1
 540 504 l 2
 607.333 504 663 482.333 707 439 c 0
 741 405.667 758 367.333 758 324 c 2
 758 323 l 1
 758 0 l 1
 608 0 l 1
 608 317 l 2
 608 349 589.667 368.667 553 376 c 1
 528 379 l 1
 353 379 l 1
 353 0 l 1
 202 0 l 1
 202 605 l 1
 14 605 l 1
 14 729 l 1
 536 729 l 1
 536 605 l 1
 352 605 l 1
 352 504 l 1
EndSplineSet
EndChar
StartChar: afii10061
Encoding: 1036 1036 415
Width: 722
Flags: W
Fore
224 0 m 1
 74 0 l 1
 74 729 l 1
 224 729 l 1
 224 450 l 1
 509 729 l 1
 686 729 l 1
 320 378 l 1
 717 0 l 1
 538 0 l 1
 224 285 l 1
 224 0 l 1
478 929 m 1
 352 779 l 1
 282 779 l 1
 352 929 l 1
 478 929 l 1
EndSplineSet
EndChar
StartChar: uni040D
Encoding: 1037 1037 416
Width: 726
Flags: W
Fore
218 0 m 1
 68 0 l 1
 68 729 l 1
 218 729 l 1
 218 233 l 1
 507 729 l 1
 661 729 l 1
 661 0 l 1
 511 0 l 1
 511 504 l 1
 218 0 l 1
266 929 m 1
 392 929 l 1
 462 779 l 1
 392 779 l 1
 266 929 l 1
EndSplineSet
EndChar
StartChar: afii10062
Encoding: 1038 1038 417
Width: 718
Flags: W
Fore
328 0 m 1
 154 0 l 1
 268 226 l 1
 15 729 l 1
 178 729 l 1
 350 384 l 1
 522 729 l 1
 696 729 l 1
 328 0 l 1
488 922 m 1
 488 911 l 2
 488 863.667 469 827 431 801 c 0
 409 786.333 384 779 356 779 c 0
 308 779 271.333 798 246 836 c 1
 246 837 l 1
 231.333 859 224 884 224 912 c 2
 224 922 l 1
 280 922 l 1
 286 878 311.667 856 357 856 c 0
 397.667 856 422.333 875.667 431 915 c 1
 432 922 l 1
 488 922 l 1
EndSplineSet
EndChar
StartChar: afii10145
Encoding: 1039 1039 418
Width: 722
Flags: W
Fore
428 0 m 1
 428 -150 l 1
 298 -150 l 1
 298 0 l 1
 68 0 l 1
 68 729 l 1
 218 729 l 1
 218 125 l 1
 508 125 l 1
 508 729 l 1
 658 729 l 1
 658 0 l 1
 428 0 l 1
EndSplineSet
EndChar
StartChar: afii10018
Encoding: 1041 1041 420
Width: 722
Flags: W
Fore
395 463 m 2
 511 463 591.667 420 637 334 c 0
 656.333 297.333 666 260 666 222 c 0
 666 172.667 651.333 127 622 85 c 0
 613.333 72.3333 604 61.6667 594 53 c 0
 552 17.6667 490.667 1.73472e-18 410 0 c 2
 82 0 l 1
 82 729 l 1
 594 729 l 1
 594 604 l 1
 232 604 l 1
 232 463 l 1
 395 463 l 2
232 338 m 1
 232 125 l 1
 411 125 l 2
 464.333 125 499 146 515 188 c 0
 519.667 200.667 522 215 522 231 c 0
 522 280.333 501.667 313 461 329 c 0
 446.333 335 429.667 338 411 338 c 2
 232 338 l 1
EndSplineSet
EndChar
StartChar: afii10020
Encoding: 1043 1043 422
Width: 611
Flags: W
Fore
232 0 m 1
 82 0 l 1
 82 729 l 1
 594 729 l 1
 594 604 l 1
 232 604 l 1
 232 0 l 1
EndSplineSet
EndChar
StartChar: afii10021
Encoding: 1044 1044 423
Width: 900
Flags: W
Fore
139 108 m 2
 169.667 108 193.667 150.667 211 236 c 0
 223.667 298 230 373 230 461 c 2
 230 729 l 1
 750 729 l 1
 750 108 l 1
 865 108 l 1
 865 -150 l 1
 735 -150 l 1
 735 0 l 1
 165 0 l 1
 165 -150 l 1
 35 -150 l 1
 35 108 l 1
 139 108 l 2
333 125 m 1
 600 125 l 1
 600 604 l 1
 380 604 l 1
 380 414 l 2
 380 287.333 364.333 191 333 125 c 1
EndSplineSet
EndChar
StartChar: afii10022
Encoding: 1045 1045 424
Width: 709
Flags: W
Fore
232 314 m 1
 232 125 l 1
 627 125 l 1
 627 0 l 1
 82 0 l 1
 82 729 l 1
 609 729 l 1
 609 604 l 1
 232 604 l 1
 232 439 l 1
 581 439 l 1
 581 314 l 1
 232 314 l 1
EndSplineSet
EndChar
StartChar: afii10024
Encoding: 1046 1046 425
Width: 1093
Flags: W
Fore
475 285 m 1
 206 0 l 1
 22 0 l 1
 379 378 l 1
 66 729 l 1
 230 729 l 1
 475 450 l 1
 475 729 l 1
 625 729 l 1
 625 450 l 1
 870 729 l 1
 1034 729 l 1
 721 378 l 1
 1078 0 l 1
 894 0 l 1
 625 285 l 1
 625 0 l 1
 475 0 l 1
 475 285 l 1
EndSplineSet
EndChar
StartChar: afii10025
Encoding: 1047 1047 426
Width: 672
Flags: W
Fore
250 428 m 1
 326 428 l 2
 417.333 428 463.333 462.333 464 531 c 0
 464 571 442 598 398 612 c 0
 380.667 618 360.667 621 338 621 c 0
 248 621 197.667 587.667 187 521 c 0
 185 511 l 0
 185 510 185 510 185 507 c 1
 45 507 l 1
 45 569.667 62 620 96 658 c 0
 146 713.333 224.333 741 331 741 c 0
 454.333 741 537.333 703.667 580 629 c 0
 598 597.667 607 560.333 607 517 c 0
 607 455 586 408.333 544 377 c 1
 598.667 347 628 299.333 632 234 c 1
 633 213 l 1
 633 119.667 592.333 53 511 13 c 0
 463 -11 404 -23 334 -23 c 0
 190.667 -23 97.6667 24.3333 55 119 c 0
 41.6667 147.667 34 180.667 32 218 c 1
 178 218 l 1
 182 151.333 221 112 295 100 c 1
 342 97 l 1
 414 97 460 117 480 157 c 0
 486 168.333 489 181 489 195 c 0
 489 250.333 462.667 285.667 410 301 c 0
 398 304.333 385 306.333 371 307 c 0
 365 307.667 358.667 308 352 308 c 2
 250 308 l 1
 250 428 l 1
EndSplineSet
EndChar
StartChar: afii10026
Encoding: 1048 1048 427
Width: 757
Flags: W
Fore
232 0 m 1
 82 0 l 1
 82 729 l 1
 232 729 l 1
 232 233 l 1
 521 729 l 1
 675 729 l 1
 675 0 l 1
 525 0 l 1
 525 504 l 1
 232 0 l 1
EndSplineSet
EndChar
StartChar: afii10027
Encoding: 1049 1049 428
Width: 757
Flags: W
Fore
507 927 m 1
 507 916 l 2
 507 868.667 488 832 450 806 c 0
 428 791.333 403 784 375 784 c 0
 327 784 290.333 803 265 841 c 1
 265 842 l 1
 250.333 864 243 889 243 917 c 2
 243 927 l 1
 299 927 l 1
 305 883 330.667 861 376 861 c 0
 414 861 438 879 448 915 c 1
 448 916 l 1
 449 917 l 1
 449 918 l 1
 451 927 l 1
 507 927 l 1
232 0 m 1
 82 0 l 1
 82 729 l 1
 232 729 l 1
 232 233 l 1
 521 729 l 1
 675 729 l 1
 675 0 l 1
 525 0 l 1
 525 504 l 1
 232 0 l 1
EndSplineSet
EndChar
StartChar: afii10028
Encoding: 1050 1050 429
Width: 750
Flags: W
Fore
232 0 m 1
 82 0 l 1
 82 729 l 1
 232 729 l 1
 232 450 l 1
 517 729 l 1
 694 729 l 1
 328 378 l 1
 725 0 l 1
 525 0 l 1
 232 285 l 1
 232 0 l 1
EndSplineSet
EndChar
StartChar: afii10029
Encoding: 1051 1051 430
Width: 729
Flags: W
Fore
497 604 m 1
 275 604 l 1
 275 400 l 2
 275 188 228.333 58 135 10 c 0
 106.333 -4.66667 73.3333 -12 36 -12 c 1
 36 133 l 1
 70 132.333 93.6667 156.667 107 206 c 0
 119 251.333 125 331.667 125 447 c 2
 125 729 l 1
 647 729 l 1
 647 0 l 1
 497 0 l 1
 497 604 l 1
EndSplineSet
EndChar
StartChar: afii10030
Encoding: 1052 1052 431
Width: 874
Flags: W
Fore
232 568 m 1
 232 0 l 1
 82 0 l 1
 82 729 l 1
 306 729 l 1
 438 149 l 1
 566 729 l 1
 792 729 l 1
 792 0 l 1
 642 0 l 1
 642 568 l 1
 513 0 l 1
 363 0 l 1
 232 568 l 1
EndSplineSet
EndChar
StartChar: afii10031
Encoding: 1053 1053 432
Width: 753
Flags: W
Fore
521 331 m 1
 232 331 l 1
 232 0 l 1
 82 0 l 1
 82 729 l 1
 232 729 l 1
 232 456 l 1
 520 456 l 1
 520 729 l 1
 671 729 l 1
 671 0 l 1
 521 0 l 1
 521 331 l 1
EndSplineSet
EndChar
StartChar: afii10033
Encoding: 1055 1055 434
Width: 753
Flags: W
Fore
521 604 m 1
 232 604 l 1
 232 0 l 1
 82 0 l 1
 82 729 l 1
 671 729 l 1
 671 0 l 1
 521 0 l 1
 521 604 l 1
EndSplineSet
EndChar
StartChar: afii10034
Encoding: 1056 1056 435
Width: 671
Flags: W
Fore
232 260 m 1
 232 0 l 1
 82 0 l 1
 82 729 l 1
 404 729 l 2
 522 729 596 684 626 594 c 0
 626 592 l 0
 634.667 566 639 536.333 639 503 c 0
 639 409.667 608.667 341.667 548 299 c 1
 548 298 l 1
 547 297 l 2
 511 272.333 468.333 260 419 260 c 2
 232 260 l 1
232 385 m 1
 372 385 l 2
 444.667 385 483.333 416.333 488 479 c 1
 489 494 l 1
 489 560.667 457 597 393 603 c 2
 372 604 l 1
 232 604 l 1
 232 385 l 1
EndSplineSet
EndChar
StartChar: afii10037
Encoding: 1059 1059 438
Width: 718
Flags: W
Fore
328 0 m 1
 154 0 l 1
 268 226 l 1
 15 729 l 1
 178 729 l 1
 350 384 l 1
 522 729 l 1
 696 729 l 1
 328 0 l 1
EndSplineSet
EndChar
StartChar: afii10038
Encoding: 1060 1060 439
Width: 892
Flags: W
Fore
371 0 m 1
 371 94 l 1
 310.333 94 266 96.6667 238 102 c 0
 100 129.333 30.6667 220 30 374 c 0
 30 545.333 126.333 633.333 319 638 c 0
 330 638 330 638 342 638 c 0
 298.667 638 308.333 638 371 638 c 1
 371 729 l 1
 521 729 l 1
 521 638 l 1
 594.333 638 648.667 633.333 684 624 c 0
 776 600 832.333 544 853 456 c 0
 859 431.333 862 404 862 374 c 0
 862 184 754.667 90.6667 540 94 c 2
 529 94 l 1
 521 94 l 1
 521 0 l 1
 371 0 l 1
371 188 m 1
 371 540 l 1
 314.333 540 272.333 533.667 245 521 c 0
 191.667 496.333 164.667 446 164 370 c 0
 164 259.333 209.333 199 300 189 c 0
 311.333 188.333 335 188 371 188 c 1
521 188 m 1
 568.333 188 600 189.667 616 193 c 0
 690 209.667 727.333 268.667 728 370 c 0
 728 480.667 669.333 537.333 552 540 c 2
 521 540 l 1
 521 188 l 1
EndSplineSet
EndChar
StartChar: afii10040
Encoding: 1062 1062 441
Width: 816
Flags: W
Fore
521 125 m 1
 521 729 l 1
 671 729 l 1
 671 108 l 1
 781 108 l 1
 781 -150 l 1
 651 -150 l 1
 651 0 l 1
 82 0 l 1
 82 729 l 1
 232 729 l 1
 232 125 l 1
 521 125 l 1
EndSplineSet
EndChar
StartChar: afii10041
Encoding: 1063 1063 442
Width: 685
Flags: W
Fore
474 225 m 1
 286 225 l 2
 218.667 225 163 246.667 119 290 c 0
 85 323.333 68 362 68 406 c 2
 68 729 l 1
 218 729 l 1
 218 412 l 2
 218 380 236.333 360.333 273 353 c 1
 298 350 l 1
 473 350 l 1
 473 729 l 1
 624 729 l 1
 624 0 l 1
 474 0 l 1
 474 225 l 1
EndSplineSet
EndChar
StartChar: afii10042
Encoding: 1064 1064 443
Width: 1057
Flags: W
Fore
967 0 m 1
 68 0 l 1
 68 729 l 1
 218 729 l 1
 218 125 l 1
 437 125 l 1
 437 729 l 1
 587 729 l 1
 587 125 l 1
 817 125 l 1
 817 729 l 1
 967 729 l 1
 967 0 l 1
EndSplineSet
EndChar
StartChar: afii10043
Encoding: 1065 1065 444
Width: 1183
Flags: W
Fore
962 0 m 1
 68 0 l 1
 68 729 l 1
 218 729 l 1
 218 125 l 1
 447 125 l 1
 447 729 l 1
 597 729 l 1
 597 125 l 1
 827 125 l 1
 827 729 l 1
 977 729 l 1
 977 108 l 1
 1097 108 l 1
 1097 -150 l 1
 962 -150 l 1
 962 0 l 1
EndSplineSet
EndChar
StartChar: afii10044
Encoding: 1066 1066 445
Width: 928
Flags: W
Fore
394 469 m 1
 581 469 l 2
 663.667 469 724.667 437 764 373 c 0
 788.667 333 801 284 801 226 c 0
 801 114.667 756 44 666 14 c 0
 636.667 4.66667 603.333 4.33681e-19 566 0 c 2
 244 0 l 1
 244 604 l 1
 14 605 l 1
 14 729 l 1
 394 729 l 1
 394 469 l 1
394 344 m 1
 394 125 l 1
 534 125 l 2
 606 125 644.667 155.667 650 217 c 0
 650.667 222.333 651 228.333 651 235 c 0
 651 302.333 618 338.333 552 343 c 2
 551 343 l 1
 550 344 l 1
 534 344 l 1
 394 344 l 1
EndSplineSet
EndChar
StartChar: afii10045
Encoding: 1067 1067 446
Width: 949
Flags: W
Fore
884 729 m 1
 884 0 l 1
 734 0 l 1
 734 729 l 1
 884 729 l 1
218 469 m 1
 405 469 l 2
 487.667 469 548.667 437 588 373 c 0
 612.667 333 625 284 625 226 c 0
 625 114 579.333 43.3333 488 14 c 0
 459.333 4.66667 426.667 4.33681e-19 390 0 c 2
 68 0 l 1
 68 729 l 1
 218 729 l 1
 218 469 l 1
218 344 m 1
 218 125 l 1
 358 125 l 2
 430 125 468.667 155.667 474 217 c 0
 474.667 222.333 475 228.333 475 235 c 0
 475 302.333 442 338.333 376 343 c 2
 358 344 l 1
 218 344 l 1
EndSplineSet
EndChar
StartChar: afii10046
Encoding: 1068 1068 447
Width: 687
Flags: W
Fore
226 469 m 1
 413 469 l 2
 495.667 469 556.667 437 596 373 c 0
 620.667 333 633 284 633 226 c 0
 633 114 587.333 43.3333 496 14 c 0
 467.333 4.66667 434.667 4.33681e-19 398 0 c 2
 76 0 l 1
 76 729 l 1
 226 729 l 1
 226 469 l 1
226 344 m 1
 226 125 l 1
 366 125 l 2
 438 125 476.667 155.667 482 217 c 0
 482.667 222.333 483 228.333 483 235 c 0
 483 302.333 450 338.333 384 343 c 2
 366 344 l 1
 226 344 l 1
EndSplineSet
EndChar
StartChar: afii10047
Encoding: 1069 1069 448
Width: 722
Flags: W
Fore
241 311 m 1
 241 436 l 1
 532 436 l 1
 517.333 520 478.667 574.667 416 600 c 0
 394.667 608.667 371.333 613 346 613 c 0
 292 613 251 595.333 223 560 c 0
 209 542.667 198 516.667 190 482 c 1
 47 482 l 1
 51.6667 540.667 68 588.667 96 626 c 0
 151.333 699.333 231.667 737.667 337 741 c 0
 351 741 l 0
 468.333 741 557 697.333 617 610 c 0
 662.333 544 685 460 685 358 c 0
 685 221.333 645.667 118.667 567 50 c 0
 510.333 1.33333 439.667 -23 355 -23 c 0
 245 -23 161.667 12 105 82 c 0
 67.6667 127.333 47.3333 183 44 249 c 1
 190 249 l 1
 196.667 177 230.333 131.333 291 112 c 0
 309 106 329 103 351 103 c 0
 430.333 103 484.667 142.333 514 221 c 0
 523.333 247.667 529.667 277.667 533 311 c 1
 241 311 l 1
EndSplineSet
EndChar
StartChar: afii10048
Encoding: 1070 1070 449
Width: 1109
Flags: W
Fore
367 436 m 1
 380.333 517.333 412.333 585.333 463 640 c 0
 525 707.333 604.333 741 701 741 c 0
 789.667 741 863 714 921 660 c 1
 941 640 l 1
 1006.33 570 1040.33 479 1043 367 c 1
 1043 354 l 2
 1043 265.333 1019.33 186.333 972 117 c 0
 962.667 103 952.333 90 941 78 c 0
 883 15.3333 810.667 -18 724 -22 c 0
 718 -22.6667 710.667 -23 702 -23 c 0
 610 -23 534 6.66667 474 66 c 1
 470.667 70 467 74 463 78 c 0
 406.333 138.667 373.333 216.333 364 311 c 1
 218 311 l 1
 218 0 l 1
 68 0 l 1
 68 729 l 1
 218 729 l 1
 218 436 l 1
 367 436 l 1
702 613 m 0
 626.667 613 572.333 577.333 539 506 c 0
 520.333 465.333 511 416.333 511 359 c 0
 511 255 539.333 181.667 596 139 c 2
 597 138 l 2
 626.333 116 661.333 105 702 105 c 0
 775.333 105 828.667 138.667 862 206 c 0
 882.667 247.333 893 297 893 355 c 0
 893 468.333 861.667 545.333 799 586 c 0
 771.667 604 739.333 613 702 613 c 0
EndSplineSet
EndChar
StartChar: afii10049
Encoding: 1071 1071 450
Width: 698
Flags: W
Fore
422 260 m 1
 201 0 l 1
 22 0 l 1
 242 265 l 1
 183.333 276.333 138.667 309.667 108 365 c 0
 86.6667 404.333 76 450.333 76 503 c 0
 76 615 121.667 685.667 213 715 c 0
 241.667 724.333 274.333 729 311 729 c 2
 633 729 l 1
 633 0 l 1
 483 0 l 1
 483 260 l 1
 422 260 l 1
483 385 m 1
 483 604 l 1
 343 604 l 2
 271 604 232.333 573.333 227 512 c 1
 226 494 l 1
 226 426.667 259 390.667 325 386 c 2
 343 385 l 1
 483 385 l 1
EndSplineSet
EndChar
StartChar: afii10066
Encoding: 1073 1073 452
Width: 606
Flags: W
Fore
438 776 m 1
 542 777 l 1
 542 729.667 535.667 697.333 523 680 c 1
 510 667 l 1
 509 666 l 2
 480.333 645.333 438.333 632 383 626 c 0
 393 626.667 387.333 626 366 624 c 0
 316 618 278.333 607.333 253 592 c 0
 199.667 559.333 171.667 517.667 169 467 c 0
 169 464 169 464 169 462 c 1
 197.667 520 254 549 338 549 c 0
 394.667 549 443.333 529 484 489 c 0
 492.667 480.333 500.333 471.333 507 462 c 0
 545.667 406.667 565 340.333 565 263 c 0
 565 159.667 533.333 82 470 30 c 0
 426 -5.33333 371 -23 305 -23 c 0
 201 -23 130 11 92 79 c 0
 64 128.333 50 199.333 50 292 c 0
 50 475.333 90.6667 600.333 172 667 c 0
 179.333 673 187.333 678.667 196 684 c 0
 220.667 699.333 272 711.333 350 720 c 2
 360 721 l 1
 386 724 l 2
 414 727.333 431 743 437 771 c 1
 437 772 l 1
 438 776 l 1
307 432 m 0
 263 432 230 408.333 208 361 c 1
 208 361 l 1
 195.333 333.667 189 301.667 189 265 c 0
 189 192.333 209 141.667 249 113 c 0
 265.667 100.333 285 94 307 94 c 0
 349.667 94 382.333 117 405 163 c 0
 418.333 191 425 224 425 262 c 0
 425 330 406.333 379.333 369 410 c 0
 350.333 424.667 329.667 432 307 432 c 0
EndSplineSet
EndChar
StartChar: afii10067
Encoding: 1074 1074 453
Width: 572
Flags: W
Fore
60 0 m 1
 60 540 l 1
 326 540 l 2
 381.333 540 424 527 454 501 c 0
 484.667 474.333 501 440 503 398 c 1
 503 361.333 489.667 330.667 463 306 c 0
 453 296.667 441.667 290 429 286 c 1
 471 273.333 498.667 244 512 198 c 0
 516 184.667 518 170.333 518 155 c 0
 518 111.667 503 75.3333 473 46 c 2
 472 45 l 1
 471 45 l 2
 465 39 l 0
 434.333 13 389 0 329 0 c 2
 60 0 l 1
200 430 m 1
 200 333 l 1
 294 333 l 2
 332.667 333 355.667 340.667 363 356 c 1
 364 356 l 1
 366.667 362 368 370 368 380 c 0
 368 406 355.667 421.667 331 427 c 2
 330 427 l 1
 294 430 l 1
 200 430 l 1
200 223 m 1
 200 110 l 1
 300 110 l 2
 344.667 110 370.333 123 377 149 c 0
 378.333 154.333 379 161.333 379 170 c 0
 379 197.333 367.667 213.667 345 219 c 0
 335 221.667 320 223 300 223 c 2
 200 223 l 1
EndSplineSet
EndChar
StartChar: afii10068
Encoding: 1075 1075 454
Width: 454
Flags: W
Fore
408 540 m 1
 408 427 l 1
 200 427 l 1
 200 0 l 1
 60 0 l 1
 60 540 l 1
 408 540 l 1
EndSplineSet
EndChar
StartChar: afii10069
Encoding: 1076 1076 455
Width: 685
Flags: W
Fore
580 101 m 1
 662 101 l 1
 662 -125 l 1
 552 -125 l 1
 552 0 l 1
 133 0 l 1
 133 -125 l 1
 23 -125 l 1
 23 101 l 1
 85 101 l 2
 117.667 101.667 140.667 152.333 154 253 c 0
 159.333 294.333 162 339.333 162 388 c 2
 162 540 l 1
 580 540 l 1
 580 101 l 1
263 113 m 1
 440 113 l 1
 440 427 l 1
 302 427 l 1
 302 376 l 2
 302 259.333 289 171.667 263 113 c 1
EndSplineSet
EndChar
StartChar: afii10072
Encoding: 1078 1078 457
Width: 809
Flags: W
Fore
332 198 m 1
 195 0 l 1
 16 0 l 1
 229 296 l 1
 52 540 l 1
 200 540 l 1
 332 351 l 1
 332 540 l 1
 472 540 l 1
 472 351 l 1
 604 540 l 1
 752 540 l 1
 575 296 l 1
 788 0 l 1
 609 0 l 1
 472 198 l 1
 472 0 l 1
 332 0 l 1
 332 198 l 1
EndSplineSet
EndChar
StartChar: afii10073
Encoding: 1079 1079 458
Width: 546
Flags: W
Fore
206 208 m 1
 206 318 l 1
 300 318 l 2
 341.333 318 363 334.667 365 368 c 0
 365 374 l 2
 365 389 l 2
 365 411.667 350 427 320 435 c 0
 309.333 437.667 297.333 439 284 439 c 0
 218 439 184.333 414.667 183 366 c 1
 48 366 l 1
 49.3333 441.333 84.3333 494.333 153 525 c 0
 189.667 541 233 549 283 549 c 0
 375.667 549 440.667 521 478 465 c 0
 492 443.667 500.667 419.333 504 392 c 1
 505 369 l 1
 505 332.333 495 303 475 281 c 1
 461 271 l 1
 500.333 246.333 520 209.333 520 160 c 0
 520 106 500 62 460 28 c 0
 458.667 26.6667 457.333 25.6667 456 25 c 0
 416 -7 358.667 -23 284 -23 c 0
 129.333 -23 45 29.3333 31 134 c 0
 29.6667 141.333 29 149 29 157 c 1
 166 157 l 1
 171.333 133 180.333 116 193 106 c 1
 212.333 93.3333 240 87 276 87 c 0
 336 87 370 101 378 129 c 0
 379.333 132.333 380 136 380 140 c 0
 380 168 371.667 186.667 355 196 c 2
 354 197 l 1
 354 197 l 1
 354 197 l 1
 354 197 l 1
 340.667 204.333 322 208 298 208 c 2
 206 208 l 1
EndSplineSet
EndChar
StartChar: afii10074
Encoding: 1080 1080 459
Width: 615
Flags: W
Fore
60 540 m 1
 200 540 l 1
 200 202 l 1
 395 540 l 1
 555 540 l 1
 555 0 l 1
 415 0 l 1
 415 338 l 1
 220 0 l 1
 60 0 l 1
 60 540 l 1
EndSplineSet
EndChar
StartChar: afii10075
Encoding: 1081 1081 460
Width: 615
Flags: W
Fore
60 540 m 1
 200 540 l 1
 200 202 l 1
 395 540 l 1
 555 540 l 1
 555 0 l 1
 415 0 l 1
 415 338 l 1
 220 0 l 1
 60 0 l 1
 60 540 l 1
440 723 m 1
 440 712 l 2
 440 664.667 421 628 383 602 c 0
 361 587.333 336 580 308 580 c 0
 260 580 223.333 599 198 637 c 1
 198 638 l 1
 183.333 660 176 685 176 713 c 2
 176 723 l 1
 232 723 l 1
 238 679 263.667 657 309 657 c 0
 349.667 657 374.333 676.667 383 716 c 1
 384 723 l 1
 440 723 l 1
EndSplineSet
EndChar
StartChar: afii10076
Encoding: 1082 1082 461
Width: 573
Flags: W
Fore
200 351 m 1
 362 540 l 1
 510 540 l 1
 296 296 l 1
 549 0 l 1
 367 0 l 1
 200 198 l 1
 200 0 l 1
 60 0 l 1
 60 540 l 1
 200 540 l 1
 200 351 l 1
EndSplineSet
EndChar
StartChar: afii10077
Encoding: 1083 1083 462
Width: 577
Flags: W
Fore
104 540 m 1
 517 540 l 1
 517 0 l 1
 377 0 l 1
 377 427 l 1
 244 427 l 1
 244 366 l 2
 244 193.333 214.333 81.6667 155 31 c 0
 126.333 6.33333 89.6667 -7.33333 45 -10 c 2
 29 -10 l 1
 29 125 l 1
 67 125.667 90.3333 161.333 99 232 c 0
 102.333 261.333 104 310 104 378 c 2
 104 540 l 1
EndSplineSet
EndChar
StartChar: afii10078
Encoding: 1084 1084 463
Width: 666
Flags: W
Fore
369 0 m 1
 297 0 l 1
 200 297 l 1
 200 0 l 1
 60 0 l 1
 60 540 l 1
 235 540 l 1
 333 213 l 1
 431 540 l 1
 606 540 l 1
 606 0 l 1
 466 0 l 1
 466 297 l 1
 369 0 l 1
EndSplineSet
EndChar
StartChar: afii10079
Encoding: 1085 1085 464
Width: 603
Flags: W
Fore
60 540 m 1
 200 540 l 1
 200 320 l 1
 403 320 l 1
 403 540 l 1
 543 540 l 1
 543 0 l 1
 403 0 l 1
 403 207 l 1
 200 207 l 1
 200 0 l 1
 60 0 l 1
 60 540 l 1
EndSplineSet
EndChar
StartChar: afii10081
Encoding: 1087 1087 466
Width: 603
Flags: W
Fore
60 540 m 1
 543 540 l 1
 543 0 l 1
 403 0 l 1
 403 427 l 1
 200 427 l 1
 200 0 l 1
 60 0 l 1
 60 540 l 1
EndSplineSet
EndChar
StartChar: afii10082
Encoding: 1088 1088 467
Width: 611
Flags: W
Fore
200 540 m 1
 200 460 l 1
 233.333 519.333 283.333 549 350 549 c 0
 404 549 451.667 530.333 493 493 c 1
 502.333 483.667 510.667 474 518 464 c 0
 554.667 412.667 574 345.333 576 262 c 1
 576 169.333 549.667 95.3333 497 40 c 0
 455.667 -2.66667 406.667 -24 350 -24 c 0
 283.333 -24 233.333 5.33333 200 64 c 1
 200 -218 l 1
 60 -218 l 1
 60 540 l 1
 200 540 l 1
318 432 m 0
 273.333 432 240.333 408 219 360 c 0
 206.333 332.667 200 300 200 262 c 0
 200 191.333 219.333 141.667 258 113 c 0
 276 99.6667 296 93 318 93 c 0
 361.333 93 394 116 416 162 c 0
 429.333 190 436 222.667 436 260 c 0
 436 332.667 416.333 383.667 377 413 c 0
 360.333 425.667 340.667 432 318 432 c 0
EndSplineSet
EndChar
StartChar: afii10084
Encoding: 1090 1090 469
Width: 454
Flags: W
Fore
431 540 m 1
 431 427 l 1
 296 427 l 1
 296 0 l 1
 156 0 l 1
 156 427 l 1
 21 427 l 1
 21 540 l 1
 431 540 l 1
EndSplineSet
EndChar
StartChar: afii10086
Encoding: 1092 1092 471
Width: 957
Flags: W
Fore
404 64 m 1
 370.667 5.33333 320.667 -24 254 -24 c 0
 184.667 -24 128.333 6.33333 85 67 c 0
 47 120.333 28 185.333 28 262 c 0
 28 340 46.3333 405.667 83 459 c 2
 86 464 l 2
 115.333 505.333 156.667 532 210 544 c 0
 222 546.667 236.667 548.333 254 549 c 0
 320.667 549 370.667 519.333 404 460 c 1
 404 719 l 1
 544 719 l 1
 544 460 l 1
 577.333 519.333 627.333 549 694 549 c 0
 748 549 795.667 530.333 837 493 c 1
 846.333 483.667 854.667 474 862 464 c 0
 898.667 412.667 918 345.333 920 262 c 1
 920 169.333 893.667 95.3333 841 40 c 0
 799.667 -2.66667 750.667 -24 694 -24 c 0
 627.333 -24 577.333 5.33333 544 64 c 1
 544 -218 l 1
 404 -218 l 1
 404 64 l 1
286 432 m 0
 240 432 206.667 407.333 186 358 c 0
 174 330.667 168 298 168 260 c 0
 168 193.333 186.667 145 224 115 c 0
 242.667 100.333 263.333 93 286 93 c 0
 330.667 93 363.667 117 385 165 c 0
 397.667 192.333 404 224.667 404 262 c 0
 404 332 384.667 382 346 412 c 2
 345 412 l 2
 327.667 425.333 308 432 286 432 c 0
662 432 m 0
 617.333 432 584.333 408 563 360 c 0
 550.333 332.667 544 300 544 262 c 0
 544 191.333 563.333 141.667 602 113 c 0
 620 99.6667 640 93 662 93 c 0
 704.667 93 737 115.667 759 161 c 0
 773 189 780 222 780 260 c 0
 780 332.667 760.333 383.667 721 413 c 1
 721 413 l 1
 721 413 l 1
 720 413 l 2
 702.667 425.667 683.333 432 662 432 c 0
EndSplineSet
EndChar
StartChar: afii10088
Encoding: 1094 1094 473
Width: 652
Flags: W
Fore
60 0 m 1
 60 540 l 1
 200 540 l 1
 200 113 l 1
 403 113 l 1
 403 540 l 1
 543 540 l 1
 543 101 l 1
 629 101 l 1
 629 -125 l 1
 519 -125 l 1
 519 0 l 1
 60 0 l 1
EndSplineSet
EndChar
StartChar: afii10089
Encoding: 1095 1095 474
Width: 578
Flags: W
Fore
60 540 m 1
 200 540 l 1
 200 326 l 2
 200 300 209.667 284.667 229 280 c 1
 258 278 l 1
 378 278 l 1
 378 540 l 1
 518 540 l 1
 518 0 l 1
 378 0 l 1
 378 165 l 1
 260 165 l 2
 156.667 165 93 198.333 69 265 c 1
 69 266 l 1
 63 283.333 60 303 60 325 c 2
 60 540 l 1
EndSplineSet
EndChar
StartChar: afii10090
Encoding: 1096 1096 475
Width: 886
Flags: W
Fore
826 0 m 1
 60 0 l 1
 60 540 l 1
 200 540 l 1
 200 113 l 1
 371 113 l 1
 371 540 l 1
 511 540 l 1
 511 113 l 1
 686 113 l 1
 686 540 l 1
 826 540 l 1
 826 0 l 1
EndSplineSet
EndChar
StartChar: afii10091
Encoding: 1097 1097 476
Width: 968
Flags: W
Fore
835 0 m 1
 60 0 l 1
 60 540 l 1
 200 540 l 1
 200 113 l 1
 371 113 l 1
 371 540 l 1
 511 540 l 1
 511 113 l 1
 685 113 l 1
 685 540 l 1
 825 540 l 1
 825 101 l 1
 945 101 l 1
 945 -125 l 1
 835 -125 l 1
 835 0 l 1
EndSplineSet
EndChar
StartChar: afii10092
Encoding: 1098 1098 477
Width: 693
Flags: W
Fore
191 0 m 1
 191 427 l 1
 20 427 l 1
 20 540 l 1
 331 540 l 1
 331 359 l 1
 439 359 l 2
 534.333 359 600.333 328.333 637 267 c 0
 654.333 238.333 663 205.333 663 168 c 0
 663 128 651.667 92 629 60 c 0
 623 51.3333 616.667 44.3333 610 39 c 0
 579.333 13 534 0 474 0 c 2
 191 0 l 1
331 249 m 1
 331 110 l 1
 440 110 l 2
 491.333 110 519.333 133.333 524 180 c 1
 524 218.667 501.667 241.333 457 248 c 0
 450.333 248.667 443 249 435 249 c 2
 331 249 l 1
EndSplineSet
EndChar
StartChar: afii10093
Encoding: 1099 1099 478
Width: 811
Flags: W
Fore
308 359 m 2
 403.333 359 469.333 328.333 506 267 c 0
 523.333 238.333 532 205.333 532 168 c 0
 532 128 520.667 92 498 60 c 0
 492 51.3333 485.667 44.3333 479 39 c 0
 448.333 13 403 0 343 0 c 2
 60 0 l 1
 60 540 l 1
 200 540 l 1
 200 359 l 1
 308 359 l 2
200 249 m 1
 200 110 l 1
 309 110 l 2
 360.333 110 388.333 133.333 393 180 c 1
 393 218.667 370.667 241.333 326 248 c 0
 319.333 248.667 312 249 304 249 c 2
 200 249 l 1
718 540 m 1
 718 0 l 1
 578 0 l 1
 578 540 l 1
 718 540 l 1
EndSplineSet
EndChar
StartChar: afii10094
Encoding: 1100 1100 479
Width: 562
Flags: W
Fore
308 359 m 2
 403.333 359 469.333 328.333 506 267 c 0
 523.333 238.333 532 205.333 532 168 c 0
 532 128 520.667 92 498 60 c 0
 492 51.3333 485.667 44.3333 479 39 c 0
 448.333 13 403 0 343 0 c 2
 60 0 l 1
 60 540 l 1
 200 540 l 1
 200 359 l 1
 308 359 l 2
200 249 m 1
 200 110 l 1
 309 110 l 2
 360.333 110 388.333 133.333 393 180 c 1
 393 218.667 370.667 241.333 326 248 c 0
 319.333 248.667 312 249 304 249 c 2
 200 249 l 1
EndSplineSet
EndChar
StartChar: afii10095
Encoding: 1101 1101 480
Width: 564
Flags: W
Fore
203 207 m 1
 203 320 l 1
 377 320 l 1
 371.667 349.333 364.333 372.667 355 390 c 0
 338.333 420.667 309.333 436 268 436 c 0
 227.333 436 199 419 183 385 c 0
 177 372.333 172 356.667 168 338 c 1
 34 338 l 1
 40.6667 426 78.3333 487.667 147 523 c 0
 181.667 540.333 221.667 549 267 549 c 0
 373 549 447 506.667 489 422 c 0
 511 377.333 522 323 522 259 c 0
 522 139 483.333 56.3333 406 11 c 0
 368 -11.6667 322.333 -23 269 -23 c 0
 183.667 -23 119.333 7.66667 76 69 c 0
 52.6667 101.667 38.6667 141 34 187 c 1
 168 187 l 1
 181.333 135 203.667 104 235 94 c 0
 244.333 91.3333 255.333 90 268 90 c 0
 317.333 90 351 117.333 369 172 c 0
 373 182.667 376 194.333 378 207 c 1
 203 207 l 1
EndSplineSet
EndChar
StartChar: afii10096
Encoding: 1102 1102 481
Width: 908
Flags: W
Fore
302 207 m 1
 200 207 l 1
 200 0 l 1
 60 0 l 1
 60 540 l 1
 200 540 l 1
 200 320 l 1
 302 320 l 1
 317.333 431.333 368.667 502.333 456 533 c 0
 485.333 543.667 518 549 554 549 c 0
 673.333 549 751.667 499.333 789 400 c 0
 804.333 360 812 313 812 259 c 0
 812 145 775.667 64.3333 703 17 c 0
 662.333 -9.66667 613 -23 555 -23 c 0
 441.667 -23 365 24.3333 325 119 c 0
 313.667 145 306 174.333 302 207 c 1
555 436 m 0
 503 436 467.667 406.333 449 347 c 0
 441.667 323 438 295 438 263 c 0
 438 182.333 459.667 129.333 503 104 c 2
 504 103 l 2
 517.333 95.6667 534.333 91.3333 555 90 c 1
 605.667 90 640.333 118 659 174 c 0
 667.667 199.333 672 228.333 672 261 c 0
 672 349 648 404.333 600 427 c 0
 586.667 433 571.667 436 555 436 c 0
EndSplineSet
EndChar
StartChar: afii10097
Encoding: 1103 1103 482
Width: 596
Flags: W
Fore
347 207 m 1
 204 0 l 1
 25 0 l 1
 180 218 l 1
 118.667 234.667 78.6667 270.333 60 325 c 0
 54 343.667 51 363.667 51 385 c 0
 51 428.333 66 464.667 96 494 c 2
 104 501 l 2
 134.667 527 180 540 240 540 c 2
 531 540 l 1
 531 0 l 1
 391 0 l 1
 391 207 l 1
 347 207 l 1
391 317 m 1
 391 430 l 1
 269 430 l 2
 224.333 430 198.667 417 192 391 c 1
 190 370 l 1
 190 342.667 201.333 326.333 224 321 c 1
 224 321 l 1
 234 318.333 249 317 269 317 c 2
 391 317 l 1
EndSplineSet
EndChar
StartChar: afii10099
Encoding: 1106 1106 485
Width: 606
Flags: W
Fore
568 132 m 1
 567 353 l 1
 567 354 l 2
 567 420 548.667 468.333 512 499 c 0
 479.333 526.333 439 540 391 540 c 0
 323.667 540 270.667 511 232 453 c 1
 232 567 l 1
 402 567 l 1
 402 671 l 1
 232 671 l 1
 232 729 l 1
 92 729 l 1
 92 671 l 1
 22 671 l 1
 22 567 l 1
 92 567 l 1
 92 0 l 1
 232 0 l 1
 232 315 l 1
 232 315 l 1
 232 333.667 236.667 351.667 246 369 c 0
 265.333 403.667 297 421 341 421 c 0
 371.667 421 395 410 411 388 c 0
 421.667 372 427 349.667 427 321 c 1
 428 112 l 1
 425.333 38 398.667 -22.3333 348 -69 c 0
 320 -95.6667 293.333 -109.333 268 -110 c 1
 268 -172 l 1
 294 -178 333 -165.333 385 -134 c 0
 455.667 -91.3333 507 -38 539 26 c 0
 556.333 60.6667 566 96 568 132 c 1
EndSplineSet
EndChar
StartChar: afii10100
Encoding: 1107 1107 486
Width: 454
Flags: W
Fore
408 540 m 1
 408 427 l 1
 200 427 l 1
 200 0 l 1
 60 0 l 1
 60 540 l 1
 408 540 l 1
332 790 m 1
 206 640 l 1
 136 640 l 1
 206 790 l 1
 332 790 l 1
EndSplineSet
EndChar
StartChar: afii10101
Encoding: 1108 1108 487
Width: 556
Flags: W
Fore
353 207 m 1
 178 207 l 1
 188.667 143 216.333 105 261 93 c 1
 288 90 l 1
 328 90 356.667 108.333 374 145 c 1
 374 146 l 1
 375 147 l 1
 379.667 158.333 384 171.667 388 187 c 1
 522 187 l 1
 513.333 104.333 477 44.6667 413 8 c 0
 376.333 -12.6667 334.333 -23 287 -23 c 0
 181.667 -23 108.333 18.3333 67 101 c 0
 45 144.333 34 197 34 259 c 0
 34 383.667 73.6667 469.333 153 516 c 0
 191 538 236.333 549 289 549 c 0
 381 549 447.333 516.333 488 451 c 1
 500.667 429 510 404.667 516 378 c 1
 522 338 l 1
 388 338 l 1
 376.667 389.333 356.333 420 327 430 c 2
 326 430 l 2
 315.333 434 302.667 436 288 436 c 0
 246.667 436 217.667 420.667 201 390 c 0
 191.667 372.667 184.333 349.333 179 320 c 1
 353 320 l 1
 353 207 l 1
EndSplineSet
EndChar
StartChar: afii10102
Encoding: 1109 1109 488
Width: 556
Flags: W
Fore
505 366 m 1
 370 366 l 1
 369.333 414 335.667 438.333 269 439 c 0
 226.333 439 200.333 427.333 191 404 c 1
 191 403 l 1
 188 389 l 1
 188 374.333 196 363.333 212 356 c 2
 213 356 l 1
 237 347 l 1
 414 296 l 2
 484 275.333 519.333 230 520 160 c 0
 520 106 500 62 460 28 c 0
 458.667 26.6667 457.333 25.6667 456 25 c 0
 416 -7 358.667 -23 284 -23 c 0
 129.333 -23 45 29.3333 31 134 c 0
 29.6667 141.333 29 149 29 157 c 1
 166 157 l 1
 171.333 133 180.333 116 193 106 c 1
 212.333 93.3333 240 87 276 87 c 0
 336 87 370 101 378 129 c 0
 379.333 132.333 380 136 380 140 c 0
 380 157.333 369.667 170 349 178 c 0
 344.333 180 339 182 333 184 c 2
 166 236 l 2
 124.667 249.333 96.3333 263.333 81 278 c 2
 78 281 l 2
 58 303 48 332.333 48 369 c 0
 48 441 80 492.333 144 523 c 0
 178.667 540.333 220.667 549 270 549 c 0
 371.333 549 441 518.667 479 458 c 0
 495.667 432 504.333 401.333 505 366 c 1
EndSplineSet
EndChar
StartChar: afii10106
Encoding: 1113 1113 492
Width: 900
Flags: W
Fore
403 0 m 1
 403 427 l 1
 244 427 l 1
 244 376 l 2
 244 203.333 214.333 91.6667 155 41 c 0
 126.333 16.3333 89.6667 2.66667 45 0 c 2
 29 0 l 1
 29 135 l 1
 67 135.667 90.3333 171.333 99 242 c 0
 102.333 271.333 104 319.667 104 387 c 2
 104 388 l 1
 104 540 l 1
 543 540 l 1
 543 319 l 1
 651 319 l 2
 746.333 319 812.333 288.333 849 227 c 0
 858.333 211.667 862.667 192.333 862 169 c 0
 862 171.667 862 170 862 164 c 0
 862 155 862 155 862 148 c 2
 862 147 l 2
 862 118.333 854 92 838 68 c 2
 830 57 l 2
 824 48.3333 817.667 41.3333 811 36 c 0
 783 12 741.333 0 686 0 c 2
 403 0 l 1
543 209 m 1
 543 110 l 1
 652 110 l 2
 691.333 110 716 114 726 122 c 0
 733.333 128.667 737.667 138.333 739 151 c 1
 739 160 l 2
 739 181.333 729 195 709 201 c 1
 669 208 l 1
 647 209 l 1
 543 209 l 1
EndSplineSet
EndChar
StartChar: afii10107
Encoding: 1114 1114 493
Width: 611
Flags: W
Fore
546 540 m 1
 546 319 l 1
 654 319 l 2
 749.333 319 815.333 288.333 852 227 c 0
 861.333 211.667 865.667 192.333 865 169 c 0
 865 171.667 865 170 865 164 c 0
 865 155 865 155 865 148 c 2
 865 147 l 2
 865 118.333 857 92 841 68 c 2
 833 57 l 2
 827 48.3333 820.667 41.3333 814 36 c 0
 786 12 744.333 0 689 0 c 2
 406 0 l 1
 406 207 l 1
 203 207 l 1
 203 0 l 1
 63 0 l 1
 63 540 l 1
 203 540 l 1
 203 320 l 1
 406 320 l 1
 406 540 l 1
 546 540 l 1
546 209 m 1
 546 110 l 1
 655 110 l 2
 694.333 110 719 114 729 122 c 0
 736.333 128.667 740.667 138.333 742 151 c 1
 742 160 l 2
 742 181.333 732 195 712 201 c 1
 672 208 l 1
 650 209 l 1
 546 209 l 1
EndSplineSet
EndChar
StartChar: afii10108
Encoding: 1115 1115 494
Width: 606
Flags: W
Fore
92 729 m 1
 232 729 l 1
 232 671 l 1
 402 671 l 1
 402 567 l 1
 232 567 l 1
 232 453 l 1
 270.667 511 323.667 540 391 540 c 0
 439 540 479.333 526.333 512 499 c 0
 548.667 468.333 567 420 567 354 c 2
 567 353 l 1
 566 0 l 1
 426 0 l 1
 427 321 l 1
 427 349.667 421.667 372 411 388 c 0
 395 410 371.667 421 341 421 c 0
 297 421 265.333 403.667 246 369 c 0
 236.667 352.333 232 334.333 232 315 c 1
 232 315 l 1
 232 0 l 1
 92 0 l 1
 92 567 l 1
 22 567 l 1
 22 671 l 1
 92 671 l 1
 92 729 l 1
EndSplineSet
EndChar
StartChar: afii10109
Encoding: 1116 1116 495
Width: 573
Flags: W
Fore
199 351 m 1
 361 540 l 1
 509 540 l 1
 295 296 l 1
 548 0 l 1
 366 0 l 1
 199 198 l 1
 199 0 l 1
 59 0 l 1
 59 540 l 1
 199 540 l 1
 199 351 l 1
382 790 m 1
 256 640 l 1
 186 640 l 1
 256 790 l 1
 382 790 l 1
EndSplineSet
EndChar
StartChar: uni045D
Encoding: 1117 1117 496
Width: 608
Flags: W
Fore
60 540 m 1
 200 540 l 1
 200 197 l 1
 388 540 l 1
 543 540 l 1
 543 0 l 1
 403 0 l 1
 403 343 l 1
 215 0 l 1
 60 0 l 1
 60 540 l 1
204 790 m 1
 330 790 l 1
 400 640 l 1
 330 640 l 1
 204 790 l 1
EndSplineSet
EndChar
StartChar: afii10193
Encoding: 1119 1119 498
Width: 608
Flags: W
Fore
357 0 m 1
 357 -125 l 1
 247 -125 l 1
 247 0 l 1
 60 0 l 1
 60 540 l 1
 200 540 l 1
 200 113 l 1
 404 113 l 1
 404 540 l 1
 544 540 l 1
 544 0 l 1
 357 0 l 1
EndSplineSet
EndChar
StartChar: uni048C
Encoding: 1164 1164 499
Width: 687
Flags: W
Fore
226 469 m 1
 413 469 l 2
 495.667 469 556.667 437 596 373 c 0
 620.667 333 633 284 633 226 c 0
 633 114 587.333 43.3333 496 14 c 0
 467.333 4.66667 434.667 4.33681e-19 398 0 c 2
 76 0 l 1
 76 729 l 1
 226 729 l 1
 226 469 l 1
226 344 m 1
 226 125 l 1
 366 125 l 2
 438 125 476.667 155.667 482 217 c 0
 482.667 222.333 483 228.333 483 235 c 0
 483 302.333 450 338.333 384 343 c 2
 366 344 l 1
 226 344 l 1
EndSplineSet
EndChar
StartChar: uni048D
Encoding: 1165 1165 500
Width: 562
Flags: W
Fore
316 333 m 2
 437.333 333 509.667 291 533 207 c 0
 537 191 539.333 173.667 540 155 c 0
 540 111.667 525 75.3333 495 46 c 2
 494 45 l 1
 493 45 l 2
 487 39 l 0
 456.333 13 411 0 351 0 c 2
 60 0 l 1
 60 540 l 1
 200 540 l 1
 200 333 l 1
 316 333 l 2
200 223 m 1
 200 110 l 1
 322 110 l 2
 366.667 110 392.333 123 399 149 c 0
 400.333 154.333 401 161.333 401 170 c 0
 401 197.333 389.667 213.667 367 219 c 0
 357 221.667 342 223 322 223 c 2
 200 223 l 1
EndSplineSet
EndChar
StartChar: afii10050
Encoding: 1168 1168 503
Width: 611
Flags: W
Fore
224 0 m 1
 74 0 l 1
 74 729 l 1
 436 728 l 1
 436 864 l 1
 586 864 l 1
 586 604 l 1
 224 604 l 1
 224 0 l 1
EndSplineSet
EndChar
StartChar: afii10098
Encoding: 1169 1169 504
Width: 454
Flags: W
Fore
412 666 m 1
 412 427 l 1
 204 427 l 1
 204 0 l 1
 64 0 l 1
 64 540 l 1
 284 540 l 1
 284 666 l 1
 412 666 l 1
EndSplineSet
EndChar
StartChar: uni0492
Encoding: 1170 1170 505
Width: 611
Flags: W
Fore
224 0 m 1
 74 0 l 1
 74 729 l 1
 586 729 l 1
 586 604 l 1
 224 604 l 1
 224 0 l 1
EndSplineSet
EndChar
StartChar: uni0493
Encoding: 1171 1171 506
Width: 454
Flags: W
Fore
408 540 m 1
 408 427 l 1
 200 427 l 1
 200 0 l 1
 60 0 l 1
 60 540 l 1
 408 540 l 1
EndSplineSet
EndChar
StartChar: uni0494
Encoding: 1172 1172 507
Width: 611
Flags: W
Fore
224 0 m 1
 74 0 l 1
 74 729 l 1
 586 729 l 1
 586 604 l 1
 224 604 l 1
 224 0 l 1
EndSplineSet
EndChar
StartChar: uni0495
Encoding: 1173 1173 508
Width: 454
Flags: W
Fore
408 540 m 1
 408 427 l 1
 200 427 l 1
 200 0 l 1
 60 0 l 1
 60 540 l 1
 408 540 l 1
EndSplineSet
EndChar
StartChar: uni0496
Encoding: 1174 1174 509
Width: 1093
Flags: W
Fore
475 285 m 1
 201 0 l 1
 22 0 l 1
 379 378 l 1
 66 729 l 1
 230 729 l 1
 475 450 l 1
 475 729 l 1
 625 729 l 1
 625 450 l 1
 870 729 l 1
 1034 729 l 1
 721 378 l 1
 1078 0 l 1
 899 0 l 1
 625 285 l 1
 625 0 l 1
 475 0 l 1
 475 285 l 1
EndSplineSet
EndChar
StartChar: uni0497
Encoding: 1175 1175 510
Width: 809
Flags: W
Fore
332 198 m 1
 195 0 l 1
 16 0 l 1
 229 296 l 1
 52 540 l 1
 200 540 l 1
 332 351 l 1
 332 540 l 1
 472 540 l 1
 472 351 l 1
 604 540 l 1
 752 540 l 1
 575 296 l 1
 788 0 l 1
 609 0 l 1
 472 198 l 1
 472 0 l 1
 332 0 l 1
 332 198 l 1
EndSplineSet
EndChar
StartChar: uni0498
Encoding: 1176 1176 511
Width: 672
Flags: W
Fore
250 428 m 1
 326 428 l 2
 417.333 428 463.333 462.333 464 531 c 0
 464 571 442 598 398 612 c 0
 380.667 618 360.667 621 338 621 c 0
 248 621 197.667 587.667 187 521 c 0
 185 511 l 0
 185 510 185 510 185 507 c 1
 45 507 l 1
 45 569.667 62 620 96 658 c 0
 146 713.333 224.333 741 331 741 c 0
 454.333 741 537.333 703.667 580 629 c 0
 598 597.667 607 560.333 607 517 c 0
 607 455 586 408.333 544 377 c 1
 598.667 347 628 299.333 632 234 c 1
 633 213 l 1
 633 119.667 592.333 53 511 13 c 0
 463 -11 404 -23 334 -23 c 0
 190.667 -23 97.6667 24.3333 55 119 c 0
 41.6667 147.667 34 180.667 32 218 c 1
 178 218 l 1
 182 151.333 221 112 295 100 c 1
 342 97 l 1
 414 97 460 117 480 157 c 0
 486 168.333 489 181 489 195 c 0
 489 250.333 462.667 285.667 410 301 c 0
 398 304.333 385 306.333 371 307 c 0
 365 307.667 358.667 308 352 308 c 2
 250 308 l 1
 250 428 l 1
EndSplineSet
EndChar
